<?xml version="1.0" encoding="utf-8"?>
<!-- Generator: Adobe Illustrator 23.1.1, SVG Export Plug-In . SVG Version: 6.00 Build 0)  -->
<svg version="1.1" id="Layer_1" xmlns="http://www.w3.org/2000/svg" xmlns:xlink="http://www.w3.org/1999/xlink" x="0px" y="0px"
	 viewBox="0 0 2000 1000" style="enable-background:new 0 0 2000 1000;" xml:space="preserve">
<style type="text/css">
	.st0{fill:#C13D96;}
	.st1{fill:#ED2024;}
</style>
<g>
	<rect class="st0" width="2000" height="1000"/>
	<path d="M0.9,780c0-37.6,0-75.1,0-112.7c24.5,0.2,48.9,0.4,73.4,0.6l-0.7-1.1c0.3,37.8,0.5,75.6,0.8,113.4
		C50,780.2,25.4,780.1,0.9,780z"/>
	<path d="M0.9,442c24.6-0.2,49.2-0.3,73.8-0.5c-0.1,37.8-0.2,75.6-0.2,113.4c-24.5-0.1-49-0.2-73.5-0.3C0.9,517.1,0.9,479.6,0.9,442
		z"/>
	<path d="M0.9-2C24-2,47.1-2,74.7-2c0,39.2,0,76.2,0,113.2c-24.6-0.2-49.2-0.4-73.8-0.6C0.9,73.1,0.9,35.6,0.9-2z"/>
	<path d="M74.7,998.1c-24.6,0.2-49.2,0.4-73.8,0.6c0-37.6,0-75.1,0-112.7c24.5-0.1,49-0.2,73.5-0.3c-0.3,37.8-0.5,75.6-0.8,113.4
		L74.7,998.1z"/>
	<path d="M0.9,223.3c24.6-0.1,49.1-0.2,73.7-0.3c0,35.6,0,71.1,0,106.7c-24.6-0.1-49.1-0.2-73.7-0.3C0.9,294,0.9,258.7,0.9,223.3z"
		/>
	<path d="M2000.9,998.7c-22.4-0.2-44.9-0.5-67.3-0.7l1.1,1.2c0-37.9,0-75.8,0-113.7l-1,1.1c22.4-0.2,44.8-0.3,67.3-0.5
		C2000.9,923.6,2000.9,961.1,2000.9,998.7z"/>
	<path d="M2000.9,110.7c-22.3,0.1-44.6,0.2-67,0.4c0-36.2,0-72.4,0-113c23.4,0,45.2,0,67,0C2000.9,35.6,2000.9,73.1,2000.9,110.7z"
		/>
	<path d="M1934,441.6c22.3,0.1,44.6,0.2,67,0.4c0,37.6,0,75.1,0,112.7c-22.4,0.2-44.9,0.4-67.3,0.5
		C1933.7,517.4,1933.9,479.5,1934,441.6z"/>
	<path d="M1933.7,668.1c22.4-0.2,44.9-0.5,67.3-0.7c0,37.6,0,75.1,0,112.7c-22.4-0.2-44.8-0.3-67.3-0.5l1,1.1c0-37.9,0-75.8,0-113.7
		L1933.7,668.1z"/>
	<path d="M2000.9,329.4c-20.8,0-41.6,0-65,0c0-34.6,0-68.8,0-106c21.9,0,43.4,0,65,0C2000.9,258.7,2000.9,294,2000.9,329.4z"/>
	<path d="M1713.7,554.1c0,35.8,0,71.6,0,112.6c-37.3,0-75.4,0-113.5,0l1.1,1.1c0-36.8,0-73.6,0-113.7c-37.9,0-72.8,0-107.7,0
		l1.3,1.2c1.7-35.8,3.5-71.7,5.4-112.7c36.2,0,72.1,0,108,0c0,0-1.2-1.1-1.2-1.1c0,36.8,0,73.5,0,113.5c37.4,0,72.4,0,107.4,0
		L1713.7,554.1z"/>
	<path d="M1054.7,111.3c0-36.1,0-72.3,0-110.7c41,0,76.9,0,119,0c0,36.7,0,73.7,0,110.7c0,0,1.1-1,1.1-1c-40.4,0-80.8,0-121.2,0
		L1054.7,111.3z"/>
	<path d="M506.6,555.4c38.4,0,76.7,0,115.1,0l-1.2-1.2c0.4,37.9,0.8,75.8,1.2,113.7c-38.3,0-76.7,0-115,0
		c0.4-37.9,0.8-75.8,1.3-113.7L506.6,555.4z"/>
	<path d="M727,555.2c38.1,0,76.2,0,114.3-0.1l-0.8-0.8c0.2,37.8,0.4,75.7,0.6,113.5c-38,0-76,0.1-114,0.1
		c0.3-37.9,0.6-75.7,0.9-113.6L727,555.2z"/>
	<path d="M74.3,668c-0.2-37.9-0.3-75.8-0.5-113.6c38.3,0.3,76.5,0.6,114.8,0.9l-1.4-1c0.4,37.9,0.7,75.8,1.1,113.6
		c-38.2-0.3-76.5-0.6-114.7-1L74.3,668z"/>
	<path d="M1934.7,110.3c-1.8,34.9-3.6,69.7-5.5,107.1c-34.1,0-67.8,0-108.8,0c0-35.8,0-71.5,0-107.1
		C1858.6,110.3,1896.7,110.3,1934.7,110.3z"/>
	<path d="M73.8,442.4c0-37.9,0-75.7,0-113.6c34.8,2.1,69.6,4.1,106.2,6.3c0,35.2,0,69.5,0,107.3C143.6,442.4,108.7,442.4,73.8,442.4
		z"/>
	<path d="M400.2,328.4c0.1,38,0.1,76,0.2,114l1-0.8c-35.9,0-71.7,0-107.6,0l1.1,0.9c0-38,0.1-76,0.1-114c0,0-1.3,1.3-1.3,1.3
		c35.9,0,71.8,0,107.7,0L400.2,328.4z"/>
	<path d="M948.1,442.3c0.1-38,0.1-76,0.2-113.9l-1.2,1.3c35.8-0.3,71.6-0.6,107.4-0.8c0,37.8,0,75.7-0.1,113.5
		c-35.8-0.3-71.5-0.6-107.3-0.9C947.1,441.5,948.1,442.3,948.1,442.3z"/>
	<path d="M1280.2,328.4c0.1,38,0.1,76,0.2,113.9c0,0,1-0.8,1-0.8c-35.8,0.3-71.6,0.5-107.4,0.8c0-37.8,0.1-75.7,0.1-113.5
		c35.8,0.3,71.6,0.6,107.4,0.9L1280.2,328.4z"/>
	<path d="M1713.6,328.4c0.1,38,0.1,76,0.2,113.9l1-0.8c-35.8,0-71.7,0-107.5,0c0,0,1.2,1.1,1.2,1.1c0-38.1,0.1-76.1,0.1-114.2
		c0,0-1.3,1.3-1.3,1.3c35.9,0,71.8,0,107.6,0L1713.6,328.4z"/>
	<path d="M188.6,555.3c-1.7-35.7-3.4-71.5-5.3-112.9c39.9,0,75.8,0,111.6,0c0,0-1.1-0.9-1.1-0.9c0.3,37.9,0.6,75.8,1,113.7
		c-35.8-0.3-71.7-0.6-107.5-0.9L188.6,555.3z"/>
	<path d="M400.4,442.3c34.8,0,69.6,0,106.2,0c0,40.1,0,76.5,0,113c0,0,1.3-1.2,1.3-1.2c-35.8,0.3-71.6,0.7-107.5,1
		c0.3-37.9,0.6-75.8,0.9-113.7L400.4,442.3z"/>
	<path d="M621.7,555.4c0.7-38.5,1.3-77.1,2-115.6c0,0-0.9,0.7-0.9,0.7c33.8,0,67.6,0,104.2,0c0,41.5,0,78.1,0,114.7c0,0,1-0.9,1-0.9
		c-35.8,0-71.6-0.1-107.5-0.1C620.5,554.1,621.7,555.4,621.7,555.4z"/>
	<path d="M841.3,555.1c0.8-38.5,1.6-77,2.4-115.4c0,0-0.9,0.7-0.9,0.7c35.1,0.6,70.2,1.3,105.3,1.9c0,0-1-0.8-1-0.8
		c0,37,0,74.1,0,112.8c-38.2,0-72.4,0-106.6,0L841.3,555.1z"/>
	<path d="M1821.3,111.1c-35.8,0-71.6,0.1-107.4,0.1c0-36.1,0-72.3,0-110.7c36,0,69.6,0,107.4,0
		C1821.3,37.2,1821.3,74.2,1821.3,111.1z"/>
	<path d="M1609.7,108.5c-35.2,0-70.4,0-108.5,0c0-36.3,0-71.5,0-108.6c33.4,0,66.1,0,102.1,0c1.8,36.4,3.7,73,5.5,109.7
		C1608.7,109.7,1609.7,108.5,1609.7,108.5z"/>
	<path d="M1283.5,113c0-37.2,0-74.3,0-113.2c33.4,0,66.3,0,101.1,0c0,37.5,0,75.3,0,113.2l0.8-0.6c-34.3,0-68.5-0.1-102.9-0.1
		C1282.5,112.2,1283.5,113,1283.5,113z"/>
	<path d="M1384.7,439.7c0.9,38.4,1.7,76.9,2.6,115.3l0.8-0.7c-35,0-70,0-106.6,0c0-40.4,0-76.6,0-112.8c0,0-1,0.8-1,0.8
		c35-0.6,70.1-1.3,105.1-1.9L1384.7,439.7z"/>
	<path d="M841.7,111.3c0-36.2,0-72.4,0-110.9c34.3,0,67.9,0,105.2,0c0,36.9,0,73.9,0,110.9c0,0,1.1-1.1,1.1-1.1
		c-35.9,0-71.7,0-107.6,0L841.7,111.3z"/>
	<path d="M1714.7,110.3c-0.4,38-0.8,76-1.1,114.1c0,0,1.2-1.3,1.2-1.3c-35.9,0-71.8,0-107.6,0l1.3,1.3c0.4-38.5,0.8-77.1,1.2-115.7
		c0,0-1,1.1-0.9,1.1C1644.1,109.8,1679.4,110,1714.7,110.3z"/>
	<path d="M1173.8,111.3c36.6,0.6,73.1,1.1,109.7,1.7c0,0-1-0.8-0.9-0.7c-0.8,37.4-1.6,74.7-2.4,112.1l1.2-1.3
		c-35.8,0.3-71.6,0.6-107.4,0.9c0.3-37.9,0.5-75.8,0.8-113.6L1173.8,111.3z"/>
	<path d="M401.2,111.4c-0.3,37.7-0.7,75.3-1,113l1.2-1.3c-35.9,0-71.8,0-107.7,0l1.3,1.3c0-37.9,0-75.9,0-113.8l-1,1
		c36,0.3,72,0.6,108.1,1L401.2,111.4z"/>
	<path d="M1387.2,555c35.9,0.1,71.8,0.2,107.8,0.3c0,0-1.3-1.2-1.3-1.2c0,37.9,0.1,75.8,0.1,113.7l1-1c-35.8,0.3-71.5,0.5-107.3,0.8
		c0.2-37.8,0.4-75.6,0.5-113.4L1387.2,555z"/>
	<path d="M73.9,223.9c0-37.9,0-75.7,0-113.6c34.9,0,69.8,0,106.4,0c0,37,0,70.5,0,107C144.8,219.5,109.3,221.7,73.9,223.9z"/>
	<path d="M623.7,112.9c0-37,0-74,0-112.9c33.4,0,67.1,0,103.1,0c0,35.3,0,69.9,0,112.1c-34.4,0-69.2,0-104,0L623.7,112.9z"/>
	<path d="M946.9,111.3c35.9,0,71.9,0,107.8-0.1c0,0-1.1-1-1.1-1c0.3,37.9,0.5,75.7,0.8,113.6c-35.8-0.3-71.6-0.6-107.4-0.8l1,1
		c0-37.9,0-75.8,0-113.7L946.9,111.3z"/>
	<path d="M402.2,112.4c0-36.3,0-72.5,0-111.5c34.4,0,68.9,0,105.1,0c0,35.4,0,70.1,0,110.4c-36.1,0-71.1,0-106.1,0
		C401.2,111.4,402.2,112.4,402.2,112.4z"/>
	<path d="M295.1,110.5c-35.2,0-70.4,0-107.9,0c0-38.7,0-73.4,0-110.2c34,0,67.8,0,106.9,0c0,37.1,0,74.2,0,111.2
		C294.1,111.5,295.1,110.5,295.1,110.5z"/>
	<path d="M622.7,112.1c-1.6,33.9-3.2,67.9-5,104.9c-33.1,0-66.7,0-103.3,0c0-33.9,0-68.3,0-104.2c36.7,0,72.9,0,109.2,0
		C623.7,112.9,622.7,112.1,622.7,112.1z"/>
	<path d="M843.7,439.7c-36.2,0-72.4,0-110.4,0c0-34.8,0-68.6,0-104.6c35.1,0,68.8,0,104.4,0c1.7,35.9,3.4,70.7,5.1,105.4
		C842.8,440.4,843.7,439.7,843.7,439.7z"/>
	<path d="M1384.6,113c35.3,0,70.5,0,108.1,0c0,34.3,0,68.9,0,105.1c-33.9,0-66.7,0-100.6,0c-2.2-36.5-4.3-71.2-6.5-105.8
		C1385.4,112.4,1384.6,113,1384.6,113z"/>
	<path d="M623.7,439.8c-36.2,0-72.5,0-110.4,0c0-35,0-68.7,0-104.8c35.2,0,68.9,0,104.3,0c1.7,36.1,3.4,70.9,5.1,105.6
		C622.8,440.5,623.7,439.8,623.7,439.8z"/>
	<path d="M295.1,328.4c-35.1,0-70.1,0-107.7,0c0-34.2,0-67.6,0-104.1c35.8,0,71.7,0,107.7,0c0,0-1.3-1.3-1.3-1.3
		c0,35.6,0,71.2,0,106.8L295.1,328.4z"/>
	<path d="M400.2,224.3c34.3,0,68.5,0,105.8,0c0,33.6,0,68,0,104c-35.6,0-70.7,0-105.8,0c0,0,1.2,1.3,1.2,1.3c0-35.6,0-71.1,0-106.7
		L400.2,224.3z"/>
	<path d="M948.3,328.4c-34.8,0-69.6,0-106.8,0c0-36.1,0-70.8,0-105.5c0,0-1,1-1,1c35.9,0,71.7,0,107.6,0.1l-1-1
		c0,35.6,0,71.1,0,106.7L948.3,328.4z"/>
	<path d="M1280.2,224.3c34.2,0,68.3,0,105.3,0c0,33.6,0,67.9,0,104c-35.4,0-70.3,0-105.3,0c0,0,1.2,1.3,1.2,1.3
		c0-35.6,0-71.1,0-106.7L1280.2,224.3z"/>
	<path d="M1608.5,328.4c-35.1,0-70.2,0-107.8,0c0-34.3,0-67.7,0-104.2c35.8,0,71.8,0,107.8,0c0,0-1.3-1.3-1.3-1.3
		c0,35.6,0,71.2,0,106.8L1608.5,328.4z"/>
	<path d="M1820.5,442.4c0-34.9,0-69.9,0-107.2c38.5,0,72.2,0,108.5,0c1.9,35.9,3.8,71.6,5.8,107.2
		C1896.7,442.4,1858.6,442.4,1820.5,442.4z"/>
	<path d="M1828.2,998c-34.9,0-69.9,0-106.7,0c0-36.6,0-70.9,0-106.6c36.8-1.7,71.7-3.3,106.7-4.9c0,0-1-1.1-1-1.1
		c0,37.9,0,75.8,0,113.7L1828.2,998z"/>
	<path d="M1601.3,999.1c-35.9-0.4-71.8-0.7-107.7-1.1c0,0,1.2,1.1,1.2,1.1c-0.3-38-0.6-76-0.9-113.9c35.9,0.4,71.7,0.8,107.6,1.2
		c0,0-1.3-1.3-1.3-1.3C1600.5,923.1,1600.9,961.1,1601.3,999.1z"/>
	<path d="M1713.7,442.3c35.8-0.2,71.7-0.5,107.5-0.7c0,35.9,0,71.8,0,112.5c-36.4,0-72,0-107.5,0c0,0,0.8,0.9,0.8,0.9
		c0.1-37.8,0.1-75.7,0.2-113.5C1714.8,441.5,1713.7,442.3,1713.7,442.3z"/>
	<path d="M1934.8,554.2c-0.4,38-0.8,75.9-1.1,113.9c0,0,1.1-1.2,1.1-1.2c-35.9,0-71.7,0-107.6,0l1.1,1.1c0-36.3,0-72.5,0-113.8
		C1864.6,554.2,1899.7,554.2,1934.8,554.2z"/>
	<path d="M1600.1,885.1c0,0,1.3,1.3,1.3,1.3c0-35.6,0-71.2,0-106.8l-1.1,1.3c37.3,0,74.5,0,114.3,0c0,34.3,0,67.7,0,104.1"/>
	<path d="M1600.2,666.7c0,38.1,0,76.2,0,114.2c0,0,1.1-1.3,1.1-1.3c-35.9,0.4-71.7,0.8-107.6,1.2c0.3-38,0.6-76,0.9-113.9l-1,1
		c35.9,0,71.7,0,107.6,0L1600.2,666.7z"/>
	<path d="M1828.2,779.5c-34.9-1.6-69.9-3.2-106.7-4.9c0-34.9,0-68.5,0-106.7c35.2,0,71,0,106.8,0c0,0-1.1-1.1-1.1-1.1
		c0,37.9,0,75.8,0,113.7C1827.1,780.6,1828.2,779.5,1828.2,779.5z"/>
	<path d="M1933.7,779.5c0,35.6,0,71.3,0,106.9c0,0,1-1.1,1-1.1c-35.9,0-71.7,0-107.6,0c0,0,1,1.1,1,1.1c0-35.6,0-71.3,0-106.9
		c0,0-1,1.1-1,1.1c35.9,0,71.7,0,107.6,0L1933.7,779.5z"/>
	<path d="M1713.6,224.3c34.2,0,68.3,0,105.3,0c0,33.6,0,67.9,0,104c-35.4,0-70.3,0-105.3,0c0,0,1.2,1.3,1.2,1.3
		c0-35.6,0-71.1,0-106.7L1713.6,224.3z"/>
	<path d="M1388.5,998c-38.4,0-76.8,0-115.1,0c0,0,1.3,1.1,1.3,1.1c0-35.7,0-71.4,0-107.2c40.3,0,73.9,0,112.5,0
		c0,37.5,0,72.4,0,107.2L1388.5,998z"/>
	<path d="M955.2,998c-38.4,0-76.8,0-115.1,0c0,0,1.3,1.1,1.3,1.1c0-35.7,0-71.4,0-107.2c40.3,0,73.9,0,112.5,0
		c0,37.5,0,72.4,0,107.2L955.2,998z"/>
	<path d="M620.6,999.1c0.4-38,0.8-75.9,1.2-113.9c0,0-1.3,1.3-1.3,1.3c35.9,0,71.8,0,107.6,0l-1.2-1.3c0.4,38,0.8,76,1.1,114
		C692.2,999.1,656.4,999.1,620.6,999.1z"/>
	<path d="M506.7,885.2c0.4,38,0.8,75.9,1.2,113.9c-35.9-0.3-71.8-0.7-107.6-1c0,0,1.1,1.1,1.1,1.1c-0.3-38-0.6-75.9-0.9-113.9
		c35.8,0.4,71.7,0.8,107.5,1.2C508,886.4,506.7,885.2,506.7,885.2z"/>
	<path d="M187.3,885.6c33.6,2,67.2,4,107.4,6.5c0,36,0,71.5,0,107c-35.8,0-71.6,0-107.5,0C187.3,961.2,187.3,923.4,187.3,885.6z"/>
	<path d="M1060.5,999.1c0.4-38,0.8-76,1.1-114c0,0-1.2,1.3-1.2,1.3c35.9-0.4,71.7-0.7,107.6-1.1c-0.3,38-0.6,75.9-0.9,113.9
		c0,0,1.1-1.1,1.1-1.1C1132.3,998.4,1096.4,998.7,1060.5,999.1z"/>
	<path d="M73.8,779.7c38.1,0,76.1,0,114.2,0c0,35.5,0,71.1,0,106.6c-38.1,0-76.1,0-114.2,0C73.8,850.8,73.8,815.2,73.8,779.7z"/>
	<path d="M1174.8,441.5c0,36,0,72,0,111.9c31.3,0,63.6,0,99.8,0c0,40.6,0,77.5,0,114.3c-35.8-0.3-71.7-0.6-107.5-0.9l1,1.1
		c0-37,0-74,0-111c-38.2,0-71.9,0-107.7,0c0,38.5,0,74.8,0,111l1-1.1c-35.8,0.3-71.6,0.6-107.5,0.9c0-36.2,0-72.3,0-112.2
		c33.9,0,66.5,0,99.7,0c0-40.5,0-77.2,0-114C1094.1,441.5,1134.4,441.5,1174.8,441.5z"/>
	<path d="M840.5,667c38.1,0,76.2,0,114.3,0c-1.8,34.8-3.6,69.7-5.5,107.1c-34,0-67.6,0-108.8,0C840.5,738.3,840.5,702.6,840.5,667z"
		/>
	<path d="M727.1,780.9c36.3,0,72.7,0,111.8,0c0,33.8,0,68.1,0,104.2c-37.7,0-74.9,0-112,0c0,0,1.2,1.3,1.2,1.3
		c0-35.6,0-71.1,0-106.7L727.1,780.9z"/>
	<path d="M620.6,666.9c35.8,0,71.6,0,107.5,0c-0.3,38-0.6,76-0.9,114c0,0,1-1.3,1-1.3c-35.9,0-71.8,0-107.6,0l1.3,1.3
		C621.4,742.9,621,704.9,620.6,666.9z"/>
	<path d="M1167.1,666.8c0.3,38,0.6,76,0.9,114c-35.9-0.4-71.7-0.7-107.6-1.1l1.2,1.3c-0.1-38.1-0.1-76.1-0.2-114.2c0,0-1,1.1-1,1.1
		c35.9,0,71.8,0,107.7,0L1167.1,666.8z"/>
	<path d="M1061.7,885c-34.2,0-68.4,0-105.5,0c0-33.6,0-67.9,0-104c35.5,0,70.5,0,105.5,0c0,0-1.2-1.3-1.2-1.3c0,35.6,0,71.1,0,106.7
		L1061.7,885z"/>
	<path d="M507.1,779.8c38.2,0.4,76.4,0.7,114.7,1.1c0,0-1.3-1.3-1.3-1.3c0,35.6,0,71.2,0,106.8c0,0,1.3-1.3,1.3-1.3
		c-38.4,0-76.7,0-115.1,0c0,0,1.3,1.2,1.3,1.2C507.7,850.9,507.4,815.3,507.1,779.8z"/>
	<path d="M293.9,554.2c35.8,0,71.7,0,107.5,0c0,37.9,0,75.7,0,113.6c-35.8,0-71.6-0.1-107.5-0.1
		C293.9,629.9,293.9,592.1,293.9,554.2z"/>
	<path d="M507.9,780.4c-35.8,0-71.6,0.1-107.3,0.1c0-37.9,0-75.7-0.1-113.6c35.8,0,71.6,0,107.4,0
		C507.9,704.8,507.9,742.6,507.9,780.4z"/>
	<path d="M187.2,666.9l107.5,0v106.7c-38.4,2.4-72.9,4.6-107.4,6.7C187.3,742.6,187.3,704.8,187.2,666.9z"/>
	<path d="M401.3,779.7c0,35.6,0,71.1,0,106.7c-34,0-68.1,0-104.7,0c0-34.9,0-69.1,0-106.7C331.7,779.7,366.5,779.7,401.3,779.7z"/>
	<path d="M1273.8,667c38.1,0,76.2,0,114.3,0c-1.8,34.8-3.6,69.7-5.5,107.1c-34,0-67.6,0-108.8,0
		C1273.8,738.3,1273.8,702.6,1273.8,667z"/>
	<path d="M1167.2,886.3c0-35.5,0-71.1,0-106.6c34.1,0,68.2,0,105,0c0,35,0,69.2,0,106.6C1237,886.3,1202.1,886.3,1167.2,886.3z"/>
	<path d="M1494.7,779.7c0,35.6,0,71.1,0,106.7c-34.1,0-68.3,0-105.2,0c0-35,0-69.2,0-106.7C1424.8,779.7,1459.7,779.7,1494.7,779.7z
		"/>
	<path d="M1174.7,223c0,35.5,0,71.1,0,106.6c-40.3,0-80.5,0-120.8,0c0-35.5,0-71.1,0-106.6C1094.1,223,1134.4,223,1174.7,223z"/>
	<path d="M726.7,333.7c-34.8,0-69.6,0-106.8,0c0-36.1,0-70.8,0-105.5c0,0-1,1-1,1c35.9,0,71.7,0,107.6,0.1l-1-1
		c0,35.6,0,71.1,0,106.7L726.7,333.7z"/>
	<path d="M842.2,223.3c-38,0-75.9,0-116.5,0c0-39.4,0-77.3,0-115.1c0,0-1.1,1.1-1.1,1.1c39.1,0,78.2,0,117.4,0.1l-1.1-1.1
		c0,38.8,0,77.6,0,116.4L842.2,223.3z"/>
	<g>
		<path class="st1" d="M128.7,810.8c4.4-3.9,9.2-6.8,14.5-8.8c11.3-4.2,21.8,2.4,23.6,14.4c1.4,9.3-2,16.7-7.7,23.5
			c-5.3,6.3-11.5,11.5-18.5,16c-4.2,2.7-7.9,6.2-12,9.5c-1.3-1.1-2.6-2.3-4.1-3.5c-3.8-2.9-7.5-5.8-11.4-8.5
			c-8.8-6.1-16.3-13.3-20.9-23c-3.3-6.9-2.7-14.1,0.7-20.8c3.9-7.7,12-10.7,20.3-7.9c5.1,1.7,9.7,4.4,13.8,7.8
			C127.6,809.9,128.1,810.3,128.7,810.8z"/>
	</g>
	<g>
		<path class="st1" d="M33.1,931.9c3.2-2.8,6.6-4.8,10.3-6.2c8-3,15.6,1.7,16.8,10.3c1,6.6-1.4,11.9-5.5,16.8
			c-3.8,4.5-8.2,8.2-13.2,11.4c-3,1.9-5.6,4.4-8.6,6.8c-0.9-0.8-1.9-1.7-2.9-2.5c-2.7-2-5.4-4.1-8.1-6c-6.2-4.3-11.6-9.5-14.9-16.4
			c-2.4-4.9-1.9-10,0.5-14.8c2.8-5.5,8.6-7.6,14.5-5.6c3.6,1.2,6.9,3.1,9.8,5.5C32.3,931.3,32.7,931.6,33.1,931.9z"/>
	</g>
	<g>
		<path class="st1" d="M241.1,925.5c4.4-3.9,9.2-6.8,14.5-8.8c11.3-4.2,21.8,2.4,23.6,14.4c1.4,9.3-2,16.7-7.7,23.5
			c-5.3,6.3-11.5,11.5-18.5,16c-4.2,2.7-7.9,6.2-12,9.5c-1.3-1.1-2.6-2.3-4.1-3.5c-3.8-2.9-7.5-5.8-11.4-8.5
			c-8.8-6.1-16.3-13.3-20.9-23c-3.3-6.9-2.7-14.1,0.7-20.8c3.9-7.7,12-10.7,20.3-7.9c5.1,1.7,9.7,4.4,13.8,7.8
			C240,924.7,240.5,925,241.1,925.5z"/>
	</g>
	<g>
		<path class="st1" d="M347.8,815c4.4-3.9,9.2-6.8,14.5-8.8c11.3-4.2,21.8,2.4,23.6,14.4c1.4,9.3-2,16.7-7.7,23.5
			c-5.3,6.3-11.5,11.5-18.5,16c-4.2,2.7-7.9,6.2-12,9.5c-1.3-1.1-2.6-2.3-4.1-3.5c-3.8-2.9-7.5-5.8-11.4-8.5
			c-8.8-6.1-16.3-13.3-20.9-23c-3.3-6.9-2.7-14.1,0.7-20.8c3.9-7.7,12-10.7,20.3-7.9c5.1,1.7,9.7,4.4,13.8,7.8
			C346.6,814.1,347.2,814.5,347.8,815z"/>
	</g>
	<path d="M300.5,780.3c-35.8,0-71.6,0.1-107.3,0.1c0-37.9,0-75.7-0.1-113.6c35.8,0,71.6,0,107.4,0
		C300.5,704.7,300.5,742.5,300.5,780.3z"/>
	<g>
		<path class="st1" d="M244.5,701.4c4.4-3.9,9.2-6.8,14.5-8.8c11.3-4.2,21.8,2.4,23.6,14.4c1.4,9.3-2,16.7-7.7,23.5
			c-5.3,6.3-11.5,11.5-18.5,16c-4.2,2.7-7.9,6.2-12,9.5c-1.3-1.1-2.6-2.3-4.1-3.5c-3.8-2.9-7.5-5.8-11.4-8.5
			c-8.8-6.1-16.3-13.3-20.9-23c-3.3-6.9-2.7-14.1,0.7-20.8c3.9-7.7,12-10.7,20.3-7.9c5.1,1.7,9.7,4.4,13.8,7.8
			C243.3,700.5,243.8,700.9,244.5,701.4z"/>
	</g>
	<g>
		<path class="st1" d="M454.4,920.2c4.4-3.9,9.2-6.8,14.5-8.8c11.3-4.2,21.8,2.4,23.6,14.4c1.4,9.3-2,16.7-7.7,23.5
			c-5.3,6.3-11.5,11.5-18.5,16c-4.2,2.7-7.9,6.2-12,9.5c-1.3-1.1-2.6-2.3-4.1-3.5c-3.8-2.9-7.5-5.8-11.4-8.5
			c-8.8-6.1-16.3-13.3-20.9-23c-3.3-6.9-2.7-14.1,0.7-20.8c3.9-7.7,12-10.7,20.3-7.9c5.1,1.7,9.7,4.4,13.8,7.8
			C453.2,919.3,453.8,919.7,454.4,920.2z"/>
	</g>
	<g>
		<path class="st1" d="M454.4,706.3c4.4-3.9,9.2-6.8,14.5-8.8c11.3-4.2,21.8,2.4,23.6,14.4c1.4,9.3-2,16.7-7.7,23.5
			c-5.3,6.3-11.5,11.5-18.5,16c-4.2,2.7-7.9,6.2-12,9.5c-1.3-1.1-2.6-2.3-4.1-3.5c-3.8-2.9-7.5-5.8-11.4-8.5
			c-8.8-6.1-16.3-13.3-20.9-23c-3.3-6.9-2.7-14.1,0.7-20.8c3.9-7.7,12-10.7,20.3-7.9c5.1,1.7,9.7,4.4,13.8,7.8
			C453.2,705.4,453.8,705.8,454.4,706.3z"/>
	</g>
	<g>
		<path class="st1" d="M347.8,588.9c4.4-3.9,9.2-6.8,14.5-8.8c11.3-4.2,21.8,2.4,23.6,14.4c1.4,9.3-2,16.7-7.7,23.5
			c-5.3,6.3-11.5,11.5-18.5,16c-4.2,2.7-7.9,6.2-12,9.5c-1.3-1.1-2.6-2.3-4.1-3.5c-3.8-2.9-7.5-5.8-11.4-8.5
			c-8.8-6.1-16.3-13.3-20.9-23c-3.3-6.9-2.7-14.1,0.7-20.8c3.9-7.7,12-10.7,20.3-7.9c5.1,1.7,9.7,4.4,13.8,7.8
			C346.6,588,347.2,588.4,347.8,588.9z"/>
	</g>
	<g>
		<path class="st1" d="M128.7,588.9c4.4-3.9,9.2-6.8,14.5-8.8c11.3-4.2,21.8,2.4,23.6,14.4c1.4,9.3-2,16.7-7.7,23.5
			c-5.3,6.3-11.5,11.5-18.5,16c-4.2,2.7-7.9,6.2-12,9.5c-1.3-1.1-2.6-2.3-4.1-3.5c-3.8-2.9-7.5-5.8-11.4-8.5
			c-8.8-6.1-16.3-13.3-20.9-23c-3.3-6.9-2.7-14.1,0.7-20.8c3.9-7.7,12-10.7,20.3-7.9c5.1,1.7,9.7,4.4,13.8,7.8
			C127.6,588,128.1,588.4,128.7,588.9z"/>
	</g>
	<g>
		<path class="st1" d="M36,707.1c3.3-2.9,6.8-5,10.7-6.5c8.4-3.1,16.2,1.8,17.5,10.7c1,6.9-1.5,12.3-5.7,17.4
			c-3.9,4.7-8.5,8.5-13.7,11.8c-3.1,2-5.8,4.6-8.9,7c-0.9-0.8-1.9-1.7-3-2.6c-2.8-2.1-5.6-4.3-8.4-6.3c-6.5-4.5-12-9.9-15.5-17.1
			c-2.4-5.1-2-10.4,0.5-15.4c2.9-5.7,8.9-7.9,15.1-5.8c3.8,1.3,7.2,3.2,10.2,5.8C35.1,706.5,35.5,706.8,36,707.1z"/>
	</g>
	<g>
		<path class="st1" d="M564.3,815c4.4-3.9,9.2-6.8,14.5-8.8c11.3-4.2,21.8,2.4,23.6,14.4c1.4,9.3-2,16.7-7.7,23.5
			c-5.3,6.3-11.5,11.5-18.5,16c-4.2,2.7-7.9,6.2-12,9.5c-1.3-1.1-2.6-2.3-4.1-3.5c-3.8-2.9-7.5-5.8-11.4-8.5
			c-8.8-6.1-16.3-13.3-20.9-23c-3.3-6.9-2.7-14.1,0.7-20.8c3.9-7.7,12-10.7,20.3-7.9c5.1,1.7,9.7,4.4,13.8,7.8
			C563.2,814.1,563.7,814.5,564.3,815z"/>
	</g>
	<g>
		<path class="st1" d="M564.3,588.9c4.4-3.9,9.2-6.8,14.5-8.8c11.3-4.2,21.8,2.4,23.6,14.4c1.4,9.3-2,16.7-7.7,23.5
			c-5.3,6.3-11.5,11.5-18.5,16c-4.2,2.7-7.9,6.2-12,9.5c-1.3-1.1-2.6-2.3-4.1-3.5c-3.8-2.9-7.5-5.8-11.4-8.5
			c-8.8-6.1-16.3-13.3-20.9-23c-3.3-6.9-2.7-14.1,0.7-20.8c3.9-7.7,12-10.7,20.3-7.9c5.1,1.7,9.7,4.4,13.8,7.8
			C563.2,588,563.7,588.4,564.3,588.9z"/>
	</g>
	<g>
		<path class="st1" d="M453.3,476.1c4.4-3.9,9.2-6.8,14.5-8.8c11.3-4.2,21.8,2.4,23.6,14.4c1.4,9.3-2,16.7-7.7,23.5
			c-5.3,6.3-11.5,11.5-18.5,16c-4.2,2.7-7.9,6.2-12,9.5c-1.3-1.1-2.6-2.3-4.1-3.5c-3.8-2.9-7.5-5.8-11.4-8.5
			c-8.8-6.1-16.3-13.3-20.9-23c-3.3-6.9-2.7-14.1,0.7-20.8c3.9-7.7,12-10.7,20.3-7.9c5.1,1.7,9.7,4.4,13.8,7.8
			C452.1,475.3,452.6,475.6,453.3,476.1z"/>
	</g>
	<g>
		<path class="st1" d="M239.3,477.2c4.4-3.9,9.2-6.8,14.5-8.8c11.3-4.2,21.8,2.4,23.6,14.4c1.4,9.3-2,16.7-7.7,23.5
			c-5.3,6.3-11.5,11.5-18.5,16c-4.2,2.7-7.9,6.2-12,9.5c-1.3-1.1-2.6-2.3-4.1-3.5c-3.8-2.9-7.5-5.8-11.4-8.5
			c-8.8-6.1-16.3-13.3-20.9-23c-3.3-6.9-2.7-14.1,0.7-20.8c3.9-7.7,12-10.7,20.3-7.9c5.1,1.7,9.7,4.4,13.8,7.8
			C238.1,476.3,238.7,476.7,239.3,477.2z"/>
	</g>
	<g>
		<path class="st1" d="M127.1,367c4.4-3.9,9.2-6.8,14.5-8.8c11.3-4.2,21.8,2.4,23.6,14.4c1.4,9.3-2,16.7-7.7,23.5
			c-5.3,6.3-11.5,11.5-18.5,16c-4.2,2.7-7.9,6.2-12,9.5c-1.3-1.1-2.6-2.3-4.1-3.5c-3.8-2.9-7.5-5.8-11.4-8.5
			c-8.8-6.1-16.3-13.3-20.9-23c-3.3-6.9-2.7-14.1,0.7-20.8c3.9-7.7,12-10.7,20.3-7.9c5.1,1.7,9.7,4.4,13.8,7.8
			C126,366.1,126.5,366.5,127.1,367z"/>
	</g>
	<g>
		<path class="st1" d="M33.1,488.7c2.7-2.4,5.7-4.2,9-5.4c7-2.6,13.5,1.5,14.6,8.9c0.8,5.8-1.2,10.3-4.8,14.5
			c-3.3,3.9-7.1,7.1-11.5,9.9c-2.6,1.7-4.9,3.8-7.4,5.9c-0.8-0.7-1.6-1.5-2.5-2.1c-2.3-1.8-4.6-3.6-7.1-5.2
			c-5.4-3.8-10.1-8.3-12.9-14.3c-2-4.3-1.6-8.7,0.5-12.9c2.4-4.8,7.4-6.6,12.6-4.9c3.1,1.1,6,2.7,8.6,4.8
			C32.4,488.2,32.7,488.4,33.1,488.7z"/>
	</g>
	<g>
		<path class="st1" d="M674.9,480.3c4.4-3.9,9.2-6.8,14.5-8.8c11.3-4.2,21.8,2.4,23.6,14.4c1.4,9.3-2,16.7-7.7,23.5
			c-5.3,6.3-11.5,11.5-18.5,16c-4.2,2.7-7.9,6.2-12,9.5c-1.3-1.1-2.6-2.3-4.1-3.5c-3.8-2.9-7.5-5.8-11.4-8.5
			c-8.8-6.1-16.3-13.3-20.9-23c-3.3-6.9-2.7-14.1,0.7-20.8c3.9-7.7,12-10.7,20.3-7.9c5.1,1.7,9.7,4.4,13.8,7.8
			C673.8,479.4,674.3,479.8,674.9,480.3z"/>
	</g>
	<g>
		<path class="st1" d="M674.9,706.3c4.4-3.9,9.2-6.8,14.5-8.8c11.3-4.2,21.8,2.4,23.6,14.4c1.4,9.3-2,16.7-7.7,23.5
			c-5.3,6.3-11.5,11.5-18.5,16c-4.2,2.7-7.9,6.2-12,9.5c-1.3-1.1-2.6-2.3-4.1-3.5c-3.8-2.9-7.5-5.8-11.4-8.5
			c-8.8-6.1-16.3-13.3-20.9-23c-3.3-6.9-2.7-14.1,0.7-20.8c3.9-7.7,12-10.7,20.3-7.9c5.1,1.7,9.7,4.4,13.8,7.8
			C673.8,705.4,674.3,705.8,674.9,706.3z"/>
	</g>
	<g>
		<path class="st1" d="M674.9,925.5c4.4-3.9,9.2-6.8,14.5-8.8c11.3-4.2,21.8,2.4,23.6,14.4c1.4,9.3-2,16.7-7.7,23.5
			c-5.3,6.3-11.5,11.5-18.5,16c-4.2,2.7-7.9,6.2-12,9.5c-1.3-1.1-2.6-2.3-4.1-3.5c-3.8-2.9-7.5-5.8-11.4-8.5
			c-8.8-6.1-16.3-13.3-20.9-23c-3.3-6.9-2.7-14.1,0.7-20.8c3.9-7.7,12-10.7,20.3-7.9c5.1,1.7,9.7,4.4,13.8,7.8
			C673.8,924.7,674.3,925,674.9,925.5z"/>
	</g>
	<g>
		<path class="st1" d="M783,810.8c4.4-3.9,9.2-6.8,14.5-8.8c11.3-4.2,21.8,2.4,23.6,14.4c1.4,9.3-2,16.7-7.7,23.5
			c-5.3,6.3-11.5,11.5-18.5,16c-4.2,2.7-7.9,6.2-12,9.5c-1.3-1.1-2.6-2.3-4.1-3.5c-3.8-2.9-7.5-5.8-11.4-8.5
			c-8.8-6.1-16.3-13.3-20.9-23c-3.3-6.9-2.7-14.1,0.7-20.8c3.9-7.7,12-10.7,20.3-7.9c5.1,1.7,9.7,4.4,13.8,7.8
			C781.9,809.9,782.4,810.3,783,810.8z"/>
	</g>
	<g>
		<path class="st1" d="M783,588.9c4.4-3.9,9.2-6.8,14.5-8.8c11.3-4.2,21.8,2.4,23.6,14.4c1.4,9.3-2,16.7-7.7,23.5
			c-5.3,6.3-11.5,11.5-18.5,16c-4.2,2.7-7.9,6.2-12,9.5c-1.3-1.1-2.6-2.3-4.1-3.5c-3.8-2.9-7.5-5.8-11.4-8.5
			c-8.8-6.1-16.3-13.3-20.9-23c-3.3-6.9-2.7-14.1,0.7-20.8c3.9-7.7,12-10.7,20.3-7.9c5.1,1.7,9.7,4.4,13.8,7.8
			C781.9,588,782.4,588.4,783,588.9z"/>
	</g>
	<g>
		<path class="st1" d="M569.2,367c4.4-3.9,9.2-6.8,14.5-8.8c11.3-4.2,21.8,2.4,23.6,14.4c1.4,9.3-2,16.7-7.7,23.5
			c-5.3,6.3-11.5,11.5-18.5,16c-4.2,2.7-7.9,6.2-12,9.5c-1.3-1.1-2.6-2.3-4.1-3.5c-3.8-2.9-7.5-5.8-11.4-8.5
			c-8.8-6.1-16.3-13.3-20.9-23c-3.3-6.9-2.7-14.1,0.7-20.8c3.9-7.7,12-10.7,20.3-7.9c5.1,1.7,9.7,4.4,13.8,7.8
			C568.1,366.1,568.6,366.5,569.2,367z"/>
	</g>
	<g>
		<path class="st1" d="M349.1,362.7c4.4-3.9,9.2-6.8,14.5-8.8c11.3-4.2,21.8,2.4,23.6,14.4c1.4,9.3-2,16.7-7.7,23.5
			c-5.3,6.3-11.5,11.5-18.5,16c-4.2,2.7-7.9,6.2-12,9.5c-1.3-1.1-2.6-2.3-4.1-3.5c-3.8-2.9-7.5-5.8-11.4-8.5
			c-8.8-6.1-16.3-13.3-20.9-23c-3.3-6.9-2.7-14.1,0.7-20.8c3.9-7.7,12-10.7,20.3-7.9c5.1,1.7,9.7,4.4,13.8,7.8
			C348,361.8,348.5,362.2,349.1,362.7z"/>
	</g>
	<g>
		<path class="st1" d="M239.3,254.1c4.4-3.9,9.2-6.8,14.5-8.8c11.3-4.2,21.8,2.4,23.6,14.4c1.4,9.3-2,16.7-7.7,23.5
			c-5.3,6.3-11.5,11.5-18.5,16c-4.2,2.7-7.9,6.2-12,9.5c-1.3-1.1-2.6-2.3-4.1-3.5c-3.8-2.9-7.5-5.8-11.4-8.5
			c-8.8-6.1-16.3-13.3-20.9-23c-3.3-6.9-2.7-14.1,0.7-20.8c3.9-7.7,12-10.7,20.3-7.9c5.1,1.7,9.7,4.4,13.8,7.8
			C238.1,253.2,238.7,253.6,239.3,254.1z"/>
	</g>
	<g>
		<path class="st1" d="M127.1,142.3c4.4-3.9,9.2-6.8,14.5-8.8c11.3-4.2,21.8,2.4,23.6,14.4c1.4,9.3-2,16.7-7.7,23.5
			c-5.3,6.3-11.5,11.5-18.5,16c-4.2,2.7-7.9,6.2-12,9.5c-1.3-1.1-2.6-2.3-4.1-3.5c-3.8-2.9-7.5-5.8-11.4-8.5
			c-8.8-6.1-16.3-13.3-20.9-23c-3.3-6.9-2.7-14.1,0.7-20.8c3.9-7.7,12-10.7,20.3-7.9c5.1,1.7,9.7,4.4,13.8,7.8
			C126,141.4,126.5,141.8,127.1,142.3z"/>
	</g>
	<g>
		<path class="st1" d="M347.8,145.2c4.4-3.9,9.2-6.8,14.5-8.8c11.3-4.2,21.8,2.4,23.6,14.4c1.4,9.3-2,16.7-7.7,23.5
			c-5.3,6.3-11.5,11.5-18.5,16c-4.2,2.7-7.9,6.2-12,9.5c-1.3-1.1-2.6-2.3-4.1-3.5c-3.8-2.9-7.5-5.8-11.4-8.5
			c-8.8-6.1-16.3-13.3-20.9-23c-3.3-6.9-2.7-14.1,0.7-20.8c3.9-7.7,12-10.7,20.3-7.9c5.1,1.7,9.7,4.4,13.8,7.8
			C346.6,144.3,347.1,144.7,347.8,145.2z"/>
	</g>
	<g>
		<path class="st1" d="M454.4,259.4c4.4-3.9,9.2-6.8,14.5-8.8c11.3-4.2,21.8,2.4,23.6,14.4c1.4,9.3-2,16.7-7.7,23.5
			c-5.3,6.3-11.5,11.5-18.5,16c-4.2,2.7-7.9,6.2-12,9.5c-1.3-1.1-2.6-2.3-4.1-3.5c-3.8-2.9-7.5-5.8-11.4-8.5
			c-8.8-6.1-16.3-13.3-20.9-23c-3.3-6.9-2.7-14.1,0.7-20.8c3.9-7.7,12-10.7,20.3-7.9c5.1,1.7,9.7,4.4,13.8,7.8
			C453.3,258.5,453.8,258.9,454.4,259.4z"/>
	</g>
	<g>
		<path class="st1" d="M239.3,31c4.4-3.9,9.2-6.8,14.5-8.8c11.3-4.2,21.8,2.4,23.6,14.4c1.4,9.3-2,16.7-7.7,23.5
			c-5.3,6.3-11.5,11.5-18.5,16c-4.2,2.7-7.9,6.2-12,9.5c-1.3-1.1-2.6-2.3-4.1-3.5c-3.8-2.9-7.5-5.8-11.4-8.5
			c-8.8-6.1-16.3-13.3-20.9-23c-3.3-6.9-2.7-14.1,0.7-20.8c3.9-7.7,12-10.7,20.3-7.9c5.1,1.7,9.7,4.4,13.8,7.8
			C238.1,30.1,238.7,30.5,239.3,31z"/>
	</g>
	<g>
		<path class="st1" d="M454.4,32.4c4.4-3.9,9.2-6.8,14.5-8.8c11.3-4.2,21.8,2.4,23.6,14.4c1.4,9.3-2,16.7-7.7,23.5
			c-5.3,6.3-11.5,11.5-18.5,16c-4.2,2.7-7.9,6.2-12,9.5c-1.3-1.1-2.6-2.3-4.1-3.5c-3.8-2.9-7.5-5.8-11.4-8.5
			c-8.8-6.1-16.3-13.3-20.9-23c-3.3-6.9-2.7-14.1,0.7-20.8c3.9-7.7,12-10.7,20.3-7.9c5.1,1.7,9.7,4.4,13.8,7.8
			C453.3,31.5,453.8,31.9,454.4,32.4z"/>
	</g>
	<g>
		<path class="st1" d="M33.1,260.9c3.1-2.7,6.3-4.7,10-6c7.8-2.9,15.1,1.7,16.3,9.9c0.9,6.4-1.4,11.5-5.3,16.2c-3.7,4.4-8,8-12.8,11
			c-2.9,1.8-5.4,4.3-8.3,6.6c-0.9-0.7-1.8-1.6-2.8-2.4c-2.6-2-5.2-4-7.9-5.8c-6-4.2-11.2-9.2-14.4-15.9c-2.3-4.8-1.8-9.7,0.5-14.4
			c2.7-5.3,8.3-7.4,14-5.4c3.5,1.2,6.7,3,9.5,5.4C32.3,260.3,32.7,260.6,33.1,260.9z"/>
	</g>
	<g>
		<path class="st1" d="M35.1,39.7c3.4-3,7-5.2,11.1-6.7c8.6-3.2,16.7,1.9,18,11c1,7.1-1.5,12.7-5.9,17.9c-4.1,4.8-8.8,8.8-14.1,12.2
			c-3.2,2-6,4.7-9.2,7.2c-1-0.8-2-1.8-3.1-2.6c-2.9-2.2-5.7-4.4-8.7-6.5c-6.7-4.6-12.4-10.2-16-17.6c-2.5-5.3-2-10.8,0.6-15.9
			c3-5.9,9.2-8.2,15.5-6c3.9,1.3,7.4,3.3,10.5,5.9C34.2,39,34.6,39.3,35.1,39.7z"/>
	</g>
	<g>
		<path class="st1" d="M569.2,145.2c4.4-3.9,9.2-6.8,14.5-8.8c11.3-4.2,21.8,2.4,23.6,14.4c1.4,9.3-2,16.7-7.7,23.5
			c-5.3,6.3-11.5,11.5-18.5,16c-4.2,2.7-7.9,6.2-12,9.5c-1.3-1.1-2.6-2.3-4.1-3.5c-3.8-2.9-7.5-5.8-11.4-8.5
			c-8.8-6.1-16.3-13.3-20.9-23c-3.3-6.9-2.7-14.1,0.7-20.8c3.9-7.7,12-10.7,20.3-7.9c5.1,1.7,9.7,4.4,13.8,7.8
			C568.1,144.3,568.6,144.7,569.2,145.2z"/>
	</g>
	<g>
		<path class="st1" d="M674.9,32.4c4.4-3.9,9.2-6.8,14.5-8.8c11.3-4.2,21.8,2.4,23.6,14.4c1.4,9.3-2,16.7-7.7,23.5
			c-5.3,6.3-11.5,11.5-18.5,16c-4.2,2.7-7.9,6.2-12,9.5c-1.3-1.1-2.6-2.3-4.1-3.5c-3.8-2.9-7.5-5.8-11.4-8.5
			c-8.8-6.1-16.3-13.3-20.9-23c-3.3-6.9-2.7-14.1,0.7-20.8c3.9-7.7,12-10.7,20.3-7.9c5.1,1.7,9.7,4.4,13.8,7.8
			C673.8,31.5,674.3,31.9,674.9,32.4z"/>
	</g>
	<g>
		<path class="st1" d="M673,264.1c4.4-3.9,9.2-6.8,14.5-8.8c11.3-4.2,21.8,2.4,23.6,14.4c1.4,9.3-2,16.7-7.7,23.5
			c-5.3,6.3-11.5,11.5-18.5,16c-4.2,2.7-7.9,6.2-12,9.5c-1.3-1.1-2.6-2.3-4.1-3.5c-3.8-2.9-7.5-5.8-11.4-8.5
			c-8.8-6.1-16.3-13.3-20.9-23c-3.3-6.9-2.7-14.1,0.7-20.8c3.9-7.7,12-10.7,20.3-7.9c5.1,1.7,9.7,4.4,13.8,7.8
			C671.9,263.2,672.4,263.6,673,264.1z"/>
	</g>
	<g>
		<path class="st1" d="M783.6,142.3c4.4-3.9,9.2-6.8,14.5-8.8c11.3-4.2,21.8,2.4,23.6,14.4c1.4,9.3-2,16.7-7.7,23.5
			c-5.3,6.3-11.5,11.5-18.5,16c-4.2,2.7-7.9,6.2-12,9.5c-1.3-1.1-2.6-2.3-4.1-3.5c-3.8-2.9-7.5-5.8-11.4-8.5
			c-8.8-6.1-16.3-13.3-20.9-23c-3.3-6.9-2.7-14.1,0.7-20.8c3.9-7.7,12-10.7,20.3-7.9c5.1,1.7,9.7,4.4,13.8,7.8
			C782.4,141.4,782.9,141.8,783.6,142.3z"/>
	</g>
	<g>
		<path class="st1" d="M788.7,365.3c4.4-3.9,9.2-6.8,14.5-8.8c11.3-4.2,21.8,2.4,23.6,14.4c1.4,9.3-2,16.7-7.7,23.5
			c-5.3,6.3-11.5,11.5-18.5,16c-4.2,2.7-7.9,6.2-12,9.5c-1.3-1.1-2.6-2.3-4.1-3.5c-3.8-2.9-7.5-5.8-11.4-8.5
			c-8.8-6.1-16.3-13.3-20.9-23c-3.3-6.9-2.7-14.1,0.7-20.8c3.9-7.7,12-10.7,20.3-7.9c5.1,1.7,9.7,4.4,13.8,7.8
			C787.6,364.4,788.1,364.8,788.7,365.3z"/>
	</g>
	<g>
		<path class="st1" d="M894.5,701.7c4.4-3.9,9.2-6.8,14.5-8.8c11.3-4.2,21.8,2.4,23.6,14.4c1.4,9.3-2,16.7-7.7,23.5
			c-5.3,6.3-11.5,11.5-18.5,16c-4.2,2.7-7.9,6.2-12,9.5c-1.3-1.1-2.6-2.3-4.1-3.5c-3.8-2.9-7.5-5.8-11.4-8.5
			c-8.8-6.1-16.3-13.3-20.9-23c-3.3-6.9-2.7-14.1,0.7-20.8c3.9-7.7,12-10.7,20.3-7.9c5.1,1.7,9.7,4.4,13.8,7.8
			C893.3,700.8,893.8,701.2,894.5,701.7z"/>
	</g>
	<g>
		<path class="st1" d="M897.8,925.5c4.4-3.9,9.2-6.8,14.5-8.8c11.3-4.2,21.8,2.4,23.6,14.4c1.4,9.3-2,16.7-7.7,23.5
			c-5.3,6.3-11.5,11.5-18.5,16c-4.2,2.7-7.9,6.2-12,9.5c-1.3-1.1-2.6-2.3-4.1-3.5c-3.8-2.9-7.5-5.8-11.4-8.5
			c-8.8-6.1-16.3-13.3-20.9-23c-3.3-6.9-2.7-14.1,0.7-20.8c3.9-7.7,12-10.7,20.3-7.9c5.1,1.7,9.7,4.4,13.8,7.8
			C896.7,924.7,897.2,925,897.8,925.5z"/>
	</g>
	<g>
		<path class="st1" d="M897.8,475.1c4.4-3.9,9.2-6.8,14.5-8.8c11.3-4.2,21.8,2.4,23.6,14.4c1.4,9.3-2,16.7-7.7,23.5
			c-5.3,6.3-11.5,11.5-18.5,16c-4.2,2.7-7.9,6.2-12,9.5c-1.3-1.1-2.6-2.3-4.1-3.5c-3.8-2.9-7.5-5.8-11.4-8.5
			c-8.8-6.1-16.3-13.3-20.9-23c-3.3-6.9-2.7-14.1,0.7-20.8c3.9-7.7,12-10.7,20.3-7.9c5.1,1.7,9.7,4.4,13.8,7.8
			C896.6,474.3,897.1,474.6,897.8,475.1z"/>
	</g>
	<g>
		<path class="st1" d="M897.8,254.1c4.4-3.9,9.2-6.8,14.5-8.8c11.3-4.2,21.8,2.4,23.6,14.4c1.4,9.3-2,16.7-7.7,23.5
			c-5.3,6.3-11.5,11.5-18.5,16c-4.2,2.7-7.9,6.2-12,9.5c-1.3-1.1-2.6-2.3-4.1-3.5c-3.8-2.9-7.5-5.8-11.4-8.5
			c-8.8-6.1-16.3-13.3-20.9-23c-3.3-6.9-2.7-14.1,0.7-20.8c3.9-7.7,12-10.7,20.3-7.9c5.1,1.7,9.7,4.4,13.8,7.8
			C896.7,253.2,897.2,253.6,897.8,254.1z"/>
	</g>
	<g>
		<path class="st1" d="M894.5,31c4.4-3.9,9.2-6.8,14.5-8.8c11.3-4.2,21.8,2.4,23.6,14.4c1.4,9.3-2,16.7-7.7,23.5
			c-5.3,6.3-11.5,11.5-18.5,16c-4.2,2.7-7.9,6.2-12,9.5c-1.3-1.1-2.6-2.3-4.1-3.5c-3.8-2.9-7.5-5.8-11.4-8.5
			c-8.8-6.1-16.3-13.3-20.9-23c-3.3-6.9-2.7-14.1,0.7-20.8c3.9-7.7,12-10.7,20.3-7.9c5.1,1.7,9.7,4.4,13.8,7.8
			C893.3,30.1,893.8,30.5,894.5,31z"/>
	</g>
	<g>
		<path class="st1" d="M1001,145.2c4.4-3.9,9.2-6.8,14.5-8.8c11.3-4.2,21.8,2.4,23.6,14.4c1.4,9.3-2,16.7-7.7,23.5
			c-5.3,6.3-11.5,11.5-18.5,16c-4.2,2.7-7.9,6.2-12,9.5c-1.3-1.1-2.6-2.3-4.1-3.5c-3.8-2.9-7.5-5.8-11.4-8.5
			c-8.8-6.1-16.3-13.3-20.9-23c-3.3-6.9-2.7-14.1,0.7-20.8c3.9-7.7,12-10.7,20.3-7.9c5.1,1.7,9.7,4.4,13.8,7.8
			C999.9,144.3,1000.4,144.7,1001,145.2z"/>
	</g>
	<g>
		<path class="st1" d="M1000.2,363.4c4.4-3.9,9.2-6.8,14.5-8.8c11.3-4.2,21.8,2.4,23.6,14.4c1.4,9.3-2,16.7-7.7,23.5
			c-5.3,6.3-11.5,11.5-18.5,16c-4.2,2.7-7.9,6.2-12,9.5c-1.3-1.1-2.6-2.3-4.1-3.5c-3.8-2.9-7.5-5.8-11.4-8.5
			c-8.8-6.1-16.3-13.3-20.9-23c-3.3-6.9-2.7-14.1,0.7-20.8c3.9-7.7,12-10.7,20.3-7.9c5.1,1.7,9.7,4.4,13.8,7.8
			C999,362.5,999.5,362.9,1000.2,363.4z"/>
	</g>
	<g>
		<path class="st1" d="M1009.1,588.9c4.4-3.9,9.2-6.8,14.5-8.8c11.3-4.2,21.8,2.4,23.6,14.4c1.4,9.3-2,16.7-7.7,23.5
			c-5.3,6.3-11.5,11.5-18.5,16c-4.2,2.7-7.9,6.2-12,9.5c-1.3-1.1-2.6-2.3-4.1-3.5c-3.8-2.9-7.5-5.8-11.4-8.5
			c-8.8-6.1-16.3-13.3-20.9-23c-3.3-6.9-2.7-14.1,0.7-20.8c3.9-7.7,12-10.7,20.3-7.9c5.1,1.7,9.7,4.4,13.8,7.8
			C1007.9,588,1008.4,588.4,1009.1,588.9z"/>
	</g>
	<g>
		<path class="st1" d="M1009.1,810.8c4.4-3.9,9.2-6.8,14.5-8.8c11.3-4.2,21.8,2.4,23.6,14.4c1.4,9.3-2,16.7-7.7,23.5
			c-5.3,6.3-11.5,11.5-18.5,16c-4.2,2.7-7.9,6.2-12,9.5c-1.3-1.1-2.6-2.3-4.1-3.5c-3.8-2.9-7.5-5.8-11.4-8.5
			c-8.8-6.1-16.3-13.3-20.9-23c-3.3-6.9-2.7-14.1,0.7-20.8c3.9-7.7,12-10.7,20.3-7.9c5.1,1.7,9.7,4.4,13.8,7.8
			C1007.9,809.9,1008.4,810.3,1009.1,810.8z"/>
	</g>
	<g>
		<path class="st1" d="M1114.5,923.3c4.4-3.9,9.2-6.8,14.5-8.8c11.3-4.2,21.8,2.4,23.6,14.4c1.4,9.3-2,16.7-7.7,23.5
			c-5.3,6.3-11.5,11.5-18.5,16c-4.2,2.7-7.9,6.2-12,9.5c-1.3-1.1-2.6-2.3-4.1-3.5c-3.8-2.9-7.5-5.8-11.4-8.5
			c-8.8-6.1-16.3-13.3-20.9-23c-3.3-6.9-2.7-14.1,0.7-20.8c3.9-7.7,12-10.7,20.3-7.9c5.1,1.7,9.7,4.4,13.8,7.8
			C1113.4,922.4,1113.9,922.8,1114.5,923.3z"/>
	</g>
	<g>
		<path class="st1" d="M1114.5,698.3c4.4-3.9,9.2-6.8,14.5-8.8c11.3-4.2,21.8,2.4,23.6,14.4c1.4,9.3-2,16.7-7.7,23.5
			c-5.3,6.3-11.5,11.5-18.5,16c-4.2,2.7-7.9,6.2-12,9.5c-1.3-1.1-2.6-2.3-4.1-3.5c-3.8-2.9-7.5-5.8-11.4-8.5
			c-8.8-6.1-16.3-13.3-20.9-23c-3.3-6.9-2.7-14.1,0.7-20.8c3.9-7.7,12-10.7,20.3-7.9c5.1,1.7,9.7,4.4,13.8,7.8
			C1113.4,697.4,1113.9,697.8,1114.5,698.3z"/>
	</g>
	<g>
		<path class="st1" d="M1219.9,810.8c4.4-3.9,9.2-6.8,14.5-8.8c11.3-4.2,21.8,2.4,23.6,14.4c1.4,9.3-2,16.7-7.7,23.5
			c-5.3,6.3-11.5,11.5-18.5,16c-4.2,2.7-7.9,6.2-12,9.5c-1.3-1.1-2.6-2.3-4.1-3.5c-3.8-2.9-7.5-5.8-11.4-8.5
			c-8.8-6.1-16.3-13.3-20.9-23c-3.3-6.9-2.7-14.1,0.7-20.8c3.9-7.7,12-10.7,20.3-7.9c5.1,1.7,9.7,4.4,13.8,7.8
			C1218.8,809.9,1219.3,810.3,1219.9,810.8z"/>
	</g>
	<g>
		<path class="st1" d="M1333,925.5c4.4-3.9,9.2-6.8,14.5-8.8c11.3-4.2,21.8,2.4,23.6,14.4c1.4,9.3-2,16.7-7.7,23.5
			c-5.3,6.3-11.5,11.5-18.5,16c-4.2,2.7-7.9,6.2-12,9.5c-1.3-1.1-2.6-2.3-4.1-3.5c-3.8-2.9-7.5-5.8-11.4-8.5
			c-8.8-6.1-16.3-13.3-20.9-23c-3.3-6.9-2.7-14.1,0.7-20.8c3.9-7.7,12-10.7,20.3-7.9c5.1,1.7,9.7,4.4,13.8,7.8
			C1331.9,924.7,1332.4,925,1333,925.5z"/>
	</g>
	<g>
		<path class="st1" d="M1439.2,810.8c4.4-3.9,9.2-6.8,14.5-8.8c11.3-4.2,21.8,2.4,23.6,14.4c1.4,9.3-2,16.7-7.7,23.5
			c-5.3,6.3-11.5,11.5-18.5,16c-4.2,2.7-7.9,6.2-12,9.5c-1.3-1.1-2.6-2.3-4.1-3.5c-3.8-2.9-7.5-5.8-11.4-8.5
			c-8.8-6.1-16.3-13.3-20.9-23c-3.3-6.9-2.7-14.1,0.7-20.8c3.9-7.7,12-10.7,20.3-7.9c5.1,1.7,9.7,4.4,13.8,7.8
			C1438,809.9,1438.6,810.3,1439.2,810.8z"/>
	</g>
	<g>
		<path class="st1" d="M1547.7,923.3c4.4-3.9,9.2-6.8,14.5-8.8c11.3-4.2,21.8,2.4,23.6,14.4c1.4,9.3-2,16.7-7.7,23.5
			c-5.3,6.3-11.5,11.5-18.5,16c-4.2,2.7-7.9,6.2-12,9.5c-1.3-1.1-2.6-2.3-4.1-3.5c-3.8-2.9-7.5-5.8-11.4-8.5
			c-8.8-6.1-16.3-13.3-20.9-23c-3.3-6.9-2.7-14.1,0.7-20.8c3.9-7.7,12-10.7,20.3-7.9c5.1,1.7,9.7,4.4,13.8,7.8
			C1546.5,922.4,1547,922.8,1547.7,923.3z"/>
	</g>
	<g>
		<path class="st1" d="M1547.8,701.7c4.4-3.9,9.2-6.8,14.5-8.8c11.3-4.2,21.8,2.4,23.6,14.4c1.4,9.3-2,16.7-7.7,23.5
			c-5.3,6.3-11.5,11.5-18.5,16c-4.2,2.7-7.9,6.2-12,9.5c-1.3-1.1-2.6-2.3-4.1-3.5c-3.8-2.9-7.5-5.8-11.4-8.5
			c-8.8-6.1-16.3-13.3-20.9-23c-3.3-6.9-2.7-14.1,0.7-20.8c3.9-7.7,12-10.7,20.3-7.9c5.1,1.7,9.7,4.4,13.8,7.8
			C1546.6,700.8,1547.1,701.2,1547.8,701.7z"/>
	</g>
	<g>
		<path class="st1" d="M1661.1,810.8c4.4-3.9,9.2-6.8,14.5-8.8c11.3-4.2,21.8,2.4,23.6,14.4c1.4,9.3-2,16.7-7.7,23.5
			c-5.3,6.3-11.5,11.5-18.5,16c-4.2,2.7-7.9,6.2-12,9.5c-1.3-1.1-2.6-2.3-4.1-3.5c-3.8-2.9-7.5-5.8-11.4-8.5
			c-8.8-6.1-16.3-13.3-20.9-23c-3.3-6.9-2.7-14.1,0.7-20.8c3.9-7.7,12-10.7,20.3-7.9c5.1,1.7,9.7,4.4,13.8,7.8
			C1660,809.9,1660.5,810.3,1661.1,810.8z"/>
	</g>
	<g>
		<path class="st1" d="M1775,925.5c4.4-3.9,9.2-6.8,14.5-8.8c11.3-4.2,21.8,2.4,23.6,14.4c1.4,9.3-2,16.7-7.7,23.5
			c-5.3,6.3-11.5,11.5-18.5,16c-4.2,2.7-7.9,6.2-12,9.5c-1.3-1.1-2.6-2.3-4.1-3.5c-3.8-2.9-7.5-5.8-11.4-8.5
			c-8.8-6.1-16.3-13.3-20.9-23c-3.3-6.9-2.7-14.1,0.7-20.8c3.9-7.7,12-10.7,20.3-7.9c5.1,1.7,9.7,4.4,13.8,7.8
			C1773.9,924.7,1774.4,925,1775,925.5z"/>
	</g>
	<g>
		<path class="st1" d="M1881.1,816.9c4.4-3.9,9.2-6.8,14.5-8.8c11.3-4.2,21.8,2.4,23.6,14.4c1.4,9.3-2,16.7-7.7,23.5
			c-5.3,6.3-11.5,11.5-18.5,16c-4.2,2.7-7.9,6.2-12,9.5c-1.3-1.1-2.6-2.3-4.1-3.5c-3.8-2.9-7.5-5.8-11.4-8.5
			c-8.8-6.1-16.3-13.3-20.9-23c-3.3-6.9-2.7-14.1,0.7-20.8c3.9-7.7,12-10.7,20.3-7.9c5.1,1.7,9.7,4.4,13.8,7.8
			C1880,816,1880.5,816.4,1881.1,816.9z"/>
	</g>
	<g>
		<path class="st1" d="M1775,698.3c4.4-3.9,9.2-6.8,14.5-8.8c11.3-4.2,21.8,2.4,23.6,14.4c1.4,9.3-2,16.7-7.7,23.5
			c-5.3,6.3-11.5,11.5-18.5,16c-4.2,2.7-7.9,6.2-12,9.5c-1.3-1.1-2.6-2.3-4.1-3.5c-3.8-2.9-7.5-5.8-11.4-8.5
			c-8.8-6.1-16.3-13.3-20.9-23c-3.3-6.9-2.7-14.1,0.7-20.8c3.9-7.7,12-10.7,20.3-7.9c5.1,1.7,9.7,4.4,13.8,7.8
			C1773.9,697.4,1774.4,697.8,1775,698.3z"/>
	</g>
	<g>
		<path class="st1" d="M1331.1,698.3c4.4-3.9,9.2-6.8,14.5-8.8c11.3-4.2,21.8,2.4,23.6,14.4c1.4,9.3-2,16.7-7.7,23.5
			c-5.3,6.3-11.5,11.5-18.5,16c-4.2,2.7-7.9,6.2-12,9.5c-1.3-1.1-2.6-2.3-4.1-3.5c-3.8-2.9-7.5-5.8-11.4-8.5
			c-8.8-6.1-16.3-13.3-20.9-23c-3.3-6.9-2.7-14.1,0.7-20.8c3.9-7.7,12-10.7,20.3-7.9c5.1,1.7,9.7,4.4,13.8,7.8
			C1330,697.4,1330.5,697.8,1331.1,698.3z"/>
	</g>
	<g>
		<path class="st1" d="M1219.9,588.8c4.4-3.9,9.2-6.8,14.5-8.8c11.3-4.2,21.8,2.4,23.6,14.4c1.4,9.3-2,16.7-7.7,23.5
			c-5.3,6.3-11.5,11.5-18.5,16c-4.2,2.7-7.9,6.2-12,9.5c-1.3-1.1-2.6-2.3-4.1-3.5c-3.8-2.9-7.5-5.8-11.4-8.5
			c-8.8-6.1-16.3-13.3-20.9-23c-3.3-6.9-2.7-14.1,0.7-20.8c3.9-7.7,12-10.7,20.3-7.9c5.1,1.7,9.7,4.4,13.8,7.8
			C1218.8,587.9,1219.3,588.3,1219.9,588.8z"/>
	</g>
	<g>
		<path class="st1" d="M1881.1,588.9c4.4-3.9,9.2-6.8,14.5-8.8c11.3-4.2,21.8,2.4,23.6,14.4c1.4,9.3-2,16.7-7.7,23.5
			c-5.3,6.3-11.5,11.5-18.5,16c-4.2,2.7-7.9,6.2-12,9.5c-1.3-1.1-2.6-2.3-4.1-3.5c-3.8-2.9-7.5-5.8-11.4-8.5
			c-8.8-6.1-16.3-13.3-20.9-23c-3.3-6.9-2.7-14.1,0.7-20.8c3.9-7.7,12-10.7,20.3-7.9c5.1,1.7,9.7,4.4,13.8,7.8
			C1880,588,1880.5,588.4,1881.1,588.9z"/>
	</g>
	<g>
		<path class="st1" d="M1967.4,932.4c3.1-2.7,6.3-4.7,10-6c7.8-2.9,15.1,1.7,16.3,9.9c0.9,6.4-1.4,11.5-5.3,16.2
			c-3.7,4.4-8,8-12.8,11c-2.9,1.8-5.4,4.3-8.3,6.6c-0.9-0.7-1.8-1.6-2.8-2.4c-2.6-2-5.2-4-7.9-5.8c-6-4.2-11.2-9.2-14.4-15.9
			c-2.3-4.8-1.8-9.7,0.5-14.4c2.7-5.3,8.3-7.4,14-5.4c3.5,1.2,6.7,3,9.5,5.4C1966.6,931.8,1967,932.1,1967.4,932.4z"/>
	</g>
	<g>
		<path class="st1" d="M1657.5,588.9c4.4-3.9,9.2-6.8,14.5-8.8c11.3-4.2,21.8,2.4,23.6,14.4c1.4,9.3-2,16.7-7.7,23.5
			c-5.3,6.3-11.5,11.5-18.5,16c-4.2,2.7-7.9,6.2-12,9.5c-1.3-1.1-2.6-2.3-4.1-3.5c-3.8-2.9-7.5-5.8-11.4-8.5
			c-8.8-6.1-16.3-13.3-20.9-23c-3.3-6.9-2.7-14.1,0.7-20.8c3.9-7.7,12-10.7,20.3-7.9c5.1,1.7,9.7,4.4,13.8,7.8
			C1656.4,588,1656.9,588.4,1657.5,588.9z"/>
	</g>
	<g>
		<path class="st1" d="M1442.2,588.9c4.4-3.9,9.2-6.8,14.5-8.8c11.3-4.2,21.8,2.4,23.6,14.4c1.4,9.3-2,16.7-7.7,23.5
			c-5.3,6.3-11.5,11.5-18.5,16c-4.2,2.7-7.9,6.2-12,9.5c-1.3-1.1-2.6-2.3-4.1-3.5c-3.8-2.9-7.5-5.8-11.4-8.5
			c-8.8-6.1-16.3-13.3-20.9-23c-3.3-6.9-2.7-14.1,0.7-20.8c3.9-7.7,12-10.7,20.3-7.9c5.1,1.7,9.7,4.4,13.8,7.8
			C1441.1,588,1441.6,588.4,1442.2,588.9z"/>
	</g>
	<g>
		<path class="st1" d="M1767.7,477.8c4.4-3.9,9.2-6.8,14.5-8.8c11.3-4.2,21.8,2.4,23.6,14.4c1.4,9.3-2,16.7-7.7,23.5
			c-5.3,6.3-11.5,11.5-18.5,16c-4.2,2.7-7.9,6.2-12,9.5c-1.3-1.1-2.6-2.3-4.1-3.5c-3.8-2.9-7.5-5.8-11.4-8.5
			c-8.8-6.1-16.3-13.3-20.9-23c-3.3-6.9-2.7-14.1,0.7-20.8c3.9-7.7,12-10.7,20.3-7.9c5.1,1.7,9.7,4.4,13.8,7.8
			C1766.6,476.9,1767.1,477.3,1767.7,477.8z"/>
	</g>
	<g>
		<path class="st1" d="M1877.8,366.5c4.4-3.9,9.2-6.8,14.5-8.8c11.3-4.2,21.8,2.4,23.6,14.4c1.4,9.3-2,16.7-7.7,23.5
			c-5.3,6.3-11.5,11.5-18.5,16c-4.2,2.7-7.9,6.2-12,9.5c-1.3-1.1-2.6-2.3-4.1-3.5c-3.8-2.9-7.5-5.8-11.4-8.5
			c-8.8-6.1-16.3-13.3-20.9-23c-3.3-6.9-2.7-14.1,0.7-20.8c3.9-7.7,12-10.7,20.3-7.9c5.1,1.7,9.7,4.4,13.8,7.8
			C1876.6,365.6,1877.1,366,1877.8,366.5z"/>
	</g>
	<g>
		<path class="st1" d="M1661.1,363.1c4.4-3.9,9.2-6.8,14.5-8.8c11.3-4.2,21.8,2.4,23.6,14.4c1.4,9.3-2,16.7-7.7,23.5
			c-5.3,6.3-11.5,11.5-18.5,16c-4.2,2.7-7.9,6.2-12,9.5c-1.3-1.1-2.6-2.3-4.1-3.5c-3.8-2.9-7.5-5.8-11.4-8.5
			c-8.8-6.1-16.3-13.3-20.9-23c-3.3-6.9-2.7-14.1,0.7-20.8c3.9-7.7,12-10.7,20.3-7.9c5.1,1.7,9.7,4.4,13.8,7.8
			C1660,362.2,1660.5,362.6,1661.1,363.1z"/>
	</g>
	<g>
		<path class="st1" d="M1968.5,708.6c3.1-2.7,6.3-4.7,10-6c7.8-2.9,15.1,1.7,16.3,9.9c0.9,6.4-1.4,11.5-5.3,16.2
			c-3.7,4.4-7.9,8-12.8,11c-2.9,1.8-5.4,4.3-8.3,6.6c-0.9-0.7-1.8-1.6-2.8-2.4c-2.6-2-5.2-4-7.9-5.8c-6-4.2-11.2-9.2-14.4-15.9
			c-2.3-4.8-1.8-9.7,0.5-14.4c2.7-5.3,8.3-7.4,14-5.4c3.5,1.2,6.7,3,9.5,5.4C1967.8,708,1968.1,708.2,1968.5,708.6z"/>
	</g>
	<g>
		<path class="st1" d="M1968.5,484.1c3.2-2.8,6.6-4.8,10.4-6.3c8.1-3,15.6,1.8,16.9,10.3c1,6.7-1.4,11.9-5.5,16.8
			c-3.8,4.5-8.2,8.3-13.3,11.4c-3,1.9-5.7,4.4-8.6,6.8c-0.9-0.8-1.9-1.7-2.9-2.5c-2.7-2.1-5.4-4.1-8.2-6.1
			c-6.3-4.3-11.6-9.5-15-16.5c-2.4-4.9-1.9-10.1,0.5-14.9c2.8-5.5,8.6-7.7,14.6-5.6c3.6,1.2,6.9,3.1,9.9,5.6
			C1967.7,483.4,1968.1,483.7,1968.5,484.1z"/>
	</g>
	<g>
		<path class="st1" d="M1967.6,260.7c3.1-2.7,6.3-4.7,10-6c7.8-2.9,15.1,1.7,16.3,9.9c0.9,6.4-1.4,11.5-5.3,16.2
			c-3.7,4.4-8,8-12.8,11c-2.9,1.8-5.4,4.3-8.3,6.6c-0.9-0.7-1.8-1.6-2.8-2.4c-2.6-2-5.2-4-7.9-5.8c-6-4.2-11.2-9.2-14.4-15.9
			c-2.3-4.8-1.8-9.7,0.5-14.4c2.7-5.3,8.3-7.4,14-5.4c3.5,1.2,6.7,3,9.5,5.4C1966.8,260.1,1967.1,260.4,1967.6,260.7z"/>
	</g>
	<g>
		<path class="st1" d="M1968.6,45.9c3.2-2.8,6.6-4.9,10.4-6.3c8.1-3.1,15.7,1.8,17,10.4c1,6.7-1.4,12-5.6,16.9
			c-3.8,4.6-8.3,8.3-13.4,11.5c-3,1.9-5.7,4.5-8.7,6.8c-0.9-0.8-1.9-1.7-2.9-2.5c-2.7-2.1-5.4-4.2-8.2-6.1
			c-6.3-4.4-11.7-9.6-15.1-16.6c-2.4-5-1.9-10.2,0.5-15c2.8-5.6,8.7-7.7,14.7-5.7c3.7,1.2,7,3.1,10,5.6
			C1967.7,45.2,1968.1,45.5,1968.6,45.9z"/>
	</g>
	<g>
		<path class="st1" d="M1877.8,141.6c4.4-3.9,9.2-6.8,14.5-8.8c11.3-4.2,21.8,2.4,23.6,14.4c1.4,9.3-2,16.7-7.7,23.5
			c-5.3,6.3-11.5,11.5-18.5,16c-4.2,2.7-7.9,6.2-12,9.5c-1.3-1.1-2.6-2.3-4.1-3.5c-3.8-2.9-7.5-5.8-11.4-8.5
			c-8.8-6.1-16.3-13.3-20.9-23c-3.3-6.9-2.7-14.1,0.7-20.8c3.9-7.7,12-10.7,20.3-7.9c5.1,1.7,9.7,4.4,13.8,7.8
			C1876.6,140.8,1877.1,141.1,1877.8,141.6z"/>
	</g>
	<g>
		<path class="st1" d="M1767.7,30c4.4-3.9,9.2-6.8,14.5-8.8c11.3-4.2,21.8,2.4,23.6,14.4c1.4,9.3-2,16.7-7.7,23.5
			c-5.3,6.3-11.5,11.5-18.5,16c-4.2,2.7-7.9,6.2-12,9.5c-1.3-1.1-2.6-2.3-4.1-3.5c-3.8-2.9-7.5-5.8-11.4-8.5
			c-8.8-6.1-16.3-13.3-20.9-23c-3.3-6.9-2.7-14.1,0.7-20.8c3.9-7.7,12-10.7,20.3-7.9c5.1,1.7,9.7,4.4,13.8,7.8
			C1766.6,29.1,1767.1,29.5,1767.7,30z"/>
	</g>
	<g>
		<path class="st1" d="M1767.7,253.9c4.4-3.9,9.2-6.8,14.5-8.8c11.3-4.2,21.8,2.4,23.6,14.4c1.4,9.3-2,16.7-7.7,23.5
			c-5.3,6.3-11.5,11.5-18.5,16c-4.2,2.7-7.9,6.2-12,9.5c-1.3-1.1-2.6-2.3-4.1-3.5c-3.8-2.9-7.5-5.8-11.4-8.5
			c-8.8-6.1-16.3-13.3-20.9-23c-3.3-6.9-2.7-14.1,0.7-20.8c3.9-7.7,12-10.7,20.3-7.9c5.1,1.7,9.7,4.4,13.8,7.8
			C1766.6,253,1767.1,253.4,1767.7,253.9z"/>
	</g>
	<g>
		<path class="st1" d="M1661.1,143c4.4-3.9,9.2-6.8,14.5-8.8c11.3-4.2,21.8,2.4,23.6,14.4c1.4,9.3-2,16.7-7.7,23.5
			c-5.3,6.3-11.5,11.5-18.5,16c-4.2,2.7-7.9,6.2-12,9.5c-1.3-1.1-2.6-2.3-4.1-3.5c-3.8-2.9-7.5-5.8-11.4-8.5
			c-8.8-6.1-16.3-13.3-20.9-23c-3.3-6.9-2.7-14.1,0.7-20.8c3.9-7.7,12-10.7,20.3-7.9c5.1,1.7,9.7,4.4,13.8,7.8
			C1660,142.1,1660.5,142.5,1661.1,143z"/>
	</g>
	<g>
		<path class="st1" d="M1554.7,250.7c4.4-3.9,9.2-6.8,14.5-8.8c11.3-4.2,21.8,2.4,23.6,14.4c1.4,9.3-2,16.7-7.7,23.5
			c-5.3,6.3-11.5,11.5-18.5,16c-4.2,2.7-7.9,6.2-12,9.5c-1.3-1.1-2.6-2.3-4.1-3.5c-3.8-2.9-7.5-5.8-11.4-8.5
			c-8.8-6.1-16.3-13.3-20.9-23c-3.3-6.9-2.7-14.1,0.7-20.8c3.9-7.7,12-10.7,20.3-7.9c5.1,1.7,9.7,4.4,13.8,7.8
			C1553.6,249.8,1554.1,250.2,1554.7,250.7z"/>
	</g>
	<g>
		<path class="st1" d="M1547.8,32.3c4.4-3.9,9.2-6.8,14.5-8.8c11.3-4.2,21.8,2.4,23.6,14.4c1.4,9.3-2,16.7-7.7,23.5
			c-5.3,6.3-11.5,11.5-18.5,16c-4.2,2.7-7.9,6.2-12,9.5c-1.3-1.1-2.6-2.3-4.1-3.5c-3.8-2.9-7.5-5.8-11.4-8.5
			c-8.8-6.1-16.3-13.3-20.9-23c-3.3-6.9-2.7-14.1,0.7-20.8c3.9-7.7,12-10.7,20.3-7.9c5.1,1.7,9.7,4.4,13.8,7.8
			C1546.6,31.4,1547.1,31.8,1547.8,32.3z"/>
	</g>
	<g>
		<path class="st1" d="M1438.8,141.6c4.4-3.9,9.2-6.8,14.5-8.8c11.3-4.2,21.8,2.4,23.6,14.4c1.4,9.3-2,16.7-7.7,23.5
			c-5.3,6.3-11.5,11.5-18.5,16c-4.2,2.7-7.9,6.2-12,9.5c-1.3-1.1-2.6-2.3-4.1-3.5c-3.8-2.9-7.5-5.8-11.4-8.5
			c-8.8-6.1-16.3-13.3-20.9-23c-3.3-6.9-2.7-14.1,0.7-20.8c3.9-7.7,12-10.7,20.3-7.9c5.1,1.7,9.7,4.4,13.8,7.8
			C1437.7,140.8,1438.2,141.1,1438.8,141.6z"/>
	</g>
	<g>
		<path class="st1" d="M1334.4,471c4.4-3.9,9.2-6.8,14.5-8.8c11.3-4.2,21.8,2.4,23.6,14.4c1.4,9.3-2,16.7-7.7,23.5
			c-5.3,6.3-11.5,11.5-18.5,16c-4.2,2.7-7.9,6.2-12,9.5c-1.3-1.1-2.6-2.3-4.1-3.5c-3.8-2.9-7.5-5.8-11.4-8.5
			c-8.8-6.1-16.3-13.3-20.9-23c-3.3-6.9-2.7-14.1,0.7-20.8c3.9-7.7,12-10.7,20.3-7.9c5.1,1.7,9.7,4.4,13.8,7.8
			C1333.2,470.2,1333.7,470.5,1334.4,471z"/>
	</g>
	<g>
		<path class="st1" d="M1334.4,250.7c4.4-3.9,9.2-6.8,14.5-8.8c11.3-4.2,21.8,2.4,23.6,14.4c1.4,9.3-2,16.7-7.7,23.5
			c-5.3,6.3-11.5,11.5-18.5,16c-4.2,2.7-7.9,6.2-12,9.5c-1.3-1.1-2.6-2.3-4.1-3.5c-3.8-2.9-7.5-5.8-11.4-8.5
			c-8.8-6.1-16.3-13.3-20.9-23c-3.3-6.9-2.7-14.1,0.7-20.8c3.9-7.7,12-10.7,20.3-7.9c5.1,1.7,9.7,4.4,13.8,7.8
			C1333.2,249.8,1333.7,250.2,1334.4,250.7z"/>
	</g>
	<g>
		<path class="st1" d="M1113.9,253.9c4.4-3.9,9.2-6.8,14.5-8.8c11.3-4.2,21.8,2.4,23.6,14.4c1.4,9.3-2,16.7-7.7,23.5
			c-5.3,6.3-11.5,11.5-18.5,16c-4.2,2.7-7.9,6.2-12,9.5c-1.3-1.1-2.6-2.3-4.1-3.5c-3.8-2.9-7.5-5.8-11.4-8.5
			c-8.8-6.1-16.3-13.3-20.9-23c-3.3-6.9-2.7-14.1,0.7-20.8c3.9-7.7,12-10.7,20.3-7.9c5.1,1.7,9.7,4.4,13.8,7.8
			C1112.7,253,1113.2,253.4,1113.9,253.9z"/>
	</g>
	<g>
		<path class="st1" d="M1113.9,475.1c4.4-3.9,9.2-6.8,14.5-8.8c11.3-4.2,21.8,2.4,23.6,14.4c1.4,9.3-2,16.7-7.7,23.5
			c-5.3,6.3-11.5,11.5-18.5,16c-4.2,2.7-7.9,6.2-12,9.5c-1.3-1.1-2.6-2.3-4.1-3.5c-3.8-2.9-7.5-5.8-11.4-8.5
			c-8.8-6.1-16.3-13.3-20.9-23c-3.3-6.9-2.7-14.1,0.7-20.8c3.9-7.7,12-10.7,20.3-7.9c5.1,1.7,9.7,4.4,13.8,7.8
			C1112.7,474.3,1113.2,474.6,1113.9,475.1z"/>
	</g>
	<g>
		<path class="st1" d="M1228.8,363.1c4.4-3.9,9.2-6.8,14.5-8.8c11.3-4.2,21.8,2.4,23.6,14.4c1.4,9.3-2,16.7-7.7,23.5
			c-5.3,6.3-11.5,11.5-18.5,16c-4.2,2.7-7.9,6.2-12,9.5c-1.3-1.1-2.6-2.3-4.1-3.5c-3.8-2.9-7.5-5.8-11.4-8.5
			c-8.8-6.1-16.3-13.3-20.9-23c-3.3-6.9-2.7-14.1,0.7-20.8c3.9-7.7,12-10.7,20.3-7.9c5.1,1.7,9.7,4.4,13.8,7.8
			C1227.6,362.2,1228.2,362.6,1228.8,363.1z"/>
	</g>
	<g>
		<path class="st1" d="M1228.8,141.6c4.4-3.9,9.2-6.8,14.5-8.8c11.3-4.2,21.8,2.4,23.6,14.4c1.4,9.3-2,16.7-7.7,23.5
			c-5.3,6.3-11.5,11.5-18.5,16c-4.2,2.7-7.9,6.2-12,9.5c-1.3-1.1-2.6-2.3-4.1-3.5c-3.8-2.9-7.5-5.8-11.4-8.5
			c-8.8-6.1-16.3-13.3-20.9-23c-3.3-6.9-2.7-14.1,0.7-20.8c3.9-7.7,12-10.7,20.3-7.9c5.1,1.7,9.7,4.4,13.8,7.8
			C1227.6,140.8,1228.2,141.1,1228.8,141.6z"/>
	</g>
	<g>
		<path class="st1" d="M1112.8,34.4c4.4-3.9,9.2-6.8,14.5-8.8c11.3-4.2,21.8,2.4,23.6,14.4c1.4,9.3-2,16.7-7.7,23.5
			c-5.3,6.3-11.5,11.5-18.5,16c-4.2,2.7-7.9,6.2-12,9.5c-1.3-1.1-2.6-2.3-4.1-3.5c-3.8-2.9-7.5-5.8-11.4-8.5
			c-8.8-6.1-16.3-13.3-20.9-23c-3.3-6.9-2.7-14.1,0.7-20.8c3.9-7.7,12-10.7,20.3-7.9c5.1,1.7,9.7,4.4,13.8,7.8
			C1111.6,33.5,1112.1,33.9,1112.8,34.4z"/>
	</g>
	<g>
		<path class="st1" d="M1331.1,32.3c4.4-3.9,9.2-6.8,14.5-8.8c11.3-4.2,21.8,2.4,23.6,14.4c1.4,9.3-2,16.7-7.7,23.5
			c-5.3,6.3-11.5,11.5-18.5,16c-4.2,2.7-7.9,6.2-12,9.5c-1.3-1.1-2.6-2.3-4.1-3.5c-3.8-2.9-7.5-5.8-11.4-8.5
			c-8.8-6.1-16.3-13.3-20.9-23c-3.3-6.9-2.7-14.1,0.7-20.8c3.9-7.7,12-10.7,20.3-7.9c5.1,1.7,9.7,4.4,13.8,7.8
			C1329.9,31.4,1330.5,31.8,1331.1,32.3z"/>
	</g>
	<path d="M1383.7,324.6c39,0.1,78,0.2,117,0.3c0,0-1.4-1.2-1.4-1.2c0,39.6,0.1,79.3,0.1,118.9l1.1-1c-38.8,0.3-77.6,0.6-116.5,0.8
		c0.2-39.5,0.4-79.1,0.6-118.6L1383.7,324.6z"/>
	<path d="M1492.4,438.8c39,0.1,78,0.2,117,0.3c0,0-1.4-1.2-1.4-1.2c0,39.6,0.1,79.3,0.1,118.9l1.1-1c-38.8,0.3-77.6,0.6-116.5,0.8
		c0.2-39.5,0.4-79.1,0.6-118.6L1492.4,438.8z"/>
	<g>
		<path class="st1" d="M1551,475.1c4.4-3.9,9.2-6.8,14.5-8.8c11.3-4.2,21.8,2.4,23.6,14.4c1.4,9.3-2,16.7-7.7,23.5
			c-5.3,6.3-11.5,11.5-18.5,16c-4.2,2.7-7.9,6.2-12,9.5c-1.3-1.1-2.6-2.3-4.1-3.5c-3.8-2.9-7.5-5.8-11.4-8.5
			c-8.8-6.1-16.3-13.3-20.9-23c-3.3-6.9-2.7-14.1,0.7-20.8c3.9-7.7,12-10.7,20.3-7.9c5.1,1.7,9.7,4.4,13.8,7.8
			C1549.9,474.3,1550.4,474.6,1551,475.1z"/>
	</g>
	<g>
		<path class="st1" d="M1441.3,360.9c4.4-3.9,9.2-6.8,14.5-8.8c11.3-4.2,21.8,2.4,23.6,14.4c1.4,9.3-2,16.7-7.7,23.5
			c-5.3,6.3-11.5,11.5-18.5,16c-4.2,2.7-7.9,6.2-12,9.5c-1.3-1.1-2.6-2.3-4.1-3.5c-3.8-2.9-7.5-5.8-11.4-8.5
			c-8.8-6.1-16.3-13.3-20.9-23c-3.3-6.9-2.7-14.1,0.7-20.8c3.9-7.7,12-10.7,20.3-7.9c5.1,1.7,9.7,4.4,13.8,7.8
			C1440.1,360.1,1440.6,360.4,1441.3,360.9z"/>
	</g>
</g>
</svg>
