<?xml version="1.0" encoding="utf-8"?>
<!-- Generator: Adobe Illustrator 23.1.1, SVG Export Plug-In . SVG Version: 6.00 Build 0)  -->
<svg version="1.1" id="Layer_1" xmlns="http://www.w3.org/2000/svg" xmlns:xlink="http://www.w3.org/1999/xlink" x="0px" y="0px"
	 viewBox="0 0 2000 1000" style="enable-background:new 0 0 2000 1000;" xml:space="preserve">
<style type="text/css">
	.st0{fill:#E83A95;}
</style>
<rect width="1998.3" height="1000"/>
<g>
	<path class="st0" d="M0,957.8c7.1,14.3,17.9,24.3,33.7,27.7c9.1,2,18.5,3.3,26.3-4.3c5.3-5.3,5.8-11.3,0.4-16.5
		c-9.4-9-16-19.8-21-31.6c-5.4-12.9-4.7-26.3-1.1-39.4c6.5-23.8,18.5-44.9,32.9-64.9c8.6-11.9,17.2-24.1,20.2-39
		c2.7-13.2,0.1-26.2-1.7-39.3c-0.2-1.4-0.8-2.9-0.5-4.1c4.3-15.8-4.2-28.1-10.8-40.9c-4.3-8.2-8.8-16.4-12.6-24.8
		c-8.2-18.1-10.4-37.6-13.1-57c-1.8-12.8-3-25.7-5.5-38.4c-1.1-5.4-4.3-10.7-7.4-15.4c-6.1-9.3-4.5-19.3-2.9-29
		c1.8-11.2,4.6-22.3,7.7-33.3c4.6-15.9,5.7-31.8,0.9-47c2.4-1.4,4.4-2.5,7-4c3.2,6.4,3.8,13.8,4.4,21.1c1.3,15.9-3.5,30.5-9.7,44.8
		c-1.7,4-3.4,8.1-4.8,12.2c-4.7,14.3-2.3,27.1,8.6,37.7c8.4,8.2,20.1,8,28.1-0.5c7.3-7.7,10.8-17.2,11.8-27.6
		c1.3-13.7-1.5-27-5.3-40C81.3,490,75.5,476,71.5,461.5c-4-14.2-3.7-28.5-0.3-43.2c2.2-9.5,6.7-19.4,2.5-29.6
		c-0.9-2.3-2.4-4.3-3.7-6.7c-6.9,4-8.2,10.5-10.7,16.1c-2.7,6-4.2,12.7-6.7,18.8c-1.1,2.7-3.4,4.9-5.2,7.3c-0.5-0.2-1-0.4-1.6-0.6
		c0.5-4,0.8-8.1,1.7-12.1c1.7-8.1,3.5-16.2,5.6-24.2c1-3.9,3.4-7.5,4-11.3c1.2-6.9,1.4-13.9,2.2-20.9c0.2-1.5,1.3-2.9,2-4.4
		c1.4,0.9,3.9,1.6,4.1,2.7c1.2,6.1,2.1,12.2,2.7,18.4c0.2,2-0.8,4-1.3,6.6c10.5-4.5,17.1-12.3,23.1-20.8
		c13-18.5,22.1-38.3,22.7-61.3c0.1-4-0.1-8.1-0.3-12.1c-0.2-3.8,0.1-8.2-6.1-7.4c-0.5,0.1-2.2-3-2-4.3c1-6.8,2.3-13.5,3.8-20.1
		c0.7-3.3,1.7-6.7,6.7-8.5c-1.2,7.6,3.1,13.4,2.1,20.7c-0.9,7,0.9,14.3,1.2,21.5c0.7,15.8-3.3,30.9-6.8,46.1
		c-3,12.9-7.5,25.5-6.8,39.2c0.4,8.2-1.8,16.4-1.9,24.6c-0.2,17.9,8.4,32.5,18.3,46.8c7.6,11.1,14.1,22.9,21.3,34.3
		c1.9,3,3.9,5.9,6.3,8.5c2.8,3.1,10.7,2.1,13.1-2.1c3.3-5.7,6.6-11.6,8.4-17.9c2-6.8,2.8-14,3.2-21c0.6-12.8,4.3-24.5,11.4-35.1
		c7.6-11.2,11.1-23.8,12.7-37c2.8-22,0.3-43.2-10.8-62.8c-2.9-5.1-7.1-9.6-11-14c-3-3.4-5-6.7-5.5-11.5c-1-9.2-3.6-18.3-4.3-27.6
		c-0.8-11.2-0.6-22.6,0-33.9c0.5-10.1,2.1-20.2,3.2-30.5c4.3,5.1,5.2,10.7,5.4,17.2c0.5,17.9-0.9,36,4.6,53.7
		c4.1,13.1,10.7,24.4,20.5,33.8c2.8,2.7,3.9,5.4,4,9.6c0.1,5,2.7,10,3.7,15.1c2.3,11.6,4.2,23.3,6.5,34.9c0.4,1.8,1.7,4,3.3,4.8
		c0.9,0.5,3.3-1.1,4.7-2.2c12.8-10.5,18.8-25,23.7-40.1c0.2-0.5,0.4-1,0.4-1.5c0.1-19.6,0.7-39.1-13-55.8c-4.3-5.2-5.8-12.9-8-19.7
		c-1.8-5.6-3.1-11.5-4-17.4c-0.5-3.4,0.8-7.1,0.7-10.6c-0.1-4.7-0.4-9.4-1.4-13.9c-5.5-22.7-1.4-43.5,10.9-63.3
		c11.9-19.2,12.7-40.2,7.5-61.6c-3.5-14.3-7.1-28.6-10.5-42.9c-0.5-2.2-0.3-4.7-0.4-7c0.5-0.2,1.1-0.4,1.6-0.6
		c1.2,2.1,2.7,4.1,3.4,6.4c3.9,12.9,8.3,25.8,11.2,38.9c3.4,15.4,5.6,31,8.1,46.6c0.3,1.7,0.6,3.9-0.2,5.1c-4.1,6.6-3.7,14.1-5,21.2
		c-1,5.4-3.1,10.8-5.7,15.6c-9.8,17.7-14.1,36.1-6.6,55.6c3.1,8.1,7.7,15.8,11.8,23.5c3.8,7.1,8.1,13.9,11.7,21
		c4.6,9.2,8.8,18.6,12.9,28.1c4.9,11.3,3.1,22.7,0.1,34c-5.8,21.5-11.4,43-1.3,64.8c4,8.6,8.6,16.9,12,25.7c2.3,6,4.3,12.5,4.5,18.8
		c0.4,17.7-1.9,35.1-10.7,50.9c-4.5,8-9.8,15.6-15.1,23.3c-5,7.3-5.6,17.5-1.2,24.9c-4.7-0.6-8.9-4.1-9.2-8.2
		c-1.6-18.8-0.6-36.9,11.9-52.5c3-3.8,5.6-8.1,8-12.4c7.8-14.4,5.1-35.1-5.9-46c-6.5-6.5-16.3-7.3-24-1.7
		c-10.3,7.3-15.2,18-18.6,29.7c-7.4,25.9,1.5,49.3,11.6,72.3c6.8,15.5,15.3,30.2,26.9,42.6c6.5,7,8.6,15.8,13,23.6
		c2.3,4,5.1,7.8,7.5,11.8c1.2,1.9,2.5,3.9,3.1,6c4.1,14.3,7.8,28.7,11.9,43c6,20.7,5,41.2-0.5,61.8c-4.8,18.2-2.3,35.8,5.9,52.7
		c0.8,1.6,0.3,3.9,0,5.8c-1.4,7.7-3,15.3-4.5,23c-0.1,0.4,0.5,0.9,1.1,1.9c9.3-4.8,17.3-10.6,19.7-21.5c1.1-5.2,0.9-10.7,1.8-16
		c0.3-2,1.7-4.2,3.1-5.7c13-13.5,21-29.6,23.1-48c1.5-12.9,0.8-25.9-3.5-38.6c-2.3-7-3.6-14.3-6-21.2c-4.9-14.2-10.4-28.3-15.5-42.4
		c-3.2-8.9-10.9-12.2-18.7-15.5c-5.2-2.2-9.9-14.4-7.7-19.6c1.8-4.3,3.8-8.6,5.9-13.2c0.9,0.7,1.6,1.4,2.4,1.9
		c1.4,0.8,2.9,1.4,4.3,2.1c0.3-1.3,0.3-2.9,1-3.9c3.3-4.5,3.8-9.5,3.5-14.8c-0.6-8.8-1.7-17.5-2-26.2c-0.1-2.4,1.6-5.3,3.2-7.3
		c9.6-12.2,17.6-25.3,17.8-41.3c0.1-8.6-1.6-17.3-3.1-25.9c-1.7-10.2-5.3-19.6-12.1-27.6c-0.9-1.1-1.5-3-1.3-4.3
		c2.3-12.9-0.3-25.5-2.1-38.2c-1.8-13-2.2-26.1,0.8-38.8c2.3-10,5.8-19.9,13.7-27.4c5-4.8,8.1-10.6,10.5-17.3
		c3.4-9.5,8.7-18.3,14.5-27.3c-0.1,3.3-0.2,6.5-0.5,9.8c-1.7,26.3-8.8,51.4-15.5,76.7c-3.9,14.8-3.6,29.6,0.2,44.8
		c3.6,14.2,4.7,29.1,6.9,43.7c2.4,15.9,3.9,31.8,1.3,47.7c-1.2,7.4-4,14.5-5.3,21.9c-1.3,7.1-1.2,14.5-2.4,21.6
		c-1.5,9.2-3.4,18.3-5.7,27.3c-5.8,22.7-3.6,44.1,11,63c4.4,5.7,5.1,11.8,5,18c-0.1,4.6,1,8,3.7,11.5c2.7,3.6,4.5,7.9,7.5,11.3
		c4.3,5,10,4,12-2.4c3.4-11,8.2-22.2,8.5-33.4c0.2-9.4,4.5-14.5,10.1-19.8c25.5-24.1,41.7-53.7,51.2-87c6.4-22.3,6.3-45-3.2-66.6
		c-3.5-8.1-9.3-15.2-13.3-21.5c0-4.1,1.2-8.1-0.2-10.3c-7.3-11.8-9-24.9-10-38.2c-0.3-3.8-0.7-7.6-1.1-11.4c0.4-0.1,0.8-0.2,1.3-0.3
		c1.2,3.5,2.3,7,3.5,10.5c6.3,19.3,16.6,35.5,34.6,46.1c1.7,1,2.4,3.7,3.6,5.6c-1.8,0.9-3.6,2.3-5.5,2.5c-3.8,0.4-4.8,2-3.7,5.6
		c2.6,8.5,5.9,17,7.4,25.7c2.2,12.9,3.7,26.1,1,39.3c-0.6,3.1-0.5,6.3-0.9,9.4c-0.6,4.5-1.4,8.9-2.2,13.3c-0.7,4.1-1.5,8.2-2.2,12.3
		c-0.7,4.5,0,9.2-3.7,13.1c-1.9,2.1-2,5.7-3.1,8.6c-1.6,4.3-3.3,8.4-4.8,12.7c-1.3,3.7-2.2,7.6-3.6,11.2c-1.3,3.4-3.2,6.6-4.4,10
		c-2.4,6.4-4.4,12.8-6.9,19.2c-0.6,1.7-2,3.2-3.5,4.4c-9.3,7.9-18.6,16.2-23.2,27.5c-4.3,10.5-6.5,22-8.8,33.2
		c-4.3,21.4-0.7,42.2,5.5,62.7c4.5,15.1,3.6,30.4,2,45.9c-1.1,11.4,0.3,22.8,7.2,32.7c2.2,3.1,3.2,7,5.5,10.1
		c3.2,4.4,7.8,6.5,13.4,5.5c5.8-1,9.9-4.3,12-9.9c3.3-9,0.5-17.4-3.1-25.5c-6.9-15.6-15.9-30.6-20.9-46.8c-5.3-16.9-8.8-34.7-7-52.8
		c0.2-1.6,0.8-3.1,1.9-4.6c5.4,18.8,9.6,37.9,22.5,53.2c0.4-0.2,0.9-0.3,1.3-0.5c-2.6-8.6-5.2-17.3-7.8-25.9c0.5-0.2,1-0.4,1.5-0.6
		c0.8,1.2,2,2.3,2.3,3.7c2.1,8.5,4,17,6,25.5c0.2,0.6,0.4,1.4,0.8,1.8c9.2,9.1,18.5,18.1,27.8,27.2c4.2-3.5,4-6.7,2.6-10.2
		c-2.8-7.5-5.7-14.9-5.5-23.4c0.2-7.3,1.7-13.1,6.9-18.5c4.3-4.5,7.5-10,11-15.2c3.1-4.7,6.7-9.3,8.8-14.5
		c5.7-14.3,3.9-27.9-5.3-40.4c-0.9-1.2-2.1-2.5-3.4-3.1c-6.2-2.7-8.6-7.9-6.3-15.4c1.5,3.5,2.9,6.5,4.5,10.3c2.1-5.9-0.8-9.7-3-13.7
		c-1.3-2.4-3-4.9-3.5-7.5c-3.3-19.8-5.2-39.6-1.9-59.6c0.8-5.2,1.6-10.6,3.7-15.3c2.2-5.1,6-9.6,9-14.4c0.5,0.1,1,0.2,1.5,0.4
		c-0.1,1.7,0,3.4-0.3,5c-4,23.4-6.4,46.9-0.6,70.1c2.6,10.4,8,20.1,12.3,30.1c0.7,1.6,2.2,2.9,3.3,4.3c0.4-0.2,0.8-0.4,1.2-0.6
		c-1.2-4-2.4-8-3.5-12c-2.8-10.8-6.5-21.5-8.1-32.5c-1.5-10.5-1.5-21.4-0.9-32c0.4-9.2,3-18.3,3.6-27.5c0.2-3.6-3.1-7.3-3.4-11
		c-0.5-5.5-5.3-10.5-1.2-16.7c15.3-23.5,21-50,19.7-77.4c-0.8-16-5.7-31.7-8.7-47.6c-0.8-4.1-1.2-8.3-1.8-12.5
		c0.5-0.1,1.1-0.2,1.6-0.3c3.8,9.6,7.7,19.1,11.5,28.7c0,32.4,0,64.7,0,97.1c-1.8,5.3-4.6,10.4-5.1,15.8c-2.2,24.7-2.6,49.4,1.6,74
		c0.8,4.6,2.3,9.1,3.5,13.6c0,19,0,38,0,57c-2.2-0.3-4.5-1-6.6-0.6c-0.6,0.1-1.3,3.5-0.9,5.1c5.3,22.1-0.2,41.5-14.2,59
		c-4.8,6-9,12.3-9,20.2c0,2.8,1.1,7.1,3.1,8.2c2.3,1.3,6.8,0.9,9.2-0.6c3.5-2.1,6.6-5.4,8.7-8.9c3.7-6.1,6.5-12.8,9.7-19.2
		c0,10.5,0,21.1,0,31.6c-1.7,1.5-3.6,2.9-5,4.6c-10.4,12.2-16.4,26.3-19.6,42c-2.9,14.3-3.1,28.5,1.3,42.2c6,18.8,11.7,37.5,10,57.6
		c-0.1,0.8,0.7,1.7,1.1,2.5c0.5,0.1,1,0.2,1.5,0.3c3.6-8.2,7.2-16.5,10.8-24.7c0,22.2,0,44.3,0,66.5c-0.9-1.8-2-3.6-2.6-5.5
		c-2.8-8.9-5.5-17.9-8.4-26.8c-0.4-1.3-2-2.2-3.2-3.5c-0.8,1.2-1.2,1.6-1.3,2c-4.1,13.9-8.3,27.8-12.4,41.7c-1,3.4-2.5,6.9-2.5,10.3
		c0,6.6,3.9,11.5,8.6,15.6c4.2,3.7,9.5,4.1,14.1,0.8c3-2.2,5.2-5.5,7.7-8.3c0,13.4,0,26.7,0,40.1c-20.4,0-40.8,0-61.2,0
		c-1-6-1.8-12.1-3.3-18c-0.4-1.5-2.8-2.4-4.3-3.6c-0.9,1.5-2.6,2.9-2.6,4.4c0,5.7,0.4,11.5,0.7,17.2c-44,0-87.9,0-131.9,0
		c0.1-14.7,0.3-29.3,0.3-44c0-3-0.5-6-0.8-9c-12.5,9.3-18.4,21.3-17.7,35.9c0.3,5.7,2.9,11.3,4.5,17c-15.5,0-30.9,0-46.4,0
		c6-15.2,12-30.3,18.1-45.7c-3.7-1.6-6.7-2-7,3.6c0,1-0.5,2-1.1,2.8c-8.6,11.7-14.3,24.4-14.3,39.2c-42.5,0-85.1,0-127.6,0
		c-1.3-5.3,2.2-12.3-5.9-16.8c-2.8,6-5.3,11.4-7.8,16.8c-30.5,0-60.9,0-91.8,0C0,985.9,0,971.9,0,957.8z M101.6,924.3
		c9-6.5,14.1-16,18.2-25.9c6.3-15,3.7-30.3-0.2-45.4c-0.8-3-2.8-5.8-4.5-8.6c-1.3-2.1-3.4-3.9-4.4-6.1c-2.2-5.3-3.8-10.8-6-16.1
		c-1.6-3.8-4.7-3.6-6.9-0.7c-4.2,5.5-8.7,11-11.9,17.1c-5.6,10.8-10.6,22-15.2,33.4c-1.8,4.3-3.1,9.6-2.3,14.1
		c2.7,14.9,12.2,24.6,28.5,23.6c2.2-0.1,4.6,2.1,6.8,3.3c-2,1.6-4,3.3-6,4.8c-1.9,1.4-3.9,2.6-5.8,3.9c0.3,0.6,0.5,1.1,0.8,1.7
		c1.6-0.1,3.2-0.5,4.8-0.4C98.9,923.2,100.3,923.9,101.6,924.3c-1.6,0.5-3.2,0.9-4.9,1.3c-5.1,1.4-10.2,4.2-14.6,0.1
		c0-2.5-0.4-4.8-1.5-6.7c-1.3-2-3.2-3.7-5-5.3c-4.9-4.3-8.4-10.6-16-11.4c-0.6,11.2,5.5,22,15.6,26.8
		C85,933.9,93.5,929.9,101.6,924.3z M221.4,840.9c6.4-3.8,13-5.9,16.9-10.4c5.4-6.2,9.4-13.9,12.8-21.5c3.1-6.9,4.8-14.6,7-21.9
		c4.9-15.8,5.4-31.7,1.1-47.8c-3-11.3-6.7-22.6-9-34.1c-4.1-20-1.7-39.8,4.8-59c1.8-5.3,5.5-10.3,5.9-15.7c0.6-7-0.2-14.5-2.2-21.2
		c-3.5-11.9-12.3-21.6-13.2-35.1c-0.6-8.3-5.6-16.4-8.9-24.5c-6.3-15.6-13-31.1-19.2-46.7c-4.9-12.4-9.9-24.7-10.9-38.3
		c-0.5-5.9-2.4-11.7-3.7-17.5c-0.6-0.1-1.2-0.2-1.8-0.2c-2.2,5.8-5.1,11.4-6.5,17.4c-5.2,22.3-3.5,44.4,4.2,66.2
		c-7.7-4.1-7.6-12.4-11.4-18.5c-3.8-6.1-6.5-13.1-12.7-17.5c-4.2,8-4,18.4-3.3,26.4c1.5,17,10.1,31.6,15.5,47.3
		c3.3,9.5,5.7,19.5,2,29.3c-3.2,8.5-7.8,16.4-12,24.5c-3.5,6.8-7.2,13.4-11.5,21.4c3.3-0.5,6.1-0.4,8.4-1.3
		c20.1-8.2,32.7-29,31.2-50.9c-0.3-4-0.4-8.1-0.1-12.1c0.1-1.7,1.6-3.4,2.5-5.1c1.5,1.2,3.8,2,4.4,3.5c2,4.9,4.3,9.9,4.8,15
		c1.6,16.7,12.1,28.7,21,41.6c2.2,3.2,3.6,7,5.4,10.5c-0.5,0.2-0.9,0.4-1.4,0.7c-2.3-3-4.4-6.2-6.8-9.1c-6.8-7.9-16.8-6.7-20.5,2.9
		c-1.9,5-2,10.9-2.2,16.4c-0.2,4.6-0.7,5.3-5.1,4.1c-1.4-0.4-3.6-0.4-4.6,0.4c-10.7,9.7-18.4,21.5-21.3,35.6
		c-5.1,24.8,2.3,47.4,14.8,68.6c5.5,9.4,11.6,18.3,17.1,27.7c6.1,10.4,8.1,21.9,7.8,33.9C220.5,830.6,221.1,835.3,221.4,840.9z
		 M93.5,433c-0.8,0.9-1.4,1.3-1.7,1.9c-0.6,1.1-1.1,2.2-1.4,3.4c-5,16.5-3.9,32.9,0.9,49.3c0.7,2.5,0.9,5.1,1.4,7.7
		c1.1,5.8,1.8,11.8,3.6,17.3c4.6,13.8,6,27.9,2.1,41.8c-3.4,12.5-10.4,23.2-18.9,33c-2.8,3.3-5.4,6.8-7.4,10.6
		c-6.1,12.1-6.5,25.1-4.7,38.1c3.6,25.8,15.5,48.2,29.3,69.8c4,6.2,9.5,11.8,8.2,20.4c-0.3,1.7,2,4,3.4,5.7c2.1,2.5,4.7,4.6,6.7,7.1
		c3.8,4.8,9.4,5.6,13,1.5c10.5-11.9,13.3-34.2,6.3-48.1c-2-3.9-3.5-7.9-6-13.6c3.3,0.7,5.3,1,7.4,1.5c-0.7-1.7-1.3-3.5-2.2-5.1
		c-3.3-5.9-6.9-11.6-10.2-17.6c-0.8-1.4-1.3-3.1-1.2-4.6c0.4-5.3,2.1-10.7,1.6-15.9c-0.5-5.8-2.6-11.5-4.2-17.3
		c-0.4-1.4-1.4-2.7-2.1-4c-1.2,1.1-2.6,2.1-3.4,3.4c-1.9,3.2-3.6,6.6-5.6,10.4c-2.9-3-7.2-5.7-3.7-8.6c4.4-3.6,6.9-7.6,7.9-12.9
		c1.1-6.4,3.8-13.2,2.5-19.1c-2.1-9.8-1.3-10.6,6.6-16.5c14.9-11.1,23.3-25.5,23.7-44.3c0.1-6.1,0.7-12.3-0.2-18.3
		c-2.5-16.6-6.4-32.3-20.8-43.8c-9.6-7.6-20-14.9-25.9-26.3C97.4,437.5,95.4,435.5,93.5,433z M358.3,730.9c-0.8,0-1.5-0.1-2.3-0.1
		c-2.3,5.8-5.4,11.3-6.6,17.3c-3.4,16.2,0.1,31.7,6.4,46.7c3.2,7.7,7,15.5,8.7,23.6c5.2,24.5,1.8,48.5-6.3,72
		c-2.8,8.3-5.3,16.8-9.3,24.5c-5.6,10.6-12.1,20.3-11.3,33.2c0.6,9.9,3.9,14.8,13.1,15.1c18.1,0.5,39.6-17.6,41.7-35.4
		c1.1-10.1,1.5-20.2,2.2-30.3c0.1-2.1,0.1-4.3-0.4-6.3c-3-12.4-6.1-24.8-9.2-37.2c-3.3-13.1-6.9-26-9.7-39.2c-1.9-9-2.3-18.3-4-27.4
		c-2.4-12.9-5.4-25.7-8.2-38.6C361.6,742.7,359.9,736.8,358.3,730.9z M308.2,917.2c2.4-2.6,4.2-4.1,5.3-6
		c5.3-8.6,10.7-17.2,15.5-26.1c9-16.2,18.4-32.1,17.6-52c-0.5-13.2-1.8-26-6.9-38.3c-2.1-5.1-7-6-10.7-8.6c-1.2-0.8-4.3,1.1-6.5,1.8
		c-12.9,4.4-19.1,14.7-21.4,27.1c-2.2,11.7,0.1,23.2,3.5,34.7c2.6,8.7,3,18.2,3.4,27.4C308.6,890.1,308.2,902.8,308.2,917.2z
		 M185.8,877.8c2.3-3.6,4.8-7.2,7-11c6.4-10.6,13.6-20.9,12.4-34.2c-0.1-1,0.4-2,0.8-3c3.8-10.3-1.1-30.7-9.2-38.1
		c-1.1-1-2.5-1.9-4-2.5c-9.6-4.3-18.2-1.4-24.1,8.4c-6.4,10.7-9.9,22.2-8.5,34.9c0.8,7.1,2.1,13.7,7.7,18.8c2.4,2.2,4.1,5.2,5.9,7.9
		C177.7,865.1,181.6,871.2,185.8,877.8z M181.9,586.8c-0.3-2.3-0.3-4.9-1.1-7.1c-2.6-7.6-5.1-15.3-8.4-22.6c-1.6-3.6-4.8-9-7.6-9.1
		c-4.7-0.3-8.3,4.1-10.5,9c-2.9,6.5-6.2,12.9-9.8,19.1c-6.4,11-7.7,22.4-3.7,34.4c3.7,10.9,16.3,14.9,25.2,7.5
		C175.6,609.9,180.8,599.5,181.9,586.8z M125.4,800c-0.3,9,0.9,17.6,6.4,25c0.7,0.9,2.2,2.1,3,1.9c1-0.3,2-1.7,2.4-2.9
		c0.5-1.4,0.5-3.1,0.4-4.7c-0.3-11.6,3-22,8.8-31.9c4.8-8.3,11.3-16.3,13.5-25.3c3.6-15.1,4.9-30.9,0.5-46.3
		c-0.4-1.3-1.6-2.3-2.5-3.5c-1.2,0.9-2.9,1.5-3.4,2.7c-2.6,5.9-5,12-7.4,18c-4.3,10.7-8.3,21.6-13,32.1
		C128.9,776.3,124.8,787.5,125.4,800z M248.2,879.8c-0.6-0.1-1.2-0.3-1.8-0.4c-3.1,4.7-5.8,5.5-10.1,1.1c-1.9-1.9-7.5-2.4-10.1-1
		c-15,8.3-21.2,25.9-15.8,42c1.3,3.8,4.7,7.7,8.1,9.6c7.4,4.1,18.2-0.5,22.4-8.4c4.6-8.7,7.5-17.9,8.3-27.6
		C249.8,890,248.7,884.9,248.2,879.8z M427.2,909.1c0.6,0,1.3-0.1,1.9-0.1c1.1-1.9,2.6-3.6,3.2-5.6c5.2-17.4,3.4-34.2-4.6-50.5
		c-2.4-4.9-6.3-7.8-11.7-8.7c-2.6-0.4-4.3-0.3-5.3,3.2c-2,6.8,0.2,12.8,2.2,18.9c3,9.5,6.5,18.8,9.6,28.3
		C424.2,899.4,425.7,904.2,427.2,909.1z M272.5,729.5c0.6-0.2,1.2-0.4,1.8-0.6c0.6-1.6,1.4-3.1,1.7-4.8c2.2-12.1,4.3-24.1,6.3-36.2
		c0.3-1.7,0.3-3.5,0.4-5.2c0.3-5.3-3.3-7.4-7.5-8.8c-4.2-1.3-8.6-0.8-10.6,3.3c-2.3,4.6-3.9,9.7-5,14.8c-1.7,8.5,1.9,16.2,5.3,23.7
		C267.1,720.5,270,724.9,272.5,729.5z M282.8,835.9c-0.5,0-0.9,0.1-1.4,0.1c-0.6,1.7-1.8,3.4-1.7,5.1c0.3,6.4,0,13,1.7,19
		c3.8,13.4,6.5,27,6.2,40.8c-0.2,8.2-2.2,16.5-4.2,24.6c-1,4.1-3.6,7.7-5.5,11.6c13.6-16.4,21.6-34.5,17.2-56.2
		c-2.3-11.5-5-22.8-7.9-34.2C286.4,843,284.4,839.5,282.8,835.9z M166.8,647.5c-11.8,6.1-16.9,16.4-14.5,30
		c1.1,6.2,2.7,12.6,9.9,15.2C169.4,677.9,172.6,663.3,166.8,647.5z M83.4,947.3c-8.5-0.3-14.7-5.6-22-11
		C70.1,947.6,80.7,952.5,83.4,947.3z M168.4,942.1c-0.5-0.2-1-0.4-1.5-0.5c-4.6,3-2.7,8.3-4.2,12.3c0.6,0.2,1.3,0.4,1.9,0.6
		C165.8,950.4,167.1,946.2,168.4,942.1z M53.9,879.7c-0.7-0.1-1.5-0.2-2.2-0.2c-0.9,7-1.7,13.9-2.6,20.9c0.3,0,0.6,0.1,0.8,0.1
		C51.3,893.5,52.6,886.6,53.9,879.7z"/>
	<path class="st0" d="M0,558c1.5,7.2,3.1,14.4,4.6,21.6c4,19.7,13.1,37.3,21.9,55c11.1,22.5,22.7,44.7,32.8,67.6
		c8.7,19.8,14.9,40.6,15,62.5c0,8.5-1.5,17.1-2.4,25.6c-1.5,14-9.8,23.6-19.8,32.6c-7.5,6.7-14.5,14.1-21,21.7
		c-2.7,3.2-3.3,8-5.2,11.9c-4.5,9.1-9.2,18-13.8,27c-3.3,6.4-6.5,12.8-9.8,19.2C1.7,904,0.8,905,0,906.1c0-19.7,0-39.4,0-59.1
		c0.7-2,1.8-3.9,1.9-5.9c0.8-9.6,1.7-19.2,1.6-28.8c0-4.3-2.3-8.5-3.6-12.8c0-28.1,0-56.3,0-84.4c1.1-1.1,2.4-2.1,3.2-3.4
		c14.4-21.8,16.6-45.1,8.9-69.7c-2.1-6.8-5.3-13.6-5.9-20.6c-0.5-5.8-3.2-9.7-6.2-13.9C0,591,0,574.5,0,558z M24.9,827
		c0.3,0.5,0.7,0.9,1,1.4c2.6-1.5,6.4-2.4,7.7-4.6c4.5-7.9,7.4-16.6,12.1-24.3c7.2-11.6,11.1-24.3,13.1-37.5
		c1.6-10.4,1.2-20.8-1.8-31.2c-4.6-15.9-24.4-23.3-37.5-16.2C8.7,720.5,0.7,741.4,3.6,755c3.1,14.6,9.6,27.9,16.7,40.7
		c4.1,7.4,5.5,14.8,6.5,22.6C27.1,821,25.6,824.1,24.9,827z"/>
	<path class="st0" d="M0,490.5c6.8-1.3,8.6-7.3,10.9-12.4c4-9.1,7.3-18.5,10.9-27.8c0.2-0.4,0.8-0.6,2.2-1.8
		c0.5,2.7,1.5,4.8,1.1,6.6c-2.9,12.2-5.5,24.6-9.3,36.5c-3.3,10.3-8.1,20-12,30.1c-1.6,4.2-2.6,8.7-3.9,13.1C0,520,0,505.2,0,490.5z
		"/>
	<path class="st0" d="M500,851.3c-0.6-0.8-1.7-1.6-1.7-2.4c-0.8-11.8-1.8-23.5-2.1-35.3c-0.1-2.9,2.5-5.8,3.8-8.7
		C500,820.3,500,835.8,500,851.3z"/>
	<path class="st0" d="M158.6,308.1c1.5,2.5,2.8,4.7,4.1,6.9c3,5.1,6.1,10.2,8.8,15.5c0.9,1.8,0.8,4.1,1.2,6.2
		c-0.5,0.1-1,0.3-1.5,0.4c-0.6-0.5-1.5-0.8-1.9-1.5c-2.6-4.2-5.3-8.3-11-7.5c-6.1,0.9-9.8,4.9-12.5,10.2c-4.2,8.4-5.4,17.1-4,26.4
		c0.2,1.7-0.5,3.5-0.8,5.3c-0.6,0.1-1.1,0.2-1.7,0.3c-0.7-1.7-2-3.5-1.9-5.2c0.7-10.3-2.1-21.1,4.1-30.7c0.7-1.2,1.5-2.6,1.4-3.9
		C142.1,319.4,150.2,314.4,158.6,308.1z"/>
	<path class="st0" d="M416.4,647.5c0.9-6.7,1.6-12.5,2.5-18.3c1.2-7.9,2.2-15.8,3.6-23.7c0.9-4.9,3.6-8.4,10-10.8
		c-0.9,6.6-1.4,12.1-2.6,17.5c-1.7,8.1-1.1,16,1.2,23.8c0.6,2.2,3.4,3.8,5.3,5.5c3.9,3.5,8.1,6.6,11.7,10.4c1.5,1.5,1.7,4.2,2.8,7.2
		c-5.7-5.3-10.1-10.3-15.4-14C429.3,641,423.1,646.1,416.4,647.5z"/>
	<path class="st0" d="M146.7,110.8c-0.8-2.1-1.3-4.4-2.5-6.1c-3.2-4.7-5.9-10.1-10.2-13.6c-10.7-8.9-13.9-27.8-6-39.1
		c2.1-3,3.7-6.4,4.6-9.9c0.9-3.4,0.6-7.2,0.8-11.9c4.7,7.3,4.8,13.9,1.7,20.7c-3.9,8.4-4.9,16.9-0.2,25.2c1.6,2.9,3.5,5.8,5.8,8
		c6.4,6.2,6.3,14.4,7.7,22.2c0.2,1.4-0.5,2.9-0.8,4.3C147.5,110.7,147.1,110.8,146.7,110.8z"/>
	<path class="st0" d="M34,137c-8.6,31.6-14.2,63.3-4.6,95.9c-4.3,2.7-7,0.9-8.1-3.6c-1.7-7.1-3-14.3-4.4-21.5
		c-0.7-3.7-1.5-7.5-1.8-11.2c-0.2-2.2,0.3-4.5,0.8-6.7c2.5-10.2,4.9-20.3,7.7-30.4c0.5-1.9,3.2-3.1,4-5c1.4-3.4,2.1-7,3.1-10.6
		c0.7-2.3,1.3-4.7,2-7C33.2,136.9,33.6,136.9,34,137z"/>
	<path class="st0" d="M411.8,190.5c3,17.7-2.5,46-22.9,53.9c0.7-3.3,0.5-6.3,1.9-8c9.4-11.9,15.4-25.4,19.8-39.8
		C411.1,195.1,411.2,193.5,411.8,190.5z"/>
	<path class="st0" d="M159.6,382.8c-1.7-0.9-3.2-1.7-5.4-2.9c5.2-7.6,10.2-14.9,15.3-22.3c0.3,0.2,0.8,0.5,0.8,0.6
		c-2.8,11.8-2.2,24.2-8.9,35.3c-3.8,6.3-5.2,14.1-7.7,21.2c-0.8,2.3-1.5,4.6-2.8,6.8C150.9,408.1,156.3,396,159.6,382.8z"/>
	<path class="st0" d="M449.1,68c-1.2,1-2.1,1.8-3.2,2.7c1.4,2.7,2.7,5.3,4.6,9c-7.4-5.9-14-10.7-20.1-16c-1.7-1.5-2.2-4.5-3-6.9
		c-1.5-4.4-3.1-8.8-4-13.4c-0.4-2,0.7-4.4,1.9-6.6C429.3,50.2,439.1,58.8,449.1,68z"/>
	<path class="st0" d="M402.1,470.5c2.6-0.5,5.9-1.2,10.1-2.1c-2.3,10.2,2,20.7-3.7,30.3c-4.2-3-7.4-12.4-6.6-16.8
		C402.6,478.6,402.1,475,402.1,470.5z"/>
	<path class="st0" d="M392.4,250.5c-12.1,3.8-18,12.2-21.1,24.3c-1.5-8.8,4.1-21.9,10.2-25.9C385.4,246.3,386.8,246.5,392.4,250.5z"
		/>
	<path class="st0" d="M450.1,308c-5.3-2.7-6.5,1.7-9,3.9c-1.1,1-2.7,1.3-4,1.9c0.3-1.5-0.1-3.8,0.8-4.5c4.1-3.2,8.4-6.1,12.9-8.8
		c0.7-0.4,2.7,0.4,3.6,1.3c0.6,0.6,1,2.7,0.5,3.1C453.4,306.2,451.5,307.1,450.1,308z"/>
	<path class="st0" d="M458.5,478.4c-0.8-9.4-1.7-18.8-2.5-28.2C460,453.7,461.7,468,458.5,478.4z"/>
	<path class="st0" d="M367,296.7c7.4,1.5,15,11.6,16.6,21.8C377.9,311.2,372.6,304.2,367,296.7z"/>
	<path class="st0" d="M346.9,68.5c-1.3,1.4-2.9,3.1-4.4,4.7c-0.6-0.1-1.1-0.2-1.7-0.3c-0.6-5.1-1.1-10.2-1.7-15.2
		c0.4-0.1,0.7-0.1,1.1-0.2C342.2,60.8,344.2,64.2,346.9,68.5z"/>
	<path class="st0" d="M448.6,552.4c-1.1,5.3-2.3,10.6-3.4,16c-0.8-0.2-1.5-0.3-2.3-0.5c1.2-5.3,2.4-10.6,3.6-15.8
		C447.3,552.1,448,552.2,448.6,552.4z"/>
	<path class="st0" d="M213.3,771.4c6,10.5,11.9,20.7,18.4,32c1.1-2.1,2.2-3.2,2.2-4.3c-0.6-10.1-1.3-20.1-2.3-30.2
		c-0.1-0.9-2.3-2.6-3.2-2.4C223.4,767.9,218.4,769.7,213.3,771.4z"/>
	<path class="st0" d="M213.3,771.4c5-1.6,10-3.4,15.1-4.8c0.8-0.2,3.1,1.4,3.2,2.4c1,10,1.7,20.1,2.3,30.2c0.1,1.1-1.1,2.2-2.2,4.3
		C225.3,792.1,219.4,781.8,213.3,771.4z"/>
	<path class="st0" d="M104.5,628.9c2.5,7.7-0.5,14.1-1.8,20.9C96.9,647.3,97.9,634.3,104.5,628.9z"/>
	<path class="st0" d="M197.1,824.9c-3.1,0.3-5.4,0.6-8.1,0.9c-1-3.8-1.1-7.4,3.1-8C196.7,817.1,196,821.4,197.1,824.9z"/>
</g>
<g>
	<path class="st0" d="M484.8,957.8c7.1,14.3,17.9,24.3,33.7,27.7c9.1,2,18.5,3.3,26.3-4.3c5.3-5.3,5.8-11.3,0.4-16.5
		c-9.4-9-16-19.8-21-31.6c-5.4-12.9-4.7-26.3-1.1-39.4c6.5-23.8,18.5-44.9,32.9-64.9c8.6-11.9,17.2-24.1,20.2-39
		c2.7-13.2,0.1-26.2-1.7-39.3c-0.2-1.4-0.8-2.9-0.5-4.1c4.3-15.8-4.2-28.1-10.8-40.9c-4.3-8.2-8.8-16.4-12.6-24.8
		c-8.2-18.1-10.4-37.6-13.1-57c-1.8-12.8-3-25.7-5.5-38.4c-1.1-5.4-4.3-10.7-7.4-15.4c-6.1-9.3-4.5-19.3-2.9-29
		c1.8-11.2,4.6-22.3,7.7-33.3c4.6-15.9,5.7-31.8,0.9-47c2.4-1.4,4.4-2.5,7-4c3.2,6.4,3.8,13.8,4.4,21.1c1.3,15.9-3.5,30.5-9.7,44.8
		c-1.7,4-3.4,8.1-4.8,12.2c-4.7,14.3-2.3,27.1,8.6,37.7c8.4,8.2,20.1,8,28.1-0.5c7.3-7.7,10.8-17.2,11.8-27.6
		c1.3-13.7-1.5-27-5.3-40c-4.3-14.4-10.1-28.4-14.1-42.9c-4-14.2-3.7-28.5-0.3-43.2c2.2-9.5,6.7-19.4,2.5-29.6
		c-0.9-2.3-2.4-4.3-3.7-6.7c-6.9,4-8.2,10.5-10.7,16.1c-2.7,6-4.2,12.7-6.7,18.8c-1.1,2.7-3.4,4.9-5.2,7.3c-0.5-0.2-1-0.4-1.6-0.6
		c0.5-4,0.8-8.1,1.7-12.1c1.7-8.1,3.5-16.2,5.6-24.2c1-3.9,3.4-7.5,4-11.3c1.2-6.9,1.4-13.9,2.2-20.9c0.2-1.5,1.3-2.9,2-4.4
		c1.4,0.9,3.9,1.6,4.1,2.7c1.2,6.1,2.1,12.2,2.7,18.4c0.2,2-0.8,4-1.3,6.6c10.5-4.5,17.1-12.3,23.1-20.8
		c13-18.5,22.1-38.3,22.7-61.3c0.1-4-0.1-8.1-0.3-12.1c-0.2-3.8,0.1-8.2-6.1-7.4c-0.5,0.1-2.2-3-2-4.3c1-6.8,2.3-13.5,3.8-20.1
		c0.7-3.3,1.7-6.7,6.7-8.5c-1.2,7.6,3.1,13.4,2.1,20.7c-0.9,7,0.9,14.3,1.2,21.5c0.7,15.8-3.3,30.9-6.8,46.1
		c-3,12.9-7.5,25.5-6.8,39.2c0.4,8.2-1.8,16.4-1.9,24.6c-0.2,17.9,8.4,32.5,18.3,46.8c7.6,11.1,14.1,22.9,21.3,34.3
		c1.9,3,3.9,5.9,6.3,8.5c2.8,3.1,10.7,2.1,13.1-2.1c3.3-5.7,6.6-11.6,8.4-17.9c2-6.8,2.8-14,3.2-21c0.6-12.8,4.3-24.5,11.4-35.1
		c7.6-11.2,11.1-23.8,12.7-37c2.8-22,0.3-43.2-10.8-62.8c-2.9-5.1-7.1-9.6-11-14c-3-3.4-5-6.7-5.5-11.5c-1-9.2-3.6-18.3-4.3-27.6
		c-0.8-11.2-0.6-22.6,0-33.9c0.5-10.1,2.1-20.2,3.2-30.5c4.3,5.1,5.2,10.7,5.4,17.2c0.5,17.9-0.9,36,4.6,53.7
		c4.1,13.1,10.7,24.4,20.5,33.8c2.8,2.7,3.9,5.4,4,9.6c0.1,5,2.7,10,3.7,15.1c2.3,11.6,4.2,23.3,6.5,34.9c0.4,1.8,1.7,4,3.3,4.8
		c0.9,0.5,3.3-1.1,4.7-2.2c12.8-10.5,18.8-25,23.7-40.1c0.2-0.5,0.4-1,0.4-1.5c0.1-19.6,0.7-39.1-13-55.8c-4.3-5.2-5.8-12.9-8-19.7
		c-1.8-5.6-3.1-11.5-4-17.4c-0.5-3.4,0.8-7.1,0.7-10.6c-0.1-4.7-0.4-9.4-1.4-13.9c-5.5-22.7-1.4-43.5,10.9-63.3
		c11.9-19.2,12.7-40.2,7.5-61.6c-3.5-14.3-7.1-28.6-10.5-42.9c-0.5-2.2-0.3-4.7-0.4-7c0.5-0.2,1.1-0.4,1.6-0.6
		c1.2,2.1,2.7,4.1,3.4,6.4c3.9,12.9,8.3,25.8,11.2,38.9c3.4,15.4,5.6,31,8.1,46.6c0.3,1.7,0.6,3.9-0.2,5.1c-4.1,6.6-3.7,14.1-5,21.2
		c-1,5.4-3.1,10.8-5.7,15.6c-9.8,17.7-14.1,36.1-6.6,55.6c3.1,8.1,7.7,15.8,11.8,23.5c3.8,7.1,8.1,13.9,11.7,21
		c4.6,9.2,8.8,18.6,12.9,28.1c4.9,11.3,3.1,22.7,0.1,34c-5.8,21.5-11.4,43-1.3,64.8c4,8.6,8.6,16.9,12,25.7c2.3,6,4.3,12.5,4.5,18.8
		c0.4,17.7-1.9,35.1-10.7,50.9c-4.5,8-9.8,15.6-15.1,23.3c-5,7.3-5.6,17.5-1.2,24.9c-4.7-0.6-8.9-4.1-9.2-8.2
		c-1.6-18.8-0.6-36.9,11.9-52.5c3-3.8,5.6-8.1,8-12.4c7.8-14.4,5.1-35.1-5.9-46c-6.5-6.5-16.3-7.3-24-1.7
		c-10.3,7.3-15.2,18-18.6,29.7c-7.4,25.9,1.5,49.3,11.6,72.3c6.8,15.5,15.3,30.2,26.9,42.6c6.5,7,8.6,15.8,13,23.6
		c2.3,4,5.1,7.8,7.5,11.8c1.2,1.9,2.5,3.9,3.1,6c4.1,14.3,7.8,28.7,11.9,43c6,20.7,5,41.2-0.5,61.8c-4.8,18.2-2.3,35.8,5.9,52.7
		c0.8,1.6,0.3,3.9,0,5.8c-1.4,7.7-3,15.3-4.5,23c-0.1,0.4,0.5,0.9,1.1,1.9c9.3-4.8,17.3-10.6,19.7-21.5c1.1-5.2,0.9-10.7,1.8-16
		c0.3-2,1.7-4.2,3.1-5.7c13-13.5,21-29.6,23.1-48c1.5-12.9,0.8-25.9-3.5-38.6c-2.3-7-3.6-14.3-6-21.2c-4.9-14.2-10.4-28.3-15.5-42.4
		c-3.2-8.9-10.9-12.2-18.7-15.5c-5.2-2.2-9.9-14.4-7.7-19.6c1.8-4.3,3.8-8.6,5.9-13.2c0.9,0.7,1.6,1.4,2.4,1.9
		c1.4,0.8,2.9,1.4,4.3,2.1c0.3-1.3,0.3-2.9,1-3.9c3.3-4.5,3.8-9.5,3.5-14.8c-0.6-8.8-1.7-17.5-2-26.2c-0.1-2.4,1.6-5.3,3.2-7.3
		c9.6-12.2,17.6-25.3,17.8-41.3c0.1-8.6-1.6-17.3-3.1-25.9c-1.7-10.2-5.3-19.6-12.1-27.6c-0.9-1.1-1.5-3-1.3-4.3
		c2.3-12.9-0.3-25.5-2.1-38.2c-1.8-13-2.2-26.1,0.8-38.8c2.3-10,5.8-19.9,13.7-27.4c5-4.8,8.1-10.6,10.5-17.3
		c3.4-9.5,8.7-18.3,14.5-27.3c-0.1,3.3-0.2,6.5-0.5,9.8c-1.7,26.3-8.8,51.4-15.5,76.7c-3.9,14.8-3.6,29.6,0.2,44.8
		c3.6,14.2,4.7,29.1,6.9,43.7c2.4,15.9,3.9,31.8,1.3,47.7c-1.2,7.4-4,14.5-5.3,21.9c-1.3,7.1-1.2,14.5-2.4,21.6
		c-1.5,9.2-3.4,18.3-5.7,27.3c-5.8,22.7-3.6,44.1,11,63c4.4,5.7,5.1,11.8,5,18c-0.1,4.6,1,8,3.7,11.5c2.7,3.6,4.5,7.9,7.5,11.3
		c4.3,5,10,4,12-2.4c3.4-11,8.2-22.2,8.5-33.4c0.2-9.4,4.5-14.5,10.1-19.8c25.5-24.1,41.7-53.7,51.2-87c6.4-22.3,6.3-45-3.2-66.6
		c-3.5-8.1-9.3-15.2-13.3-21.5c0-4.1,1.2-8.1-0.2-10.3c-7.3-11.8-9-24.9-10-38.2c-0.3-3.8-0.7-7.6-1.1-11.4c0.4-0.1,0.8-0.2,1.3-0.3
		c1.2,3.5,2.3,7,3.5,10.5c6.3,19.3,16.6,35.5,34.6,46.1c1.7,1,2.4,3.7,3.6,5.6c-1.8,0.9-3.6,2.3-5.5,2.5c-3.8,0.4-4.8,2-3.7,5.6
		c2.6,8.5,5.9,17,7.4,25.7c2.2,12.9,3.7,26.1,1,39.3c-0.6,3.1-0.5,6.3-0.9,9.4c-0.6,4.5-1.4,8.9-2.2,13.3c-0.7,4.1-1.5,8.2-2.2,12.3
		c-0.7,4.5,0,9.2-3.7,13.1c-1.9,2.1-2,5.7-3.1,8.6c-1.6,4.3-3.3,8.4-4.8,12.7c-1.3,3.7-2.2,7.6-3.6,11.2c-1.3,3.4-3.2,6.6-4.4,10
		c-2.4,6.4-4.4,12.8-6.9,19.2c-0.6,1.7-2,3.2-3.5,4.4c-9.3,7.9-18.6,16.2-23.2,27.5c-4.3,10.5-6.5,22-8.8,33.2
		c-4.3,21.4-0.7,42.2,5.5,62.7c4.5,15.1,3.6,30.4,2,45.9c-1.1,11.4,0.3,22.8,7.2,32.7c2.2,3.1,3.2,7,5.5,10.1
		c3.2,4.4,7.8,6.5,13.4,5.5c5.8-1,9.9-4.3,12-9.9c3.3-9,0.5-17.4-3.1-25.5c-6.9-15.6-15.9-30.6-20.9-46.8c-5.3-16.9-8.8-34.7-7-52.8
		c0.2-1.6,0.8-3.1,1.9-4.6c5.4,18.8,9.6,37.9,22.5,53.2c0.4-0.2,0.9-0.3,1.3-0.5c-2.6-8.6-5.2-17.3-7.8-25.9c0.5-0.2,1-0.4,1.5-0.6
		c0.8,1.2,2,2.3,2.3,3.7c2.1,8.5,4,17,6,25.5c0.2,0.6,0.4,1.4,0.8,1.8c9.2,9.1,18.5,18.1,27.8,27.2c4.2-3.5,4-6.7,2.6-10.2
		c-2.8-7.5-5.7-14.9-5.5-23.4c0.2-7.3,1.7-13.1,6.9-18.5c4.3-4.5,7.5-10,11-15.2c3.1-4.7,6.7-9.3,8.8-14.5
		c5.7-14.3,3.9-27.9-5.3-40.4c-0.9-1.2-2.1-2.5-3.4-3.1c-6.2-2.7-8.6-7.9-6.3-15.4c1.5,3.5,2.9,6.5,4.5,10.3c2.1-5.9-0.8-9.7-3-13.7
		c-1.3-2.4-3-4.9-3.5-7.5c-3.3-19.8-5.2-39.6-1.9-59.6c0.8-5.2,1.6-10.6,3.7-15.3c2.2-5.1,6-9.6,9-14.4c0.5,0.1,1,0.2,1.5,0.4
		c-0.1,1.7,0,3.4-0.3,5c-4,23.4-6.4,46.9-0.6,70.1c2.6,10.4,8,20.1,12.3,30.1c0.7,1.6,2.2,2.9,3.3,4.3c0.4-0.2,0.8-0.4,1.2-0.6
		c-1.2-4-2.4-8-3.5-12c-2.8-10.8-6.5-21.5-8.1-32.5c-1.5-10.5-1.5-21.4-0.9-32c0.4-9.2,3-18.3,3.6-27.5c0.2-3.6-3.1-7.3-3.4-11
		c-0.5-5.5-5.3-10.5-1.2-16.7c15.3-23.5,21-50,19.7-77.4c-0.8-16-5.7-31.7-8.7-47.6c-0.8-4.1-1.2-8.3-1.8-12.5
		c0.5-0.1,1.1-0.2,1.6-0.3c3.8,9.6,7.7,19.1,11.5,28.7c0,32.4,0,64.7,0,97.1c-1.8,5.3-4.6,10.4-5.1,15.8c-2.2,24.7-2.6,49.4,1.6,74
		c0.8,4.6,2.3,9.1,3.5,13.6c0,19,0,38,0,57c-2.2-0.3-4.5-1-6.6-0.6c-0.6,0.1-1.3,3.5-0.9,5.1c5.3,22.1-0.2,41.5-14.2,59
		c-4.8,6-9,12.3-9,20.2c0,2.8,1.1,7.1,3.1,8.2c2.3,1.3,6.8,0.9,9.2-0.6c3.5-2.1,6.6-5.4,8.7-8.9c3.7-6.1,6.5-12.8,9.7-19.2
		c0,10.5,0,21.1,0,31.6c-1.7,1.5-3.6,2.9-5,4.6c-10.4,12.2-16.4,26.3-19.6,42c-2.9,14.3-3.1,28.5,1.3,42.2c6,18.8,11.7,37.5,10,57.6
		c-0.1,0.8,0.7,1.7,1.1,2.5c0.5,0.1,1,0.2,1.5,0.3c3.6-8.2,7.2-16.5,10.8-24.7c0,22.2,0,44.3,0,66.5c-0.9-1.8-2-3.6-2.6-5.5
		c-2.8-8.9-5.5-17.9-8.4-26.8c-0.4-1.3-2-2.2-3.2-3.5c-0.8,1.2-1.2,1.6-1.3,2c-4.1,13.9-8.3,27.8-12.4,41.7c-1,3.4-2.5,6.9-2.5,10.3
		c0,6.6,3.9,11.5,8.6,15.6c4.2,3.7,9.5,4.1,14.1,0.8c3-2.2,5.2-5.5,7.7-8.3c0,13.4,0,26.7,0,40.1c-20.4,0-40.8,0-61.2,0
		c-1-6-1.8-12.1-3.3-18c-0.4-1.5-2.8-2.4-4.3-3.6c-0.9,1.5-2.6,2.9-2.6,4.4c0,5.7,0.4,11.5,0.7,17.2c-44,0-87.9,0-131.9,0
		c0.1-14.7,0.3-29.3,0.3-44c0-3-0.5-6-0.8-9c-12.5,9.3-18.4,21.3-17.7,35.9c0.3,5.7,2.9,11.3,4.5,17c-15.5,0-30.9,0-46.4,0
		c6-15.2,12-30.3,18.1-45.7c-3.7-1.6-6.7-2-7,3.6c0,1-0.5,2-1.1,2.8c-8.6,11.7-14.3,24.4-14.3,39.2c-42.5,0-85.1,0-127.6,0
		c-1.3-5.3,2.2-12.3-5.9-16.8c-2.8,6-5.3,11.4-7.8,16.8c-30.5,0-60.9,0-91.8,0C484.8,985.9,484.8,971.9,484.8,957.8z M586.4,924.3
		c9-6.5,14.1-16,18.2-25.9c6.3-15,3.7-30.3-0.2-45.4c-0.8-3-2.8-5.8-4.5-8.6c-1.3-2.1-3.4-3.9-4.4-6.1c-2.2-5.3-3.8-10.8-6-16.1
		c-1.6-3.8-4.7-3.6-6.9-0.7c-4.2,5.5-8.7,11-11.9,17.1c-5.6,10.8-10.6,22-15.2,33.4c-1.8,4.3-3.1,9.6-2.3,14.1
		c2.7,14.9,12.2,24.6,28.5,23.6c2.2-0.1,4.6,2.1,6.8,3.3c-2,1.6-4,3.3-6,4.8c-1.9,1.4-3.9,2.6-5.8,3.9c0.3,0.6,0.5,1.1,0.8,1.7
		c1.6-0.1,3.2-0.5,4.8-0.4C583.7,923.2,585.1,923.9,586.4,924.3c-1.6,0.5-3.2,0.9-4.9,1.3c-5.1,1.4-10.2,4.2-14.6,0.1
		c0-2.5-0.4-4.8-1.5-6.7c-1.3-2-3.2-3.7-5-5.3c-4.9-4.3-8.4-10.6-16-11.4c-0.6,11.2,5.5,22,15.6,26.8
		C569.8,933.9,578.3,929.9,586.4,924.3z M706.2,840.9c6.4-3.8,13-5.9,16.9-10.4c5.4-6.2,9.4-13.9,12.8-21.5c3.1-6.9,4.8-14.6,7-21.9
		c4.9-15.8,5.4-31.7,1.1-47.8c-3-11.3-6.7-22.6-9-34.1c-4.1-20-1.7-39.8,4.8-59c1.8-5.3,5.5-10.3,5.9-15.7c0.6-7-0.2-14.5-2.2-21.2
		c-3.5-11.9-12.3-21.6-13.2-35.1c-0.6-8.3-5.6-16.4-8.9-24.5c-6.3-15.6-13-31.1-19.2-46.7c-4.9-12.4-9.9-24.7-10.9-38.3
		c-0.5-5.9-2.4-11.7-3.7-17.5c-0.6-0.1-1.2-0.2-1.8-0.2c-2.2,5.8-5.1,11.4-6.5,17.4c-5.2,22.3-3.5,44.4,4.2,66.2
		c-7.7-4.1-7.6-12.4-11.4-18.5c-3.8-6.1-6.5-13.1-12.7-17.5c-4.2,8-4,18.4-3.3,26.4c1.5,17,10.1,31.6,15.5,47.3
		c3.3,9.5,5.7,19.5,2,29.3c-3.2,8.5-7.8,16.4-12,24.5c-3.5,6.8-7.2,13.4-11.5,21.4c3.3-0.5,6.1-0.4,8.4-1.3
		c20.1-8.2,32.7-29,31.2-50.9c-0.3-4-0.4-8.1-0.1-12.1c0.1-1.7,1.6-3.4,2.5-5.1c1.5,1.2,3.8,2,4.4,3.5c2,4.9,4.3,9.9,4.8,15
		c1.6,16.7,12.1,28.7,21,41.6c2.2,3.2,3.6,7,5.4,10.5c-0.5,0.2-0.9,0.4-1.4,0.7c-2.3-3-4.4-6.2-6.8-9.1c-6.8-7.9-16.8-6.7-20.5,2.9
		c-1.9,5-2,10.9-2.2,16.4c-0.2,4.6-0.7,5.3-5.1,4.1c-1.4-0.4-3.6-0.4-4.6,0.4c-10.7,9.7-18.4,21.5-21.3,35.6
		c-5.1,24.8,2.3,47.4,14.8,68.6c5.5,9.4,11.6,18.3,17.1,27.7c6.1,10.4,8.1,21.9,7.8,33.9C705.3,830.6,705.9,835.3,706.2,840.9z
		 M578.4,433c-0.8,0.9-1.4,1.3-1.7,1.9c-0.6,1.1-1.1,2.2-1.4,3.4c-5,16.5-3.9,32.9,0.9,49.3c0.7,2.5,0.9,5.1,1.4,7.7
		c1.1,5.8,1.8,11.8,3.6,17.3c4.6,13.8,6,27.9,2.1,41.8c-3.4,12.5-10.4,23.2-18.9,33c-2.8,3.3-5.4,6.8-7.4,10.6
		c-6.1,12.1-6.5,25.1-4.7,38.1c3.6,25.8,15.5,48.2,29.3,69.8c4,6.2,9.5,11.8,8.2,20.4c-0.3,1.7,2,4,3.4,5.7c2.1,2.5,4.7,4.6,6.7,7.1
		c3.8,4.8,9.4,5.6,13,1.5c10.5-11.9,13.3-34.2,6.3-48.1c-2-3.9-3.5-7.9-6-13.6c3.3,0.7,5.3,1,7.4,1.5c-0.7-1.7-1.3-3.5-2.2-5.1
		c-3.3-5.9-6.9-11.6-10.2-17.6c-0.8-1.4-1.3-3.1-1.2-4.6c0.4-5.3,2.1-10.7,1.6-15.9c-0.5-5.8-2.6-11.5-4.2-17.3
		c-0.4-1.4-1.4-2.7-2.1-4c-1.2,1.1-2.6,2.1-3.4,3.4c-1.9,3.2-3.6,6.6-5.6,10.4c-2.9-3-7.2-5.7-3.7-8.6c4.4-3.6,6.9-7.6,7.9-12.9
		c1.1-6.4,3.8-13.2,2.5-19.1c-2.1-9.8-1.3-10.6,6.6-16.5c14.9-11.1,23.3-25.5,23.7-44.3c0.1-6.1,0.7-12.3-0.2-18.3
		c-2.5-16.6-6.4-32.3-20.8-43.8c-9.6-7.6-20-14.9-25.9-26.3C582.2,437.5,580.2,435.5,578.4,433z M843.1,730.9
		c-0.8,0-1.5-0.1-2.3-0.1c-2.3,5.8-5.4,11.3-6.6,17.3c-3.4,16.2,0.1,31.7,6.4,46.7c3.2,7.7,7,15.5,8.7,23.6
		c5.2,24.5,1.8,48.5-6.3,72c-2.8,8.3-5.3,16.8-9.3,24.5c-5.6,10.6-12.1,20.3-11.3,33.2c0.6,9.9,3.9,14.8,13.1,15.1
		c18.1,0.5,39.6-17.6,41.7-35.4c1.1-10.1,1.5-20.2,2.2-30.3c0.1-2.1,0.1-4.3-0.4-6.3c-3-12.4-6.1-24.8-9.2-37.2
		c-3.3-13.1-6.9-26-9.7-39.2c-1.9-9-2.3-18.3-4-27.4c-2.4-12.9-5.4-25.7-8.2-38.6C846.5,742.7,844.7,736.8,843.1,730.9z M793,917.2
		c2.4-2.6,4.2-4.1,5.3-6c5.3-8.6,10.7-17.2,15.5-26.1c9-16.2,18.4-32.1,17.6-52c-0.5-13.2-1.8-26-6.9-38.3c-2.1-5.1-7-6-10.7-8.6
		c-1.2-0.8-4.3,1.1-6.5,1.8c-12.9,4.4-19.1,14.7-21.4,27.1c-2.2,11.7,0.1,23.2,3.5,34.7c2.6,8.7,3,18.2,3.4,27.4
		C793.4,890.1,793,902.8,793,917.2z M670.6,877.8c2.3-3.6,4.8-7.2,7-11c6.4-10.6,13.6-20.9,12.4-34.2c-0.1-1,0.4-2,0.8-3
		c3.8-10.3-1.1-30.7-9.2-38.1c-1.1-1-2.5-1.9-4-2.5c-9.6-4.3-18.2-1.4-24.1,8.4c-6.4,10.7-9.9,22.2-8.5,34.9
		c0.8,7.1,2.1,13.7,7.7,18.8c2.4,2.2,4.1,5.2,5.9,7.9C662.6,865.1,666.4,871.2,670.6,877.8z M666.7,586.8c-0.3-2.3-0.3-4.9-1.1-7.1
		c-2.6-7.6-5.1-15.3-8.4-22.6c-1.6-3.6-4.8-9-7.6-9.1c-4.7-0.3-8.3,4.1-10.5,9c-2.9,6.5-6.2,12.9-9.8,19.1
		c-6.4,11-7.7,22.4-3.7,34.4c3.7,10.9,16.3,14.9,25.2,7.5C660.4,609.9,665.6,599.5,666.7,586.8z M610.2,800c-0.3,9,0.9,17.6,6.4,25
		c0.7,0.9,2.2,2.1,3,1.9c1-0.3,2-1.7,2.4-2.9c0.5-1.4,0.5-3.1,0.4-4.7c-0.3-11.6,3-22,8.8-31.9c4.8-8.3,11.3-16.3,13.5-25.3
		c3.6-15.1,4.9-30.9,0.5-46.3c-0.4-1.3-1.6-2.3-2.5-3.5c-1.2,0.9-2.9,1.5-3.4,2.7c-2.6,5.9-5,12-7.4,18c-4.3,10.7-8.3,21.6-13,32.1
		C613.7,776.3,609.7,787.5,610.2,800z M733,879.8c-0.6-0.1-1.2-0.3-1.8-0.4c-3.1,4.7-5.8,5.5-10.1,1.1c-1.9-1.9-7.5-2.4-10.1-1
		c-15,8.3-21.2,25.9-15.8,42c1.3,3.8,4.7,7.7,8.1,9.6c7.4,4.1,18.2-0.5,22.4-8.4c4.6-8.7,7.5-17.9,8.3-27.6
		C734.6,890,733.5,884.9,733,879.8z M912.1,909.1c0.6,0,1.3-0.1,1.9-0.1c1.1-1.9,2.6-3.6,3.2-5.6c5.2-17.4,3.4-34.2-4.6-50.5
		c-2.4-4.9-6.3-7.8-11.7-8.7c-2.6-0.4-4.3-0.3-5.3,3.2c-2,6.8,0.2,12.8,2.2,18.9c3,9.5,6.5,18.8,9.6,28.3
		C909,899.4,910.5,904.2,912.1,909.1z M757.3,729.5c0.6-0.2,1.2-0.4,1.8-0.6c0.6-1.6,1.4-3.1,1.7-4.8c2.2-12.1,4.3-24.1,6.3-36.2
		c0.3-1.7,0.3-3.5,0.4-5.2c0.3-5.3-3.3-7.4-7.5-8.8c-4.2-1.3-8.6-0.8-10.6,3.3c-2.3,4.6-3.9,9.7-5,14.8c-1.7,8.5,1.9,16.2,5.3,23.7
		C751.9,720.5,754.8,724.9,757.3,729.5z M767.6,835.9c-0.5,0-0.9,0.1-1.4,0.1c-0.6,1.7-1.8,3.4-1.7,5.1c0.3,6.4,0,13,1.7,19
		c3.8,13.4,6.5,27,6.2,40.8c-0.2,8.2-2.2,16.5-4.2,24.6c-1,4.1-3.6,7.7-5.5,11.6c13.6-16.4,21.6-34.5,17.2-56.2
		c-2.3-11.5-5-22.8-7.9-34.2C771.2,843,769.2,839.5,767.6,835.9z M651.6,647.5c-11.8,6.1-16.9,16.4-14.5,30
		c1.1,6.2,2.7,12.6,9.9,15.2C654.2,677.9,657.4,663.3,651.6,647.5z M568.2,947.3c-8.5-0.3-14.7-5.6-22-11
		C554.9,947.6,565.5,952.5,568.2,947.3z M653.2,942.1c-0.5-0.2-1-0.4-1.5-0.5c-4.6,3-2.7,8.3-4.2,12.3c0.6,0.2,1.3,0.4,1.9,0.6
		C650.7,950.4,651.9,946.2,653.2,942.1z M538.7,879.7c-0.7-0.1-1.5-0.2-2.2-0.2c-0.9,7-1.7,13.9-2.6,20.9c0.3,0,0.6,0.1,0.8,0.1
		C536.1,893.5,537.4,886.6,538.7,879.7z"/>
	<path class="st0" d="M484.8,558c1.5,7.2,3.1,14.4,4.6,21.6c4,19.7,13.1,37.3,21.9,55c11.1,22.5,22.7,44.7,32.8,67.6
		c8.7,19.8,14.9,40.6,15,62.5c0,8.5-1.5,17.1-2.4,25.6c-1.5,14-9.8,23.6-19.8,32.6c-7.5,6.7-14.5,14.1-21,21.7
		c-2.7,3.2-3.3,8-5.2,11.9c-4.5,9.1-9.2,18-13.8,27c-3.3,6.4-6.5,12.8-9.8,19.2c-0.6,1.2-1.5,2.2-2.3,3.4c0-19.7,0-39.4,0-59.1
		c0.7-2,1.8-3.9,1.9-5.9c0.8-9.6,1.7-19.2,1.6-28.8c0-4.3-2.3-8.5-3.6-12.8c0-28.1,0-56.3,0-84.4c1.1-1.1,2.4-2.1,3.2-3.4
		c14.4-21.8,16.6-45.1,8.9-69.7c-2.1-6.8-5.3-13.6-5.9-20.6c-0.5-5.8-3.2-9.7-6.2-13.9C484.8,591,484.8,574.5,484.8,558z M509.7,827
		c0.3,0.5,0.7,0.9,1,1.4c2.6-1.5,6.4-2.4,7.7-4.6c4.5-7.9,7.4-16.6,12.1-24.3c7.2-11.6,11.1-24.3,13.1-37.5
		c1.6-10.4,1.2-20.8-1.8-31.2c-4.6-15.9-24.4-23.3-37.5-16.2c-10.9,5.9-18.8,26.9-15.9,40.4c3.1,14.6,9.6,27.9,16.7,40.7
		c4.1,7.4,5.5,14.8,6.5,22.6C512,821,510.4,824.1,509.7,827z"/>
	<path class="st0" d="M484.8,490.5c6.8-1.3,8.6-7.3,10.9-12.4c4-9.1,7.3-18.5,10.9-27.8c0.2-0.4,0.8-0.6,2.2-1.8
		c0.5,2.7,1.5,4.8,1.1,6.6c-2.9,12.2-5.5,24.6-9.3,36.5c-3.3,10.3-8.1,20-12,30.1c-1.6,4.2-2.6,8.7-3.9,13.1
		C484.8,520,484.8,505.2,484.8,490.5z"/>
	<path class="st0" d="M643.4,308.1c1.5,2.5,2.8,4.7,4.1,6.9c3,5.1,6.1,10.2,8.8,15.5c0.9,1.8,0.8,4.1,1.2,6.2
		c-0.5,0.1-1,0.3-1.5,0.4c-0.6-0.5-1.5-0.8-1.9-1.5c-2.6-4.2-5.3-8.3-11-7.5c-6.1,0.9-9.8,4.9-12.5,10.2c-4.2,8.4-5.4,17.1-4,26.4
		c0.2,1.7-0.5,3.5-0.8,5.3c-0.6,0.1-1.1,0.2-1.7,0.3c-0.7-1.7-2-3.5-1.9-5.2c0.7-10.3-2.1-21.1,4.1-30.7c0.7-1.2,1.5-2.6,1.4-3.9
		C626.9,319.4,635.1,314.4,643.4,308.1z"/>
	<path class="st0" d="M901.2,647.5c0.9-6.7,1.6-12.5,2.5-18.3c1.2-7.9,2.2-15.8,3.6-23.7c0.9-4.9,3.6-8.4,10-10.8
		c-0.9,6.6-1.4,12.1-2.6,17.5c-1.7,8.1-1.1,16,1.2,23.8c0.6,2.2,3.4,3.8,5.3,5.5c3.9,3.5,8.1,6.6,11.7,10.4c1.5,1.5,1.7,4.2,2.8,7.2
		c-5.7-5.3-10.1-10.3-15.4-14C914.1,641,907.9,646.1,901.2,647.5z"/>
	<path class="st0" d="M631.5,110.8c-0.8-2.1-1.3-4.4-2.5-6.1c-3.2-4.7-5.9-10.1-10.2-13.6c-10.7-8.9-13.9-27.8-6-39.1
		c2.1-3,3.7-6.4,4.6-9.9c0.9-3.4,0.6-7.2,0.8-11.9c4.7,7.3,4.8,13.9,1.7,20.7c-3.9,8.4-4.9,16.9-0.2,25.2c1.6,2.9,3.5,5.8,5.8,8
		c6.4,6.2,6.3,14.4,7.7,22.2c0.2,1.4-0.5,2.9-0.8,4.3C632.3,110.7,631.9,110.8,631.5,110.8z"/>
	<path class="st0" d="M518.8,137c-8.6,31.6-14.2,63.3-4.6,95.9c-4.3,2.7-7,0.9-8.1-3.6c-1.7-7.1-3-14.3-4.4-21.5
		c-0.7-3.7-1.5-7.5-1.8-11.2c-0.2-2.2,0.3-4.5,0.8-6.7c2.5-10.2,4.9-20.3,7.7-30.4c0.5-1.9,3.2-3.1,4-5c1.4-3.4,2.1-7,3.1-10.6
		c0.7-2.3,1.3-4.7,2-7C518,136.9,518.4,136.9,518.8,137z"/>
	<path class="st0" d="M896.6,190.5c3,17.7-2.5,46-22.9,53.9c0.7-3.3,0.5-6.3,1.9-8c9.4-11.9,15.4-25.4,19.8-39.8
		C895.9,195.1,896,193.5,896.6,190.5z"/>
	<path class="st0" d="M644.4,382.8c-1.7-0.9-3.2-1.7-5.4-2.9c5.2-7.6,10.2-14.9,15.3-22.3c0.3,0.2,0.8,0.5,0.8,0.6
		c-2.8,11.8-2.2,24.2-8.9,35.3c-3.8,6.3-5.2,14.1-7.7,21.2c-0.8,2.3-1.5,4.6-2.8,6.8C635.7,408.1,641.1,396,644.4,382.8z"/>
	<path class="st0" d="M933.9,68c-1.2,1-2.1,1.8-3.2,2.7c1.4,2.7,2.7,5.3,4.6,9c-7.4-5.9-14-10.7-20.1-16c-1.7-1.5-2.2-4.5-3-6.9
		c-1.5-4.4-3.1-8.8-4-13.4c-0.4-2,0.7-4.4,1.9-6.6C914.2,50.2,923.9,58.8,933.9,68z"/>
	<path class="st0" d="M886.9,470.5c2.6-0.5,5.9-1.2,10.1-2.1c-2.3,10.2,2,20.7-3.7,30.3c-4.2-3-7.4-12.4-6.6-16.8
		C887.4,478.6,886.9,475,886.9,470.5z"/>
	<path class="st0" d="M877.2,250.5c-12.1,3.8-18,12.2-21.1,24.3c-1.5-8.8,4.1-21.9,10.2-25.9C870.2,246.3,871.6,246.5,877.2,250.5z"
		/>
	<path class="st0" d="M934.9,308c-5.3-2.7-6.5,1.7-9,3.9c-1.1,1-2.7,1.3-4,1.9c0.3-1.5-0.1-3.8,0.8-4.5c4.1-3.2,8.4-6.1,12.9-8.8
		c0.7-0.4,2.7,0.4,3.6,1.3c0.6,0.6,1,2.7,0.5,3.1C938.2,306.2,936.3,307.1,934.9,308z"/>
	<path class="st0" d="M943.3,478.4c-0.8-9.4-1.7-18.8-2.5-28.2C944.8,453.7,946.5,468,943.3,478.4z"/>
	<path class="st0" d="M851.8,296.7c7.4,1.5,15,11.6,16.6,21.8C862.7,311.2,857.4,304.2,851.8,296.7z"/>
	<path class="st0" d="M831.7,68.5c-1.3,1.4-2.9,3.1-4.4,4.7c-0.6-0.1-1.1-0.2-1.7-0.3c-0.6-5.1-1.1-10.2-1.7-15.2
		c0.4-0.1,0.7-0.1,1.1-0.2C827,60.8,829,64.2,831.7,68.5z"/>
	<path class="st0" d="M933.5,552.4c-1.1,5.3-2.3,10.6-3.4,16c-0.8-0.2-1.5-0.3-2.3-0.5c1.2-5.3,2.4-10.6,3.6-15.8
		C932.1,552.1,932.8,552.2,933.5,552.4z"/>
	<path class="st0" d="M698.2,771.4c6,10.5,11.9,20.7,18.4,32c1.1-2.1,2.2-3.2,2.2-4.3c-0.6-10.1-1.3-20.1-2.3-30.2
		c-0.1-0.9-2.3-2.6-3.2-2.4C708.2,767.9,703.2,769.7,698.2,771.4z"/>
	<path class="st0" d="M698.2,771.4c5-1.6,10-3.4,15.1-4.8c0.8-0.2,3.1,1.4,3.2,2.4c1,10,1.7,20.1,2.3,30.2c0.1,1.1-1.1,2.2-2.2,4.3
		C710.1,792.1,704.2,781.8,698.2,771.4z"/>
	<path class="st0" d="M589.3,628.9c2.5,7.7-0.5,14.1-1.8,20.9C581.7,647.3,582.7,634.3,589.3,628.9z"/>
	<path class="st0" d="M681.9,824.9c-3.1,0.3-5.4,0.6-8.1,0.9c-1-3.8-1.1-7.4,3.1-8C681.5,817.1,680.8,821.4,681.9,824.9z"/>
</g>
<g>
	<path class="st0" d="M1499.8,957.8c7.1,14.3,17.9,24.3,33.7,27.7c9.1,2,18.5,3.3,26.3-4.3c5.3-5.3,5.8-11.3,0.4-16.5
		c-9.4-9-16-19.8-21-31.6c-5.4-12.9-4.7-26.3-1.1-39.4c6.5-23.8,18.5-44.9,32.9-64.9c8.6-11.9,17.2-24.1,20.2-39
		c2.7-13.2,0.1-26.2-1.7-39.3c-0.2-1.4-0.8-2.9-0.5-4.1c4.3-15.8-4.2-28.1-10.8-40.9c-4.3-8.2-8.8-16.4-12.6-24.8
		c-8.2-18.1-10.4-37.6-13.1-57c-1.8-12.8-3-25.7-5.5-38.4c-1.1-5.4-4.3-10.7-7.4-15.4c-6.1-9.3-4.5-19.3-2.9-29
		c1.8-11.2,4.6-22.3,7.7-33.3c4.6-15.9,5.7-31.8,0.9-47c2.4-1.4,4.4-2.5,7-4c3.2,6.4,3.8,13.8,4.4,21.1c1.3,15.9-3.5,30.5-9.7,44.8
		c-1.7,4-3.4,8.1-4.8,12.2c-4.7,14.3-2.3,27.1,8.6,37.7c8.4,8.2,20.1,8,28.1-0.5c7.3-7.7,10.8-17.2,11.8-27.6
		c1.3-13.7-1.5-27-5.3-40c-4.3-14.4-10.1-28.4-14.1-42.9c-4-14.2-3.7-28.5-0.3-43.2c2.2-9.5,6.7-19.4,2.5-29.6
		c-0.9-2.3-2.4-4.3-3.7-6.7c-6.9,4-8.2,10.5-10.7,16.1c-2.7,6-4.2,12.7-6.7,18.8c-1.1,2.7-3.4,4.9-5.2,7.3c-0.5-0.2-1-0.4-1.6-0.6
		c0.5-4,0.8-8.1,1.7-12.1c1.7-8.1,3.5-16.2,5.6-24.2c1-3.9,3.4-7.5,4-11.3c1.2-6.9,1.4-13.9,2.2-20.9c0.2-1.5,1.3-2.9,2-4.4
		c1.4,0.9,3.9,1.6,4.1,2.7c1.2,6.1,2.1,12.2,2.7,18.4c0.2,2-0.8,4-1.3,6.6c10.5-4.5,17.1-12.3,23.1-20.8
		c13-18.5,22.1-38.3,22.7-61.3c0.1-4-0.1-8.1-0.3-12.1c-0.2-3.8,0.1-8.2-6.1-7.4c-0.5,0.1-2.2-3-2-4.3c1-6.8,2.3-13.5,3.8-20.1
		c0.7-3.3,1.7-6.7,6.7-8.5c-1.2,7.6,3.1,13.4,2.1,20.7c-0.9,7,0.9,14.3,1.2,21.5c0.7,15.8-3.3,30.9-6.8,46.1
		c-3,12.9-7.5,25.5-6.8,39.2c0.4,8.2-1.8,16.4-1.9,24.6c-0.2,17.9,8.4,32.5,18.3,46.8c7.6,11.1,14.1,22.9,21.3,34.3
		c1.9,3,3.9,5.9,6.3,8.5c2.8,3.1,10.7,2.1,13.1-2.1c3.3-5.7,6.6-11.6,8.4-17.9c2-6.8,2.8-14,3.2-21c0.6-12.8,4.3-24.5,11.4-35.1
		c7.6-11.2,11.1-23.8,12.7-37c2.8-22,0.3-43.2-10.8-62.8c-2.9-5.1-7.1-9.6-11-14c-3-3.4-5-6.7-5.5-11.5c-1-9.2-3.6-18.3-4.3-27.6
		c-0.8-11.2-0.6-22.6,0-33.9c0.5-10.1,2.1-20.2,3.2-30.5c4.3,5.1,5.2,10.7,5.4,17.2c0.5,17.9-0.9,36,4.6,53.7
		c4.1,13.1,10.7,24.4,20.5,33.8c2.8,2.7,3.9,5.4,4,9.6c0.1,5,2.7,10,3.7,15.1c2.3,11.6,4.2,23.3,6.5,34.9c0.4,1.8,1.7,4,3.3,4.8
		c0.9,0.5,3.3-1.1,4.7-2.2c12.8-10.5,18.8-25,23.7-40.1c0.2-0.5,0.4-1,0.4-1.5c0.1-19.6,0.7-39.1-13-55.8c-4.3-5.2-5.8-12.9-8-19.7
		c-1.8-5.6-3.1-11.5-4-17.4c-0.5-3.4,0.8-7.1,0.7-10.6c-0.1-4.7-0.4-9.4-1.4-13.9c-5.5-22.7-1.4-43.5,10.9-63.3
		c11.9-19.2,12.7-40.2,7.5-61.6c-3.5-14.3-7.1-28.6-10.5-42.9c-0.5-2.2-0.3-4.7-0.4-7c0.5-0.2,1.1-0.4,1.6-0.6
		c1.2,2.1,2.7,4.1,3.4,6.4c3.9,12.9,8.3,25.8,11.2,38.9c3.4,15.4,5.6,31,8.1,46.6c0.3,1.7,0.6,3.9-0.2,5.1c-4.1,6.6-3.7,14.1-5,21.2
		c-1,5.4-3.1,10.8-5.7,15.6c-9.8,17.7-14.1,36.1-6.6,55.6c3.1,8.1,7.7,15.8,11.8,23.5c3.8,7.1,8.1,13.9,11.7,21
		c4.6,9.2,8.8,18.6,12.9,28.1c4.9,11.3,3.1,22.7,0.1,34c-5.8,21.5-11.4,43-1.3,64.8c4,8.6,8.6,16.9,12,25.7c2.3,6,4.3,12.5,4.5,18.8
		c0.4,17.7-1.9,35.1-10.7,50.9c-4.5,8-9.8,15.6-15.1,23.3c-5,7.3-5.6,17.5-1.2,24.9c-4.7-0.6-8.9-4.1-9.2-8.2
		c-1.6-18.8-0.6-36.9,11.9-52.5c3-3.8,5.6-8.1,8-12.4c7.8-14.4,5.1-35.1-5.9-46c-6.5-6.5-16.3-7.3-24-1.7
		c-10.3,7.3-15.2,18-18.6,29.7c-7.4,25.9,1.5,49.3,11.6,72.3c6.8,15.5,15.3,30.2,26.9,42.6c6.5,7,8.6,15.8,13,23.6
		c2.3,4,5.1,7.8,7.5,11.8c1.2,1.9,2.5,3.9,3.1,6c4.1,14.3,7.8,28.7,11.9,43c6,20.7,5,41.2-0.5,61.8c-4.8,18.2-2.3,35.8,5.9,52.7
		c0.8,1.6,0.3,3.9,0,5.8c-1.4,7.7-3,15.3-4.5,23c-0.1,0.4,0.5,0.9,1.1,1.9c9.3-4.8,17.3-10.6,19.7-21.5c1.1-5.2,0.9-10.7,1.8-16
		c0.3-2,1.7-4.2,3.1-5.7c13-13.5,21-29.6,23.1-48c1.5-12.9,0.8-25.9-3.5-38.6c-2.3-7-3.6-14.3-6-21.2c-4.9-14.2-10.4-28.3-15.5-42.4
		c-3.2-8.9-10.9-12.2-18.7-15.5c-5.2-2.2-9.9-14.4-7.7-19.6c1.8-4.3,3.8-8.6,5.9-13.2c0.9,0.7,1.6,1.4,2.4,1.9
		c1.4,0.8,2.9,1.4,4.3,2.1c0.3-1.3,0.3-2.9,1-3.9c3.3-4.5,3.8-9.5,3.5-14.8c-0.6-8.8-1.7-17.5-2-26.2c-0.1-2.4,1.6-5.3,3.2-7.3
		c9.6-12.2,17.6-25.3,17.8-41.3c0.1-8.6-1.6-17.3-3.1-25.9c-1.7-10.2-5.3-19.6-12.1-27.6c-0.9-1.1-1.5-3-1.3-4.3
		c2.3-12.9-0.3-25.5-2.1-38.2c-1.8-13-2.2-26.1,0.8-38.8c2.3-10,5.8-19.9,13.7-27.4c5-4.8,8.1-10.6,10.5-17.3
		c3.4-9.5,8.7-18.3,14.5-27.3c-0.1,3.3-0.2,6.5-0.5,9.8c-1.7,26.3-8.8,51.4-15.5,76.7c-3.9,14.8-3.6,29.6,0.2,44.8
		c3.6,14.2,4.7,29.1,6.9,43.7c2.4,15.9,3.9,31.8,1.3,47.7c-1.2,7.4-4,14.5-5.3,21.9c-1.3,7.1-1.2,14.5-2.4,21.6
		c-1.5,9.2-3.4,18.3-5.7,27.3c-5.8,22.7-3.6,44.1,11,63c4.4,5.7,5.1,11.8,5,18c-0.1,4.6,1,8,3.7,11.5c2.7,3.6,4.5,7.9,7.5,11.3
		c4.3,5,10,4,12-2.4c3.4-11,8.2-22.2,8.5-33.4c0.2-9.4,4.5-14.5,10.1-19.8c25.5-24.1,41.7-53.7,51.2-87c6.4-22.3,6.3-45-3.2-66.6
		c-3.5-8.1-9.3-15.2-13.3-21.5c0-4.1,1.2-8.1-0.2-10.3c-7.3-11.8-9-24.9-10-38.2c-0.3-3.8-0.7-7.6-1.1-11.4c0.4-0.1,0.8-0.2,1.3-0.3
		c1.2,3.5,2.3,7,3.5,10.5c6.3,19.3,16.6,35.5,34.6,46.1c1.7,1,2.4,3.7,3.6,5.6c-1.8,0.9-3.6,2.3-5.5,2.5c-3.8,0.4-4.8,2-3.7,5.6
		c2.6,8.5,5.9,17,7.4,25.7c2.2,12.9,3.7,26.1,1,39.3c-0.6,3.1-0.5,6.3-0.9,9.4c-0.6,4.5-1.4,8.9-2.2,13.3c-0.7,4.1-1.5,8.2-2.2,12.3
		c-0.7,4.5,0,9.2-3.7,13.1c-1.9,2.1-2,5.7-3.1,8.6c-1.6,4.3-3.3,8.4-4.8,12.7c-1.3,3.7-2.2,7.6-3.6,11.2c-1.3,3.4-3.2,6.6-4.4,10
		c-2.4,6.4-4.4,12.8-6.9,19.2c-0.6,1.7-2,3.2-3.5,4.4c-9.3,7.9-18.6,16.2-23.2,27.5c-4.3,10.5-6.5,22-8.8,33.2
		c-4.3,21.4-0.7,42.2,5.5,62.7c4.5,15.1,3.6,30.4,2,45.9c-1.1,11.4,0.3,22.8,7.2,32.7c2.2,3.1,3.2,7,5.5,10.1
		c3.2,4.4,7.8,6.5,13.4,5.5c5.8-1,9.9-4.3,12-9.9c3.3-9,0.5-17.4-3.1-25.5c-6.9-15.6-15.9-30.6-20.9-46.8c-5.3-16.9-8.8-34.7-7-52.8
		c0.2-1.6,0.8-3.1,1.9-4.6c5.4,18.8,9.6,37.9,22.5,53.2c0.4-0.2,0.9-0.3,1.3-0.5c-2.6-8.6-5.2-17.3-7.8-25.9c0.5-0.2,1-0.4,1.5-0.6
		c0.8,1.2,2,2.3,2.3,3.7c2.1,8.5,4,17,6,25.5c0.2,0.6,0.4,1.4,0.8,1.8c9.2,9.1,18.5,18.1,27.8,27.2c4.2-3.5,4-6.7,2.6-10.2
		c-2.8-7.5-5.7-14.9-5.5-23.4c0.2-7.3,1.7-13.1,6.9-18.5c4.3-4.5,7.5-10,11-15.2c3.1-4.7,6.7-9.3,8.8-14.5
		c5.7-14.3,3.9-27.9-5.3-40.4c-0.9-1.2-2.1-2.5-3.4-3.1c-6.2-2.7-8.6-7.9-6.3-15.4c1.5,3.5,2.9,6.5,4.5,10.3c2.1-5.9-0.8-9.7-3-13.7
		c-1.3-2.4-3-4.9-3.5-7.5c-3.3-19.8-5.2-39.6-1.9-59.6c0.8-5.2,1.6-10.6,3.7-15.3c2.2-5.1,6-9.6,9-14.4c0.5,0.1,1,0.2,1.5,0.4
		c-0.1,1.7,0,3.4-0.3,5c-4,23.4-6.4,46.9-0.6,70.1c2.6,10.4,8,20.1,12.3,30.1c0.7,1.6,2.2,2.9,3.3,4.3c0.4-0.2,0.8-0.4,1.2-0.6
		c-1.2-4-2.4-8-3.5-12c-2.8-10.8-6.5-21.5-8.1-32.5c-1.5-10.5-1.5-21.4-0.9-32c0.4-9.2,3-18.3,3.6-27.5c0.2-3.6-3.1-7.3-3.4-11
		c-0.5-5.5-5.3-10.5-1.2-16.7c15.3-23.5,21-50,19.7-77.4c-0.8-16-5.7-31.7-8.7-47.6c-0.8-4.1-1.2-8.3-1.8-12.5
		c0.5-0.1,1.1-0.2,1.6-0.3c3.8,9.6,7.7,19.1,11.5,28.7c0,32.4,0,64.7,0,97.1c-1.8,5.3-4.6,10.4-5.1,15.8c-2.2,24.7-2.6,49.4,1.6,74
		c0.8,4.6,2.3,9.1,3.5,13.6c0,19,0,38,0,57c-2.2-0.3-4.5-1-6.6-0.6c-0.6,0.1-1.3,3.5-0.9,5.1c5.3,22.1-0.2,41.5-14.2,59
		c-4.8,6-9,12.3-9,20.2c0,2.8,1.1,7.1,3.1,8.2c2.3,1.3,6.8,0.9,9.2-0.6c3.5-2.1,6.6-5.4,8.7-8.9c3.7-6.1,6.5-12.8,9.7-19.2
		c0,10.5,0,21.1,0,31.6c-1.7,1.5-3.6,2.9-5,4.6c-10.4,12.2-16.4,26.3-19.6,42c-2.9,14.3-3.1,28.5,1.3,42.2c6,18.8,11.7,37.5,10,57.6
		c-0.1,0.8,0.7,1.7,1.1,2.5c0.5,0.1,1,0.2,1.5,0.3c3.6-8.2,7.2-16.5,10.8-24.7c0,22.2,0,44.3,0,66.5c-0.9-1.8-2-3.6-2.6-5.5
		c-2.8-8.9-5.5-17.9-8.4-26.8c-0.4-1.3-2-2.2-3.2-3.5c-0.8,1.2-1.2,1.6-1.3,2c-4.1,13.9-8.3,27.8-12.4,41.7c-1,3.4-2.5,6.9-2.5,10.3
		c0,6.6,3.9,11.5,8.6,15.6c4.2,3.7,9.5,4.1,14.1,0.8c3-2.2,5.2-5.5,7.7-8.3c0,13.4,0,26.7,0,40.1c-20.4,0-40.8,0-61.2,0
		c-1-6-1.8-12.1-3.3-18c-0.4-1.5-2.8-2.4-4.3-3.6c-0.9,1.5-2.6,2.9-2.6,4.4c0,5.7,0.4,11.5,0.7,17.2c-44,0-87.9,0-131.9,0
		c0.1-14.7,0.3-29.3,0.3-44c0-3-0.5-6-0.8-9c-12.5,9.3-18.4,21.3-17.7,35.9c0.3,5.7,2.9,11.3,4.5,17c-15.5,0-30.9,0-46.4,0
		c6-15.2,12-30.3,18.1-45.7c-3.7-1.6-6.7-2-7,3.6c0,1-0.5,2-1.1,2.8c-8.6,11.7-14.3,24.4-14.3,39.2c-42.5,0-85.1,0-127.6,0
		c-1.3-5.3,2.2-12.3-5.9-16.8c-2.8,6-5.3,11.4-7.8,16.8c-30.5,0-60.9,0-91.8,0C1499.8,985.9,1499.8,971.9,1499.8,957.8z
		 M1601.4,924.3c9-6.5,14.1-16,18.2-25.9c6.3-15,3.7-30.3-0.2-45.4c-0.8-3-2.8-5.8-4.5-8.6c-1.3-2.1-3.4-3.9-4.4-6.1
		c-2.2-5.3-3.8-10.8-6-16.1c-1.6-3.8-4.7-3.6-6.9-0.7c-4.2,5.5-8.7,11-11.9,17.1c-5.6,10.8-10.6,22-15.2,33.4
		c-1.8,4.3-3.1,9.6-2.3,14.1c2.7,14.9,12.2,24.6,28.5,23.6c2.2-0.1,4.6,2.1,6.8,3.3c-2,1.6-4,3.3-6,4.8c-1.9,1.4-3.9,2.6-5.8,3.9
		c0.3,0.6,0.5,1.1,0.8,1.7c1.6-0.1,3.2-0.5,4.8-0.4C1598.7,923.2,1600.1,923.9,1601.4,924.3c-1.6,0.5-3.2,0.9-4.9,1.3
		c-5.1,1.4-10.2,4.2-14.6,0.1c0-2.5-0.4-4.8-1.5-6.7c-1.3-2-3.2-3.7-5-5.3c-4.9-4.3-8.4-10.6-16-11.4c-0.6,11.2,5.5,22,15.6,26.8
		C1584.8,933.9,1593.3,929.9,1601.4,924.3z M1721.2,840.9c6.4-3.8,13-5.9,16.9-10.4c5.4-6.2,9.4-13.9,12.8-21.5
		c3.1-6.9,4.8-14.6,7-21.9c4.9-15.8,5.4-31.7,1.1-47.8c-3-11.3-6.7-22.6-9-34.1c-4.1-20-1.7-39.8,4.8-59c1.8-5.3,5.5-10.3,5.9-15.7
		c0.6-7-0.2-14.5-2.2-21.2c-3.5-11.9-12.3-21.6-13.2-35.1c-0.6-8.3-5.6-16.4-8.9-24.5c-6.3-15.6-13-31.1-19.2-46.7
		c-4.9-12.4-9.9-24.7-10.9-38.3c-0.5-5.9-2.4-11.7-3.7-17.5c-0.6-0.1-1.2-0.2-1.8-0.2c-2.2,5.8-5.1,11.4-6.5,17.4
		c-5.2,22.3-3.5,44.4,4.2,66.2c-7.7-4.1-7.6-12.4-11.4-18.5c-3.8-6.1-6.5-13.1-12.7-17.5c-4.2,8-4,18.4-3.3,26.4
		c1.5,17,10.1,31.6,15.5,47.3c3.3,9.5,5.7,19.5,2,29.3c-3.2,8.5-7.8,16.4-12,24.5c-3.5,6.8-7.2,13.4-11.5,21.4
		c3.3-0.5,6.1-0.4,8.4-1.3c20.1-8.2,32.7-29,31.2-50.9c-0.3-4-0.4-8.1-0.1-12.1c0.1-1.7,1.6-3.4,2.5-5.1c1.5,1.2,3.8,2,4.4,3.5
		c2,4.9,4.3,9.9,4.8,15c1.6,16.7,12.1,28.7,21,41.6c2.2,3.2,3.6,7,5.4,10.5c-0.5,0.2-0.9,0.4-1.4,0.7c-2.3-3-4.4-6.2-6.8-9.1
		c-6.8-7.9-16.8-6.7-20.5,2.9c-1.9,5-2,10.9-2.2,16.4c-0.2,4.6-0.7,5.3-5.1,4.1c-1.4-0.4-3.6-0.4-4.6,0.4
		c-10.7,9.7-18.4,21.5-21.3,35.6c-5.1,24.8,2.3,47.4,14.8,68.6c5.5,9.4,11.6,18.3,17.1,27.7c6.1,10.4,8.1,21.9,7.8,33.9
		C1720.3,830.6,1720.9,835.3,1721.2,840.9z M1593.3,433c-0.8,0.9-1.4,1.3-1.7,1.9c-0.6,1.1-1.1,2.2-1.4,3.4
		c-5,16.5-3.9,32.9,0.9,49.3c0.7,2.5,0.9,5.1,1.4,7.7c1.1,5.8,1.8,11.8,3.6,17.3c4.6,13.8,6,27.9,2.1,41.8
		c-3.4,12.5-10.4,23.2-18.9,33c-2.8,3.3-5.4,6.8-7.4,10.6c-6.1,12.1-6.5,25.1-4.7,38.1c3.6,25.8,15.5,48.2,29.3,69.8
		c4,6.2,9.5,11.8,8.2,20.4c-0.3,1.7,2,4,3.4,5.7c2.1,2.5,4.7,4.6,6.7,7.1c3.8,4.8,9.4,5.6,13,1.5c10.5-11.9,13.3-34.2,6.3-48.1
		c-2-3.9-3.5-7.9-6-13.6c3.3,0.7,5.3,1,7.4,1.5c-0.7-1.7-1.3-3.5-2.2-5.1c-3.3-5.9-6.9-11.6-10.2-17.6c-0.8-1.4-1.3-3.1-1.2-4.6
		c0.4-5.3,2.1-10.7,1.6-15.9c-0.5-5.8-2.6-11.5-4.2-17.3c-0.4-1.4-1.4-2.7-2.1-4c-1.2,1.1-2.6,2.1-3.4,3.4
		c-1.9,3.2-3.6,6.6-5.6,10.4c-2.9-3-7.2-5.7-3.7-8.6c4.4-3.6,6.9-7.6,7.9-12.9c1.1-6.4,3.8-13.2,2.5-19.1
		c-2.1-9.8-1.3-10.6,6.6-16.5c14.9-11.1,23.3-25.5,23.7-44.3c0.1-6.1,0.7-12.3-0.2-18.3c-2.5-16.6-6.4-32.3-20.8-43.8
		c-9.6-7.6-20-14.9-25.9-26.3C1597.2,437.5,1595.2,435.5,1593.3,433z M1858.1,730.9c-0.8,0-1.5-0.1-2.3-0.1
		c-2.3,5.8-5.4,11.3-6.6,17.3c-3.4,16.2,0.1,31.7,6.4,46.7c3.2,7.7,7,15.5,8.7,23.6c5.2,24.5,1.8,48.5-6.3,72
		c-2.8,8.3-5.3,16.8-9.3,24.5c-5.6,10.6-12.1,20.3-11.3,33.2c0.6,9.9,3.9,14.8,13.1,15.1c18.1,0.5,39.6-17.6,41.7-35.4
		c1.1-10.1,1.5-20.2,2.2-30.3c0.1-2.1,0.1-4.3-0.4-6.3c-3-12.4-6.1-24.8-9.2-37.2c-3.3-13.1-6.9-26-9.7-39.2c-1.9-9-2.3-18.3-4-27.4
		c-2.4-12.9-5.4-25.7-8.2-38.6C1861.4,742.7,1859.7,736.8,1858.1,730.9z M1808,917.2c2.4-2.6,4.2-4.1,5.3-6
		c5.3-8.6,10.7-17.2,15.5-26.1c9-16.2,18.4-32.1,17.6-52c-0.5-13.2-1.8-26-6.9-38.3c-2.1-5.1-7-6-10.7-8.6c-1.2-0.8-4.3,1.1-6.5,1.8
		c-12.9,4.4-19.1,14.7-21.4,27.1c-2.2,11.7,0.1,23.2,3.5,34.7c2.6,8.7,3,18.2,3.4,27.4C1808.4,890.1,1808,902.8,1808,917.2z
		 M1685.6,877.8c2.3-3.6,4.8-7.2,7-11c6.4-10.6,13.6-20.9,12.4-34.2c-0.1-1,0.4-2,0.8-3c3.8-10.3-1.1-30.7-9.2-38.1
		c-1.1-1-2.5-1.9-4-2.5c-9.6-4.3-18.2-1.4-24.1,8.4c-6.4,10.7-9.9,22.2-8.5,34.9c0.8,7.1,2.1,13.7,7.7,18.8c2.4,2.2,4.1,5.2,5.9,7.9
		C1677.5,865.1,1681.3,871.2,1685.6,877.8z M1681.6,586.8c-0.3-2.3-0.3-4.9-1.1-7.1c-2.6-7.6-5.1-15.3-8.4-22.6
		c-1.6-3.6-4.8-9-7.6-9.1c-4.7-0.3-8.3,4.1-10.5,9c-2.9,6.5-6.2,12.9-9.8,19.1c-6.4,11-7.7,22.4-3.7,34.4
		c3.7,10.9,16.3,14.9,25.2,7.5C1675.4,609.9,1680.6,599.5,1681.6,586.8z M1625.2,800c-0.3,9,0.9,17.6,6.4,25c0.7,0.9,2.2,2.1,3,1.9
		c1-0.3,2-1.7,2.4-2.9c0.5-1.4,0.5-3.1,0.4-4.7c-0.3-11.6,3-22,8.8-31.9c4.8-8.3,11.3-16.3,13.5-25.3c3.6-15.1,4.9-30.9,0.5-46.3
		c-0.4-1.3-1.6-2.3-2.5-3.5c-1.2,0.9-2.9,1.5-3.4,2.7c-2.6,5.9-5,12-7.4,18c-4.3,10.7-8.3,21.6-13,32.1
		C1628.7,776.3,1624.6,787.5,1625.2,800z M1748,879.8c-0.6-0.1-1.2-0.3-1.8-0.4c-3.1,4.7-5.8,5.5-10.1,1.1c-1.9-1.9-7.5-2.4-10.1-1
		c-15,8.3-21.2,25.9-15.8,42c1.3,3.8,4.7,7.7,8.1,9.6c7.4,4.1,18.2-0.5,22.4-8.4c4.6-8.7,7.5-17.9,8.3-27.6
		C1749.6,890,1748.4,884.9,1748,879.8z M1927,909.1c0.6,0,1.3-0.1,1.9-0.1c1.1-1.9,2.6-3.6,3.2-5.6c5.2-17.4,3.4-34.2-4.6-50.5
		c-2.4-4.9-6.3-7.8-11.7-8.7c-2.6-0.4-4.3-0.3-5.3,3.2c-2,6.8,0.2,12.8,2.2,18.9c3,9.5,6.5,18.8,9.6,28.3
		C1924,899.4,1925.5,904.2,1927,909.1z M1772.3,729.5c0.6-0.2,1.2-0.4,1.8-0.6c0.6-1.6,1.4-3.1,1.7-4.8c2.2-12.1,4.3-24.1,6.3-36.2
		c0.3-1.7,0.3-3.5,0.4-5.2c0.3-5.3-3.3-7.4-7.5-8.8c-4.2-1.3-8.6-0.8-10.6,3.3c-2.3,4.6-3.9,9.7-5,14.8c-1.7,8.5,1.9,16.2,5.3,23.7
		C1766.9,720.5,1769.8,724.9,1772.3,729.5z M1782.6,835.9c-0.5,0-0.9,0.1-1.4,0.1c-0.6,1.7-1.8,3.4-1.7,5.1c0.3,6.4,0,13,1.7,19
		c3.8,13.4,6.5,27,6.2,40.8c-0.2,8.2-2.2,16.5-4.2,24.6c-1,4.1-3.6,7.7-5.5,11.6c13.6-16.4,21.6-34.5,17.2-56.2
		c-2.3-11.5-5-22.8-7.9-34.2C1786.2,843,1784.2,839.5,1782.6,835.9z M1666.5,647.5c-11.8,6.1-16.9,16.4-14.5,30
		c1.1,6.2,2.7,12.6,9.9,15.2C1669.2,677.9,1672.4,663.3,1666.5,647.5z M1583.2,947.3c-8.5-0.3-14.7-5.6-22-11
		C1569.9,947.6,1580.5,952.5,1583.2,947.3z M1668.2,942.1c-0.5-0.2-1-0.4-1.5-0.5c-4.6,3-2.7,8.3-4.2,12.3c0.6,0.2,1.3,0.4,1.9,0.6
		C1665.6,950.4,1666.9,946.2,1668.2,942.1z M1553.7,879.7c-0.7-0.1-1.5-0.2-2.2-0.2c-0.9,7-1.7,13.9-2.6,20.9c0.3,0,0.6,0.1,0.8,0.1
		C1551.1,893.5,1552.4,886.6,1553.7,879.7z"/>
	<path class="st0" d="M1499.8,558c1.5,7.2,3.1,14.4,4.6,21.6c4,19.7,13.1,37.3,21.9,55c11.1,22.5,22.7,44.7,32.8,67.6
		c8.7,19.8,14.9,40.6,15,62.5c0,8.5-1.5,17.1-2.4,25.6c-1.5,14-9.8,23.6-19.8,32.6c-7.5,6.7-14.5,14.1-21,21.7
		c-2.7,3.2-3.3,8-5.2,11.9c-4.5,9.1-9.2,18-13.8,27c-3.3,6.4-6.5,12.8-9.8,19.2c-0.6,1.2-1.5,2.2-2.3,3.4c0-19.7,0-39.4,0-59.1
		c0.7-2,1.8-3.9,1.9-5.9c0.8-9.6,1.7-19.2,1.6-28.8c0-4.3-2.3-8.5-3.6-12.8c0-28.1,0-56.3,0-84.4c1.1-1.1,2.4-2.1,3.2-3.4
		c14.4-21.8,16.6-45.1,8.9-69.7c-2.1-6.8-5.3-13.6-5.9-20.6c-0.5-5.8-3.2-9.7-6.2-13.9C1499.8,591,1499.8,574.5,1499.8,558z
		 M1524.7,827c0.3,0.5,0.7,0.9,1,1.4c2.6-1.5,6.4-2.4,7.7-4.6c4.5-7.9,7.4-16.6,12.1-24.3c7.2-11.6,11.1-24.3,13.1-37.5
		c1.6-10.4,1.2-20.8-1.8-31.2c-4.6-15.9-24.4-23.3-37.5-16.2c-10.9,5.9-18.8,26.9-15.9,40.4c3.1,14.6,9.6,27.9,16.7,40.7
		c4.1,7.4,5.5,14.8,6.5,22.6C1526.9,821,1525.4,824.1,1524.7,827z"/>
	<path class="st0" d="M1499.8,490.5c6.8-1.3,8.6-7.3,10.9-12.4c4-9.1,7.3-18.5,10.9-27.8c0.2-0.4,0.8-0.6,2.2-1.8
		c0.5,2.7,1.5,4.8,1.1,6.6c-2.9,12.2-5.5,24.6-9.3,36.5c-3.3,10.3-8.1,20-12,30.1c-1.6,4.2-2.6,8.7-3.9,13.1
		C1499.8,520,1499.8,505.2,1499.8,490.5z"/>
	<path class="st0" d="M1999.8,851.3c-0.6-0.8-1.7-1.6-1.7-2.4c-0.8-11.8-1.8-23.5-2.1-35.3c-0.1-2.9,2.5-5.8,3.8-8.7
		C1999.8,820.3,1999.8,835.8,1999.8,851.3z"/>
	<path class="st0" d="M1658.4,308.1c1.5,2.5,2.8,4.7,4.1,6.9c3,5.1,6.1,10.2,8.8,15.5c0.9,1.8,0.8,4.1,1.2,6.2
		c-0.5,0.1-1,0.3-1.5,0.4c-0.6-0.5-1.5-0.8-1.9-1.5c-2.6-4.2-5.3-8.3-11-7.5c-6.1,0.9-9.8,4.9-12.5,10.2c-4.2,8.4-5.4,17.1-4,26.4
		c0.2,1.7-0.5,3.5-0.8,5.3c-0.6,0.1-1.1,0.2-1.7,0.3c-0.7-1.7-2-3.5-1.9-5.2c0.7-10.3-2.1-21.1,4.1-30.7c0.7-1.2,1.5-2.6,1.4-3.9
		C1641.9,319.4,1650,314.4,1658.4,308.1z"/>
	<path class="st0" d="M1916.1,647.5c0.9-6.7,1.6-12.5,2.5-18.3c1.2-7.9,2.2-15.8,3.6-23.7c0.9-4.9,3.6-8.4,10-10.8
		c-0.9,6.6-1.4,12.1-2.6,17.5c-1.7,8.1-1.1,16,1.2,23.8c0.6,2.2,3.4,3.8,5.3,5.5c3.9,3.5,8.1,6.6,11.7,10.4c1.5,1.5,1.7,4.2,2.8,7.2
		c-5.7-5.3-10.1-10.3-15.4-14C1929.1,641,1922.9,646.1,1916.1,647.5z"/>
	<path class="st0" d="M1646.5,110.8c-0.8-2.1-1.3-4.4-2.5-6.1c-3.2-4.7-5.9-10.1-10.2-13.6c-10.7-8.9-13.9-27.8-6-39.1
		c2.1-3,3.7-6.4,4.6-9.9c0.9-3.4,0.6-7.2,0.8-11.9c4.7,7.3,4.8,13.9,1.7,20.7c-3.9,8.4-4.9,16.9-0.2,25.2c1.6,2.9,3.5,5.8,5.8,8
		c6.4,6.2,6.3,14.4,7.7,22.2c0.2,1.4-0.5,2.9-0.8,4.3C1647.2,110.7,1646.9,110.8,1646.5,110.8z"/>
	<path class="st0" d="M1533.8,137c-8.6,31.6-14.2,63.3-4.6,95.9c-4.3,2.7-7,0.9-8.1-3.6c-1.7-7.1-3-14.3-4.4-21.5
		c-0.7-3.7-1.5-7.5-1.8-11.2c-0.2-2.2,0.3-4.5,0.8-6.7c2.5-10.2,4.9-20.3,7.7-30.4c0.5-1.9,3.2-3.1,4-5c1.4-3.4,2.1-7,3.1-10.6
		c0.7-2.3,1.3-4.7,2-7C1533,136.9,1533.4,136.9,1533.8,137z"/>
	<path class="st0" d="M1911.6,190.5c3,17.7-2.5,46-22.9,53.9c0.7-3.3,0.5-6.3,1.9-8c9.4-11.9,15.4-25.4,19.8-39.8
		C1910.9,195.1,1911,193.5,1911.6,190.5z"/>
	<path class="st0" d="M1659.4,382.8c-1.7-0.9-3.2-1.7-5.4-2.9c5.2-7.6,10.2-14.9,15.3-22.3c0.3,0.2,0.8,0.5,0.8,0.6
		c-2.8,11.8-2.2,24.2-8.9,35.3c-3.8,6.3-5.2,14.1-7.7,21.2c-0.8,2.3-1.5,4.6-2.8,6.8C1650.7,408.1,1656.1,396,1659.4,382.8z"/>
	<path class="st0" d="M1948.9,68c-1.2,1-2.1,1.8-3.2,2.7c1.4,2.7,2.7,5.3,4.6,9c-7.4-5.9-14-10.7-20.1-16c-1.7-1.5-2.2-4.5-3-6.9
		c-1.5-4.4-3.1-8.8-4-13.4c-0.4-2,0.7-4.4,1.9-6.6C1929.1,50.2,1938.9,58.8,1948.9,68z"/>
	<path class="st0" d="M1901.9,470.5c2.6-0.5,5.9-1.2,10.1-2.1c-2.3,10.2,2,20.7-3.7,30.3c-4.2-3-7.4-12.4-6.6-16.8
		C1902.4,478.6,1901.9,475,1901.9,470.5z"/>
	<path class="st0" d="M1892.2,250.5c-12.1,3.8-18,12.2-21.1,24.3c-1.5-8.8,4.1-21.9,10.2-25.9
		C1885.2,246.3,1886.6,246.5,1892.2,250.5z"/>
	<path class="st0" d="M1949.9,308c-5.3-2.7-6.5,1.7-9,3.9c-1.1,1-2.7,1.3-4,1.9c0.3-1.5-0.1-3.8,0.8-4.5c4.1-3.2,8.4-6.1,12.9-8.8
		c0.7-0.4,2.7,0.4,3.6,1.3c0.6,0.6,1,2.7,0.5,3.1C1953.2,306.2,1951.3,307.1,1949.9,308z"/>
	<path class="st0" d="M1958.3,478.4c-0.8-9.4-1.7-18.8-2.5-28.2C1959.8,453.7,1961.5,468,1958.3,478.4z"/>
	<path class="st0" d="M1866.7,296.7c7.4,1.5,15,11.6,16.6,21.8C1877.7,311.2,1872.4,304.2,1866.7,296.7z"/>
	<path class="st0" d="M1846.7,68.5c-1.3,1.4-2.9,3.1-4.4,4.7c-0.6-0.1-1.1-0.2-1.7-0.3c-0.6-5.1-1.1-10.2-1.7-15.2
		c0.4-0.1,0.7-0.1,1.1-0.2C1842,60.8,1844,64.2,1846.7,68.5z"/>
	<path class="st0" d="M1948.4,552.4c-1.1,5.3-2.3,10.6-3.4,16c-0.8-0.2-1.5-0.3-2.3-0.5c1.2-5.3,2.4-10.6,3.6-15.8
		C1947.1,552.1,1947.8,552.2,1948.4,552.4z"/>
	<path class="st0" d="M1713.1,771.4c6,10.5,11.9,20.7,18.4,32c1.1-2.1,2.2-3.2,2.2-4.3c-0.6-10.1-1.3-20.1-2.3-30.2
		c-0.1-0.9-2.3-2.6-3.2-2.4C1723.1,767.9,1718.2,769.7,1713.1,771.4z"/>
	<path class="st0" d="M1713.1,771.4c5-1.6,10-3.4,15.1-4.8c0.8-0.2,3.1,1.4,3.2,2.4c1,10,1.7,20.1,2.3,30.2c0.1,1.1-1.1,2.2-2.2,4.3
		C1725.1,792.1,1719.2,781.8,1713.1,771.4z"/>
	<path class="st0" d="M1604.3,628.9c2.5,7.7-0.5,14.1-1.8,20.9C1596.7,647.3,1597.7,634.3,1604.3,628.9z"/>
	<path class="st0" d="M1696.9,824.9c-3.1,0.3-5.4,0.6-8.1,0.9c-1-3.8-1.1-7.4,3.1-8C1696.5,817.1,1695.8,821.4,1696.9,824.9z"/>
</g>
<g>
	<path class="st0" d="M962.5,956.7c7.7,14.7,19.5,24.9,36.8,28.4c9.9,2,20.1,3.4,28.6-4.4c5.8-5.4,6.3-11.6,0.4-16.9
		c-10.2-9.2-17.5-20.3-22.9-32.4c-5.8-13.2-5.1-27-1.2-40.4c7.1-24.4,20.2-46.1,35.9-66.6c9.4-12.2,18.7-24.7,22-40
		c2.9-13.6,0.1-26.9-1.9-40.3c-0.2-1.4-0.9-3-0.5-4.2c4.7-16.2-4.6-28.8-11.8-42c-4.6-8.5-9.6-16.8-13.8-25.4
		c-9-18.5-11.3-38.6-14.3-58.5c-2-13.1-3.3-26.4-6-39.3c-1.2-5.6-4.7-10.9-8.1-15.8c-6.7-9.5-4.9-19.8-3.2-29.8
		c2-11.5,5-22.9,8.4-34.1c5-16.3,6.2-32.6,1-48.2c2.7-1.4,4.8-2.6,7.6-4.1c3.5,6.5,4.1,14.1,4.8,21.6c1.4,16.3-3.9,31.3-10.6,46
		c-1.9,4.1-3.7,8.3-5.2,12.6c-5.1,14.6-2.5,27.7,9.4,38.7c9.2,8.4,21.9,8.2,30.6-0.5c7.9-7.9,11.8-17.6,12.9-28.3
		c1.4-14.1-1.6-27.7-5.8-41c-4.6-14.8-11-29.1-15.4-43.9c-4.3-14.5-4-29.3-0.4-44.3c2.4-9.8,7.3-19.9,2.7-30.4c-1-2.3-2.6-4.4-4-6.8
		c-7.5,4.1-8.9,10.8-11.7,16.5c-3,6.2-4.6,13-7.3,19.3c-1.2,2.8-3.7,5-5.7,7.5c-0.6-0.2-1.1-0.4-1.7-0.6c0.6-4.1,0.9-8.3,1.8-12.4
		c1.8-8.3,3.8-16.6,6.1-24.8c1.1-4,3.7-7.6,4.4-11.6c1.3-7.1,1.5-14.3,2.4-21.4c0.2-1.5,1.4-3,2.2-4.5c1.5,0.9,4.2,1.6,4.4,2.8
		c1.3,6.2,2.2,12.6,2.9,18.9c0.2,2-0.8,4.1-1.4,6.8c11.5-4.7,18.6-12.6,25.1-21.3c14.1-18.9,24.1-39.3,24.8-62.8
		c0.1-4.1-0.1-8.3-0.4-12.4c-0.2-3.9,0.1-8.4-6.6-7.6c-0.6,0.1-2.5-3-2.2-4.5c1.1-6.9,2.5-13.8,4.2-20.6c0.8-3.4,1.8-6.9,7.3-8.8
		c-1.3,7.8,3.4,13.7,2.3,21.2c-1,7.2,0.9,14.7,1.3,22c0.8,16.2-3.6,31.7-7.4,47.3c-3.2,13.2-8.1,26.1-7.4,40.2
		c0.4,8.4-1.9,16.8-2,25.3c-0.2,18.4,9.2,33.4,19.9,48c8.3,11.3,15.4,23.4,23.2,35.1c2,3,4.3,6,6.8,8.7c3,3.2,11.6,2.1,14.3-2.2
		c3.6-5.8,7.2-11.9,9.1-18.4c2.1-6.9,3.1-14.3,3.5-21.6c0.7-13.1,4.7-25.1,12.5-35.9c8.3-11.5,12.1-24.4,13.9-37.9
		c3-22.5,0.3-44.3-11.8-64.4c-3.2-5.2-7.7-9.8-12-14.3c-3.3-3.5-5.4-6.9-6-11.8c-1-9.5-4-18.8-4.6-28.3c-0.8-11.5-0.6-23.2,0-34.7
		c0.6-10.4,2.3-20.7,3.5-31.3c4.6,5.2,5.7,11,5.9,17.6c0.5,18.4-1,36.9,5,55c4.4,13.5,11.6,25,22.3,34.7c3.1,2.8,4.3,5.6,4.4,9.9
		c0.1,5.2,2.9,10.2,4,15.5c2.5,11.9,4.6,23.9,7.1,35.8c0.4,1.9,1.9,4.1,3.6,5c1,0.5,3.6-1.1,5.1-2.2c13.9-10.8,20.5-25.6,25.9-41.2
		c0.2-0.5,0.4-1,0.4-1.6c0.1-20.1,0.8-40.1-14.2-57.2c-4.7-5.4-6.3-13.3-8.7-20.2c-2-5.8-3.4-11.8-4.3-17.8
		c-0.5-3.5,0.9-7.2,0.7-10.9c-0.2-4.8-0.4-9.7-1.6-14.3c-6-23.3-1.5-44.6,11.9-64.9c13-19.7,13.8-41.2,8.2-63.2
		c-3.8-14.7-7.7-29.3-11.5-44c-0.6-2.3-0.3-4.8-0.4-7.2c0.6-0.2,1.2-0.4,1.8-0.6c1.3,2.2,3,4.3,3.7,6.6c4.3,13.3,9,26.4,12.2,39.9
		c3.7,15.8,6.1,31.8,8.9,47.7c0.3,1.7,0.6,4-0.3,5.3c-4.5,6.7-4,14.4-5.5,21.8c-1.1,5.5-3.3,11.1-6.2,16c-10.7,18.2-15.3,37-7.2,57
		c3.4,8.4,8.4,16.2,12.9,24.1c4.1,7.3,8.8,14.2,12.7,21.6c5,9.5,9.6,19.1,14.1,28.8c5.3,11.5,3.4,23.3,0.1,34.9
		c-6.3,22-12.4,44.1-1.4,66.4c4.3,8.8,9.4,17.3,13.1,26.3c2.6,6.1,4.7,12.8,4.9,19.3c0.4,18.1-2.1,36-11.7,52.2
		c-4.9,8.3-10.7,16-16.4,23.8c-5.4,7.5-6.1,18-1.3,25.5c-5.1-0.6-9.7-4.2-10.1-8.4c-1.8-19.2-0.6-37.8,13-53.8
		c3.3-3.9,6.1-8.3,8.7-12.7c8.5-14.7,5.5-36-6.4-47.1c-7.1-6.6-17.7-7.4-26.2-1.8c-11.2,7.5-16.6,18.5-20.3,30.5
		c-8.1,26.6,1.6,50.5,12.6,74.1c7.4,15.9,16.7,31,29.3,43.7c7.1,7.2,9.4,16.2,14.2,24.2c2.5,4.1,5.5,8,8.2,12c1.3,2,2.7,4,3.4,6.2
		c4.4,14.7,8.4,29.5,13,44.1c6.6,21.2,5.4,42.2-0.5,63.3c-5.3,18.7-2.5,36.7,6.4,54.1c0.8,1.6,0.4,4,0,5.9
		c-1.5,7.9-3.3,15.7-4.9,23.5c-0.1,0.4,0.5,0.9,1.2,1.9c10.1-4.9,18.9-10.9,21.5-22c1.2-5.3,1-11,2-16.4c0.4-2.1,1.8-4.3,3.4-5.8
		c14.1-13.9,22.9-30.3,25.2-49.3c1.6-13.2,0.9-26.6-3.8-39.5c-2.6-7.1-3.9-14.6-6.6-21.8c-5.4-14.6-11.3-29-16.9-43.5
		c-3.5-9.1-11.9-12.5-20.4-15.9c-5.7-2.3-10.8-14.8-8.4-20.1c2-4.4,4.2-8.8,6.5-13.6c1,0.8,1.7,1.5,2.6,1.9c1.5,0.8,3.1,1.4,4.7,2.1
		c0.3-1.4,0.3-3,1.1-4c3.6-4.6,4.2-9.8,3.8-15.1c-0.7-9-1.8-17.9-2.1-26.9c-0.1-2.5,1.7-5.4,3.5-7.5c10.5-12.5,19.2-26,19.4-42.4
		c0.1-8.8-1.8-17.8-3.3-26.6c-1.9-10.4-5.8-20.1-13.2-28.3c-1-1.1-1.7-3.1-1.4-4.4c2.5-13.2-0.3-26.2-2.2-39.2
		c-2-13.3-2.4-26.7,0.9-39.7c2.6-10.2,6.3-20.4,14.9-28.1c5.5-4.9,8.8-10.8,11.4-17.7c3.7-9.7,9.4-18.7,15.8-28
		c-0.2,3.4-0.3,6.7-0.5,10.1c-1.8,26.9-9.6,52.7-16.9,78.7c-4.3,15.2-4,30.3,0.2,45.9c3.9,14.6,5.1,29.8,7.5,44.8
		c2.6,16.3,4.2,32.6,1.5,48.9c-1.3,7.6-4.4,14.9-5.8,22.5c-1.4,7.3-1.3,14.9-2.6,22.2c-1.7,9.4-3.7,18.7-6.2,28
		c-6.3,23.3-3.9,45.2,12,64.6c4.8,5.9,5.6,12.1,5.4,18.5c-0.1,4.7,1.1,8.2,4,11.8c2.9,3.7,4.9,8.1,8.1,11.6
		c4.7,5.2,10.9,4.1,13.1-2.5c3.8-11.3,8.9-22.8,9.2-34.3c0.2-9.7,4.9-14.8,11-20.3c27.8-24.7,45.5-55,55.8-89.2
		c6.9-22.9,6.9-46.1-3.5-68.3c-3.9-8.3-10.2-15.5-14.5-22c0-4.2,1.3-8.3-0.2-10.6c-8-12.1-9.8-25.5-10.9-39.2
		c-0.3-3.9-0.8-7.8-1.2-11.7c0.5-0.1,0.9-0.2,1.4-0.3c1.3,3.6,2.6,7.1,3.8,10.7c6.9,19.8,18.1,36.4,37.7,47.3c1.9,1,2.7,3.8,3.9,5.7
		c-2,0.9-3.9,2.3-6,2.5c-4.2,0.5-5.3,2.1-4.1,5.8c2.9,8.7,6.4,17.4,8,26.4c2.4,13.3,4,26.7,1.1,40.3c-0.7,3.1-0.5,6.4-1,9.6
		c-0.7,4.6-1.5,9.1-2.3,13.7c-0.8,4.2-1.7,8.4-2.4,12.6c-0.8,4.6,0,9.4-4,13.5c-2.1,2.1-2.2,5.9-3.3,8.9c-1.7,4.4-3.6,8.6-5.3,13
		c-1.4,3.8-2.4,7.8-3.9,11.5c-1.4,3.5-3.4,6.7-4.8,10.2c-2.6,6.5-4.8,13.2-7.5,19.7c-0.7,1.7-2.2,3.3-3.8,4.5
		c-10.2,8.1-20.3,16.6-25.3,28.2c-4.7,10.8-7.1,22.6-9.6,34.1c-4.7,21.9-0.8,43.3,6,64.3c5,15.5,3.9,31.2,2.2,47.1
		c-1.3,11.7,0.3,23.3,7.8,33.6c2.4,3.2,3.5,7.2,5.9,10.3c3.5,4.5,8.5,6.7,14.6,5.7c6.4-1,10.8-4.4,13-10.2
		c3.5-9.2,0.6-17.8-3.3-26.1c-7.6-16-17.3-31.4-22.8-48c-5.7-17.3-9.6-35.6-7.7-54.2c0.2-1.6,0.9-3.2,2-4.8
		c5.9,19.3,10.5,38.9,24.5,54.6c0.5-0.2,0.9-0.3,1.4-0.5c-2.8-8.8-5.7-17.7-8.5-26.5c0.6-0.2,1.1-0.4,1.7-0.6
		c0.9,1.2,2.2,2.4,2.5,3.7c2.3,8.7,4.4,17.4,6.5,26.1c0.2,0.7,0.4,1.4,0.9,1.9c10.1,9.3,20.1,18.5,30.3,27.8
		c4.6-3.6,4.3-6.8,2.9-10.5c-3.1-7.7-6.2-15.3-6-23.9c0.2-7.5,1.9-13.5,7.5-19c4.7-4.6,8.2-10.2,12-15.5c3.4-4.8,7.3-9.5,9.6-14.9
		c6.2-14.6,4.3-28.6-5.8-41.4c-1-1.2-2.3-2.5-3.7-3.1c-6.8-2.8-9.3-8.1-6.8-15.8c1.7,3.6,3.1,6.7,5,10.5c2.3-6-0.9-9.9-3.3-14
		c-1.4-2.5-3.3-5-3.8-7.7c-3.6-20.3-5.7-40.6-2.1-61.1c0.9-5.3,1.8-10.8,4-15.7c2.4-5.3,6.5-9.9,9.9-14.8c0.5,0.1,1.1,0.2,1.6,0.4
		c-0.1,1.7,0,3.5-0.3,5.1c-4.4,24-7,48.1-0.6,71.9c2.8,10.7,8.7,20.6,13.4,30.8c0.8,1.7,2.4,3,3.6,4.4c0.4-0.2,0.9-0.4,1.3-0.6
		c-1.3-4.1-2.6-8.2-3.8-12.3c-3.1-11.1-7.1-22.1-8.9-33.3c-1.7-10.8-1.6-21.9-1-32.8c0.5-9.4,3.3-18.7,4-28.2
		c0.3-3.7-3.3-7.5-3.7-11.3c-0.6-5.7-5.8-10.8-1.3-17.2c16.7-24.1,22.9-51.2,21.5-79.4c-0.8-16.4-6.2-32.5-9.4-48.8
		c-0.8-4.2-1.3-8.5-1.9-12.8c0.6-0.1,1.2-0.2,1.7-0.3c4.2,9.8,8.4,19.6,12.6,29.4c0,33.2,0,66.3,0,99.5c-1.9,5.4-5.1,10.7-5.6,16.2
		c-2.4,25.3-2.9,50.7,1.7,75.9c0.9,4.7,2.6,9.3,3.9,13.9c0,19.5,0,38.9,0,58.4c-2.4-0.3-4.9-1-7.2-0.6c-0.7,0.1-1.4,3.5-1,5.2
		c5.8,22.7-0.3,42.6-15.4,60.5c-5.2,6.1-9.8,12.6-9.8,20.7c0,2.9,1.2,7.3,3.3,8.4c2.5,1.3,7.4,0.9,10-0.6c3.8-2.1,7.2-5.5,9.5-9.1
		c4-6.3,7.1-13.1,10.6-19.7c0,10.8,0,21.6,0,32.5c-1.8,1.6-3.9,3-5.5,4.7c-11.3,12.5-17.9,27-21.3,43c-3.2,14.6-3.4,29.2,1.4,43.3
		c6.6,19.3,12.7,38.4,10.9,59c-0.1,0.8,0.8,1.7,1.2,2.6c0.5,0.1,1.1,0.2,1.6,0.3c3.9-8.5,7.8-16.9,11.7-25.4c0,22.7,0,45.4,0,68.1
		c-1-1.9-2.2-3.7-2.8-5.6c-3.1-9.2-6-18.4-9.2-27.5c-0.5-1.3-2.2-2.3-3.5-3.6c-0.9,1.2-1.3,1.6-1.5,2.1c-4.5,14.2-9,28.5-13.5,42.7
		c-1.1,3.5-2.7,7.1-2.7,10.6c0,6.7,4.3,11.8,9.4,16c4.5,3.8,10.3,4.2,15.4,0.9c3.3-2.2,5.6-5.6,8.4-8.5c0,13.7,0,27.4,0,41.1
		c-22.2,0-44.5,0-66.7,0c-1.1-6.2-2-12.4-3.6-18.5c-0.4-1.5-3.1-2.5-4.7-3.7c-1,1.5-2.8,3-2.8,4.5c-0.1,5.9,0.5,11.8,0.8,17.7
		c-47.9,0-95.8,0-143.7,0c0.1-15,0.3-30.1,0.3-45.1c0-3.1-0.6-6.1-0.9-9.2c-13.6,9.6-20.1,21.9-19.3,36.9c0.3,5.9,3.2,11.6,4.9,17.4
		c-16.9,0-33.7,0-50.6,0c6.6-15.5,13.1-31.1,19.8-46.8c-4-1.6-7.3-2.1-7.6,3.7c0,1-0.6,2.1-1.2,2.9c-9.4,12-15.6,25-15.5,40.2
		c-46.4,0-92.8,0-139.1,0c-1.5-5.5,2.4-12.6-6.4-17.2c-3,6.1-5.8,11.6-8.5,17.2c-33.2,0-66.4,0-100,0
		C962.5,985.6,962.5,971.2,962.5,956.7z M1073.2,922.4c9.9-6.7,15.3-16.4,19.9-26.5c6.9-15.4,4-31.1-0.2-46.5
		c-0.9-3.1-3.1-6-4.9-8.8c-1.4-2.2-3.7-4-4.7-6.3c-2.4-5.4-4.1-11.1-6.5-16.5c-1.8-3.9-5.1-3.7-7.6-0.7c-4.6,5.7-9.5,11.3-13,17.6
		c-6.1,11.1-11.5,22.6-16.6,34.2c-1.9,4.4-3.4,9.9-2.6,14.4c2.9,15.3,13.3,25.3,31,24.2c2.4-0.1,5,2.2,7.5,3.4
		c-2.2,1.6-4.3,3.4-6.6,4.9c-2.1,1.4-4.2,2.7-6.4,4c0.3,0.6,0.6,1.2,0.8,1.7c1.8-0.2,3.5-0.5,5.3-0.4c1.6,0.1,3.1,0.9,4.7,1.3
		c-1.8,0.4-3.6,0.8-5.4,1.3c-5.6,1.5-11.1,4.3-15.9,0.1c0-2.5-0.4-4.9-1.7-6.8c-1.4-2.1-3.5-3.7-5.5-5.4
		c-5.3-4.4-9.2-10.9-17.4-11.7c-0.7,11.4,6,22.5,17,27.5C1055.1,932.2,1064.4,928.1,1073.2,922.4z M1203.8,836.9
		c7-3.9,14.2-6.1,18.5-10.7c5.9-6.4,10.2-14.2,13.9-22c3.4-7.1,5.2-15,7.7-22.5c5.3-16.2,5.9-32.5,1.2-49
		c-3.3-11.6-7.3-23.1-9.9-34.9c-4.5-20.5-1.8-40.8,5.2-60.5c1.9-5.5,6-10.6,6.5-16.1c0.6-7.2-0.2-14.8-2.4-21.7
		c-3.8-12.2-13.4-22.2-14.4-36c-0.6-8.5-6.1-16.8-9.7-25.1c-6.9-16-14.1-31.9-20.9-47.9c-5.3-12.7-10.7-25.3-11.9-39.2
		c-0.5-6.1-2.6-12-4-18c-0.7-0.1-1.3-0.2-2-0.2c-2.4,5.9-5.5,11.7-7.1,17.8c-5.7,22.9-3.8,45.6,4.6,67.9
		c-8.4-4.2-8.3-12.7-12.5-18.9c-4.2-6.3-7-13.4-13.9-17.9c-4.6,8.2-4.3,18.9-3.6,27.1c1.6,17.5,11,32.4,16.9,48.5
		c3.6,9.8,6.2,20,2.1,30c-3.5,8.7-8.5,16.8-13.1,25.1c-3.8,6.9-7.9,13.8-12.5,21.9c3.6-0.5,6.7-0.4,9.2-1.3
		c21.9-8.4,35.7-29.8,34-52.2c-0.3-4.1-0.5-8.3-0.1-12.4c0.1-1.8,1.8-3.5,2.7-5.2c1.7,1.2,4.1,2.1,4.8,3.6c2.2,5,4.7,10.1,5.3,15.4
		c1.8,17.2,13.2,29.4,22.9,42.7c2.4,3.3,3.9,7.1,5.9,10.7c-0.5,0.2-1,0.4-1.5,0.7c-2.5-3.1-4.7-6.4-7.4-9.3
		c-7.5-8.1-18.4-6.9-22.4,3c-2.1,5.2-2.2,11.2-2.4,16.8c-0.2,4.8-0.7,5.4-5.5,4.2c-1.5-0.4-4-0.4-5,0.4c-11.6,9.9-20.1,22-23.2,36.5
		c-5.5,25.5,2.5,48.6,16.1,70.3c6,9.6,12.6,18.8,18.6,28.4c6.7,10.7,8.8,22.5,8.5,34.8C1202.8,826.3,1203.4,831.1,1203.8,836.9z
		 M1064.4,418.7c-0.9,0.9-1.5,1.4-1.9,1.9c-0.6,1.1-1.2,2.3-1.6,3.5c-5.5,16.9-4.3,33.8,1,50.5c0.8,2.6,1,5.3,1.6,7.9
		c1.2,5.9,1.9,12.1,3.9,17.8c5,14.2,6.5,28.6,2.3,42.9c-3.7,12.8-11.4,23.8-20.6,33.9c-3,3.3-5.9,7-8,10.9
		c-6.7,12.4-7.1,25.7-5.1,39.1c3.9,26.4,16.9,49.4,32,71.6c4.3,6.4,10.3,12.1,9,20.9c-0.3,1.7,2.1,4.1,3.7,5.8
		c2.3,2.6,5.1,4.7,7.3,7.3c4.2,4.9,10.3,5.7,14.2,1.5c11.4-12.2,14.5-35.1,6.9-49.3c-2.1-4-3.9-8.1-6.6-14c3.6,0.7,5.7,1.1,8,1.5
		c-0.8-1.7-1.4-3.6-2.4-5.3c-3.7-6-7.5-11.9-11.1-18c-0.8-1.4-1.4-3.2-1.3-4.8c0.5-5.4,2.3-10.9,1.8-16.3c-0.5-6-2.9-11.8-4.6-17.7
		c-0.4-1.5-1.5-2.8-2.3-4.1c-1.3,1.2-2.8,2.1-3.7,3.5c-2.1,3.3-3.9,6.7-6.1,10.6c-3.1-3.1-7.8-5.8-4-8.8c4.8-3.7,7.6-7.8,8.6-13.2
		c1.3-6.5,4.1-13.5,2.8-19.6c-2.3-10.1-1.5-10.9,7.2-16.9c16.2-11.3,25.4-26.1,25.8-45.4c0.1-6.3,0.8-12.6-0.2-18.8
		c-2.7-17-7-33.2-22.6-44.9c-10.4-7.8-21.8-15.3-28.2-27C1068.6,423.2,1066.4,421.2,1064.4,418.7z M1353,724c-0.8,0-1.7-0.1-2.5-0.1
		c-2.5,5.9-5.9,11.6-7.2,17.7c-3.7,16.6,0.1,32.5,6.9,47.9c3.5,7.9,7.7,15.9,9.5,24.2c5.6,25.1,2,49.7-6.8,73.8
		c-3.1,8.5-5.8,17.2-10.2,25.1c-6.1,10.8-13.2,20.8-12.3,34.1c0.6,10.2,4.2,15.2,14.2,15.5c19.7,0.5,43.2-18,45.4-36.3
		c1.3-10.3,1.7-20.7,2.4-31.1c0.1-2.1,0.1-4.4-0.4-6.5c-3.2-12.7-6.7-25.5-10-38.2c-3.6-13.4-7.5-26.7-10.6-40.2
		c-2.1-9.2-2.5-18.8-4.4-28.1c-2.6-13.2-5.8-26.4-9-39.5C1356.7,736.2,1354.8,730.1,1353,724z M1298.4,915.1
		c2.6-2.7,4.6-4.2,5.8-6.1c5.8-8.8,11.6-17.7,16.9-26.7c9.8-16.7,20.1-32.9,19.2-53.3c-0.6-13.6-1.9-26.6-7.6-39.3
		c-2.3-5.2-7.7-6.2-11.7-8.8c-1.3-0.8-4.7,1.1-7.1,1.9c-14.1,4.5-20.8,15.1-23.3,27.8c-2.4,12,0.1,23.8,3.8,35.6
		c2.8,9,3.3,18.7,3.7,28.1C1298.8,887.3,1298.4,900.4,1298.4,915.1z M1165,874.8c2.5-3.7,5.2-7.4,7.7-11.2
		c7-10.8,14.9-21.4,13.5-35.1c-0.1-1,0.5-2.1,0.9-3.1c4.1-10.5-1.2-31.5-10-39.1c-1.2-1.1-2.8-1.9-4.3-2.6
		c-10.4-4.4-19.9-1.5-26.2,8.6c-6.9,11-10.8,22.7-9.3,35.8c0.9,7.3,2.3,14,8.3,19.3c2.6,2.3,4.4,5.3,6.4,8.1
		C1156.2,861.7,1160.4,867.9,1165,874.8z M1160.7,576.4c-0.3-2.4-0.3-5-1.1-7.3c-2.8-7.8-5.5-15.7-9.1-23.2
		c-1.8-3.7-5.3-9.2-8.2-9.4c-5.1-0.3-9.1,4.2-11.5,9.2c-3.2,6.7-6.8,13.3-10.7,19.6c-7,11.3-8.4,23-4,35.2
		c4,11.2,17.7,15.2,27.4,7.7C1153.9,600.1,1159.6,589.3,1160.7,576.4z M1099.1,794.9c-0.3,9.2,1,18,6.9,25.7c0.7,1,2.4,2.2,3.3,1.9
		c1.1-0.3,2.2-1.8,2.6-2.9c0.5-1.5,0.5-3.2,0.5-4.8c-0.4-11.9,3.3-22.6,9.6-32.7c5.3-8.5,12.4-16.7,14.7-25.9
		c3.9-15.5,5.3-31.6,0.5-47.5c-0.4-1.3-1.8-2.4-2.7-3.6c-1.3,0.9-3.2,1.6-3.7,2.8c-2.9,6.1-5.5,12.3-8.1,18.4
		c-4.7,11-9,22.1-14.2,32.9C1103,770.6,1098.5,782.2,1099.1,794.9z M1233,876.7c-0.6-0.2-1.3-0.3-1.9-0.5c-3.4,4.8-6.3,5.7-11,1.1
		c-2-2-8.2-2.4-11-1c-16.3,8.5-23.1,26.5-17.2,43c1.4,3.8,5.1,7.9,8.9,9.9c8,4.2,19.9-0.5,24.4-8.6c5-8.9,8.1-18.4,9-28.3
		C1234.8,887.3,1233.5,882,1233,876.7z M1428.2,906.8c0.7,0,1.4-0.1,2.1-0.1c1.2-1.9,2.8-3.7,3.4-5.8c5.6-17.8,3.7-35.1-5-51.8
		c-2.6-5-6.9-8-12.7-8.9c-2.8-0.4-4.7-0.3-5.8,3.2c-2.1,6.9,0.2,13.1,2.4,19.3c3.3,9.7,7,19.3,10.5,29
		C1424.9,896.8,1426.5,901.8,1428.2,906.8z M1259.5,722.6c0.7-0.2,1.3-0.4,2-0.6c0.6-1.6,1.5-3.2,1.8-4.9
		c2.4-12.4,4.7-24.8,6.9-37.2c0.3-1.8,0.3-3.6,0.4-5.4c0.3-5.4-3.6-7.6-8.2-9c-4.6-1.4-9.3-0.9-11.6,3.4c-2.5,4.7-4.3,10-5.4,15.2
		c-1.9,8.8,2.1,16.6,5.8,24.3C1253.6,713.4,1256.7,718,1259.5,722.6z M1270.8,831.7c-0.5,0-1,0.1-1.5,0.1c-0.7,1.8-1.9,3.5-1.9,5.2
		c0.3,6.5,0,13.3,1.9,19.4c4.1,13.8,7.1,27.7,6.8,41.9c-0.2,8.5-2.4,17-4.5,25.3c-1.1,4.2-3.9,7.9-6,11.8
		c14.8-16.8,23.6-35.4,18.8-57.6c-2.5-11.7-5.5-23.4-8.6-35C1274.6,839,1272.4,835.4,1270.8,831.7z M1144.2,638.5
		c-12.8,6.3-18.4,16.8-15.8,30.8c1.2,6.4,2.9,12.9,10.7,15.6C1147.1,669.8,1150.6,654.8,1144.2,638.5z M1053.4,946
		c-9.3-0.3-16-5.7-24-11.2C1038.9,946.3,1050.4,951.3,1053.4,946z M1146,940.6c-0.6-0.2-1.1-0.4-1.7-0.6c-5,3.1-2.9,8.5-4.5,12.6
		c0.7,0.2,1.4,0.4,2.1,0.6C1143.2,949.1,1144.6,944.9,1146,940.6z M1021.2,876.6c-0.8-0.1-1.6-0.2-2.4-0.3
		c-0.9,7.1-1.9,14.3-2.8,21.4c0.3,0,0.6,0.1,0.9,0.1C1018.4,890.8,1019.8,883.7,1021.2,876.6z"/>
	<path class="st0" d="M962.5,477.5c7.4-1.4,9.4-7.5,11.8-12.7c4.4-9.3,7.9-19,11.9-28.5c0.2-0.4,0.8-0.7,2.4-1.9
		c0.5,2.8,1.6,4.9,1.2,6.8c-3.1,12.5-6,25.2-10.1,37.4c-3.5,10.5-8.8,20.5-13,30.9c-1.8,4.3-2.8,8.9-4.2,13.4
		C962.5,507.8,962.5,492.7,962.5,477.5z"/>
	<path class="st0" d="M1507.5,847.5c-0.7-0.8-1.8-1.6-1.9-2.5c-0.9-12.1-2-24.1-2.3-36.2c-0.1-2.9,2.7-5.9,4.2-8.9
		C1507.5,815.8,1507.5,831.6,1507.5,847.5z"/>
	<path class="st0" d="M1135.3,290.6c1.6,2.6,3.1,4.8,4.5,7.1c3.2,5.3,6.6,10.5,9.5,15.9c1,1.8,0.9,4.2,1.3,6.4
		c-0.5,0.2-1.1,0.3-1.6,0.5c-0.7-0.5-1.6-0.8-2.1-1.5c-2.8-4.3-5.7-8.5-12-7.7c-6.6,0.9-10.7,5-13.6,10.5c-4.6,8.6-5.8,17.6-4.4,27
		c0.3,1.7-0.6,3.6-0.9,5.5c-0.6,0.1-1.2,0.2-1.8,0.3c-0.7-1.8-2.2-3.6-2.1-5.3c0.8-10.6-2.3-21.6,4.4-31.4c0.8-1.2,1.6-2.7,1.5-4
		C1117.3,302.2,1126.2,297,1135.3,290.6z"/>
	<path class="st0" d="M1416.3,638.6c1-6.9,1.8-12.8,2.7-18.7c1.3-8.1,2.4-16.2,4-24.3c0.9-5,4-8.6,10.9-11.1c-1,6.8-1.6,12.5-2.8,18
		c-1.9,8.3-1.2,16.5,1.3,24.4c0.7,2.2,3.7,3.9,5.8,5.7c4.2,3.6,8.8,6.8,12.7,10.6c1.6,1.6,1.9,4.3,3.1,7.4
		c-6.2-5.4-11-10.6-16.8-14.4C1430.4,631.9,1423.6,637.1,1416.3,638.6z"/>
	<path class="st0" d="M1122.4,88.3c-0.9-2.1-1.4-4.5-2.7-6.3c-3.5-4.8-6.5-10.3-11.1-14c-11.7-9.1-15.1-28.5-6.5-40.1
		c2.2-3,4.1-6.6,5.1-10.1c1-3.5,0.6-7.4,0.9-12.2c5.2,7.5,5.3,14.3,1.9,21.2c-4.2,8.6-5.4,17.3-0.3,25.9c1.8,2.9,3.8,5.9,6.4,8.2
		c7,6.3,6.9,14.8,8.4,22.8c0.3,1.4-0.5,3-0.8,4.5C1123.2,88.2,1122.8,88.2,1122.4,88.3z"/>
	<path class="st0" d="M999.6,115.1c-9.4,32.4-15.5,64.9-5.1,98.3c-4.6,2.7-7.6,1-8.8-3.7c-1.8-7.3-3.3-14.7-4.8-22.1
		c-0.8-3.8-1.7-7.6-2-11.5c-0.2-2.2,0.3-4.6,0.9-6.8c2.7-10.4,5.3-20.9,8.4-31.2c0.6-1.9,3.5-3.2,4.4-5.1c1.5-3.5,2.3-7.2,3.4-10.8
		c0.7-2.4,1.4-4.8,2.1-7.2C998.6,115,999.1,115.1,999.6,115.1z"/>
	<path class="st0" d="M1411.4,169.9c3.3,18.1-2.7,47.2-25,55.3c0.8-3.3,0.5-6.4,2-8.2c10.3-12.2,16.8-26.1,21.6-40.8
		C1410.5,174.7,1410.7,173.1,1411.4,169.9z"/>
	<path class="st0" d="M1136.4,367.1c-1.8-0.9-3.5-1.7-5.9-2.9c5.7-7.8,11.2-15.3,16.7-22.9c0.3,0.2,0.9,0.5,0.9,0.6
		c-3,12.1-2.4,24.9-9.7,36.2c-4.1,6.5-5.7,14.4-8.4,21.7c-0.9,2.3-1.7,4.7-3.1,6.9C1126.9,393.1,1132.9,380.7,1136.4,367.1z"/>
	<path class="st0" d="M1452,44.4c-1.3,1-2.3,1.8-3.5,2.8c1.5,2.7,3,5.5,5,9.2c-8.1-6-15.2-10.9-21.9-16.4c-1.9-1.5-2.4-4.6-3.3-7.1
		c-1.6-4.5-3.4-9-4.4-13.7c-0.4-2.1,0.8-4.5,2-6.8C1430.5,26.2,1441.1,35,1452,44.4z"/>
	<path class="st0" d="M1400.8,457.1c2.8-0.5,6.5-1.2,11-2.1c-2.5,10.5,2.1,21.3-4,31.1c-4.6-3.1-8.1-12.7-7.2-17.2
		C1401.3,465.4,1400.8,461.7,1400.8,457.1z"/>
	<path class="st0" d="M1390.2,231.5c-13.2,3.9-19.7,12.5-23,24.9c-1.7-9,4.4-22.5,11.1-26.6C1382.5,227.2,1384.1,227.4,1390.2,231.5
		z"/>
	<path class="st0" d="M1453.1,290.5c-5.8-2.8-7.1,1.7-9.8,4c-1.1,1-2.9,1.3-4.4,1.9c0.3-1.6-0.1-3.9,0.9-4.6c4.4-3.3,9.2-6.3,14-9
		c0.8-0.5,2.9,0.4,3.9,1.3c0.7,0.6,1,2.7,0.5,3.2C1456.7,288.6,1454.6,289.5,1453.1,290.5z"/>
	<path class="st0" d="M1462.3,465.1c-0.9-9.6-1.8-19.3-2.7-28.9C1463.9,439.8,1465.7,454.6,1462.3,465.1z"/>
	<path class="st0" d="M1362.5,278.9c8,1.5,16.4,11.9,18.1,22.3C1374.4,293.7,1368.6,286.5,1362.5,278.9z"/>
	<path class="st0" d="M1340.6,44.9c-1.4,1.4-3.1,3.1-4.8,4.9c-0.6-0.1-1.2-0.2-1.8-0.3c-0.6-5.2-1.2-10.4-1.9-15.6
		c0.4-0.1,0.8-0.1,1.2-0.2C1335.4,37.1,1337.7,40.5,1340.6,44.9z"/>
	<path class="st0" d="M1451.5,541c-1.2,5.5-2.5,10.9-3.7,16.4c-0.8-0.2-1.6-0.3-2.5-0.5c1.3-5.4,2.6-10.8,4-16.2
		C1450,540.8,1450.8,540.9,1451.5,541z"/>
	<path class="st0" d="M1195,765.6c6.6,10.7,13,21.3,20.1,32.8c1.2-2.1,2.4-3.3,2.4-4.4c-0.7-10.3-1.5-20.6-2.5-30.9
		c-0.1-1-2.6-2.7-3.5-2.4C1205.9,762,1200.5,763.9,1195,765.6z"/>
	<path class="st0" d="M1195,765.6c5.5-1.7,10.9-3.5,16.5-4.9c0.9-0.2,3.4,1.5,3.5,2.4c1.1,10.3,1.9,20.6,2.5,30.9
		c0.1,1.1-1.2,2.3-2.4,4.4C1208,786.8,1201.6,776.3,1195,765.6z"/>
	<path class="st0" d="M1076.4,619.5c2.7,7.9-0.5,14.5-2,21.4C1068.1,638.3,1069.2,625,1076.4,619.5z"/>
	<path class="st0" d="M1177.3,820.5c-3.4,0.3-5.9,0.6-8.8,0.9c-1-3.9-1.2-7.6,3.4-8.3C1176.9,812.4,1176.1,816.9,1177.3,820.5z"/>
</g>
</svg>
