<?xml version="1.0" encoding="utf-8"?>
<!-- Generator: Adobe Illustrator 23.1.1, SVG Export Plug-In . SVG Version: 6.00 Build 0)  -->
<svg version="1.1" id="Layer_1" xmlns="http://www.w3.org/2000/svg" xmlns:xlink="http://www.w3.org/1999/xlink" x="0px" y="0px"
	 viewBox="0 0 2000 1000" style="enable-background:new 0 0 2000 1000;" xml:space="preserve">
<style type="text/css">
	.st0{fill:#94469B;}
	.st1{fill:#DE85B7;}
</style>
<title>Artboard 1</title>
<rect class="st0" width="2000" height="1000"/>
<path class="st1" d="M332.3,585.6c-0.8,0.8-0.8,2.5-2.4,8.2c14.8-6.1,27-10.7,38.8-16.2c15-7,30.1-13,46-16.7
	c8.2-1.9,16.5-3.1,24.9-3.6c4-0.2,8-1,11.8-2.2c7.6-2.5,14.7-7.1,21.6-14c9.5-9.3,20.7-16.6,33-21.7c4.4-1.8,8.9-3.3,13.5-4.4
	c5.8-1.4,11.3-2.9,16.7-4.7c15.5-5.2,29.2-12.6,41-26c16.6-18.8,34.1-36.5,52.3-53.4c18.5-17.2,37.7-33.7,57.4-49.7
	c21.2-17.3,35.2-41.9,45.5-68.1c15.4-39.3,40.6-72.7,66.3-105.8c3.9-5.1,7.9-10,12-14.9c14.5-17.4,30.2-33.4,48.9-46.5
	c2-1.4,4.4-2.3,6.8-2.5c1.7-0.1,3.5,0,5.2,0.3c-10.3,16.5-20.6,33-31,49.4c-15.4,24.7-30.5,49.5-45.9,74.2
	c-7.7,12.3-15.5,24.6-23.5,36.8c-16.6,25.4-35.1,49.5-52.8,74.1c-13.6,19-27,38.2-41.1,57c-17,22.6-34,45.2-52,66.9
	c-15.3,18.4-32.8,34.9-48,53.4c-1,1.3-2.1,2.6-3.1,3.8c-8.9,11.2-20.2,20.4-29.6,31.2c-7.6,8.6-14.1,18-17.4,30.2
	c-7,25.6-27,41.2-48.2,56.3c-13.3,9.5-26.5,19.2-39.4,29.1c-17.6,13.6-34.8,27.8-51,42.8c-3,2.7-5.8,5.6-8.5,8.6
	c-13.9,15.6-25.1,34.1-37.9,50.8c-23.4,30.6-50.1,57.7-82,79.6c-23.9,16.4-39.4,38.6-47.9,65.4c-1.5,4.7-2.8,9.6-3.8,14.6
	c-2.4,11.2-6.9,21.9-10.4,32.9l-5.2-1.1c1-8.2,1.3-16.5,2.9-24.6c1.5-7.2,2.3-14.5,2.5-21.8c0.2-13.3-2.5-26.2-10-38.6
	c-2.2-3.6-5.7-6.3-11.4-12.6c-4.8,17.6-9.4,31.3-12.3,45.4c-0.4,1.9-0.8,3.8-1.2,5.7h-29.7c1.4-7.1,2.7-14.3,4-21.4
	c6.4-35.1,9.7-70.8,17.1-105.7c3.7-17.5,13.4-33.9,21-50.5c1.2-2.6,6.4-5.9,8.2-5.2c3.1,1.3,6,5.2,7,8.6c2.7,8.7,4.7,17.6,5.9,26.7
	c1.6,12.7,9.2,20.6,19.5,26.3c8.6,4.8,9.2,10.9,7.3,19.8c-2.4,11.2-4.2,22.8-3.6,34.1c0.7,11.7,8.2,14.2,16.4,5.9
	c5.7-5.8,9.1-13.7,14-20.4c28.1-37.9,55.7-76.2,84.8-113.4c2.1-2.7,4.3-5.4,6.6-8.1c14.1-16.7,29.8-32.1,44.2-48.6
	c20.8-23.9,40.1-49.1,61.7-72.3c19.9-21.4,42.1-40.7,62.9-61.2c2.6-2.5,4.5-7.3,4-10.7c-0.3-2.1-5.9-5.5-8.5-5
	c-9.1,1.8-18.7,3.1-27.5,5.9c-3.3,1-6.4,2.2-9.5,3.7c-12.9,6.3-24.8,14.4-37,22.1c-4.2,2.6-8.5,5.2-12.8,7.6
	c-16.4,9-32.7,19.7-50.5,24.5c-0.5,0.1-1,0.2-1.4,0.4c-45.1,12.8-65.3,46.8-81.3,86.9c-15.2,38.3-32.5,75.7-50.2,116.6
	c-4.7-5.6-8.2-7.9-8.7-10.7c-5.4-30.7-6.1-61.4,6.9-90.6c11.5-25.8,22.7-52,36.6-76.5c19.2-33.9,39.9-67,61.8-99.2
	c2.5-3.6,5.2-6.9,8.2-10c9.6-10.2,21.3-19,28.8-30.6c11.4-17.4,17.7-38.2,27.6-56.7c11.3-21.2,28.4-35.2,53.6-37.3
	c1.8-0.2,3.5-0.6,5.1-1.2c2.4-0.8,4.6-2.2,6.4-4c23.5-26.5,45.5-54.5,70.3-79.6c12.5-12.6,16.1-27.5,23-42.2
	c6.2-13.4,19.8-23.5,31.1-34.1c18.6-17.5,37.9-34.2,57-51.2c2.7-2.4,5.9-4.4,8.6-6.7c27.3-23.3,54-47.2,81.9-69.7
	c7.1-5.7,14.2-11.3,21.5-16.7c18.3-13.8,37-27.2,55.2-41.2l3.4-2.6c20.3-15.4,41.1-30.5,59.8-47.7C888.8-2,903.6,2.2,919,2.9
	c1.1,1.3,2.1,2.6,3.2,3.8c-11.1,12.6-21.6,25.9-33.5,37.8c-25.2,25.3-50.8,50.3-77,74.5c-15.2,14.1-31,27.7-46.6,41.4
	c-9.3,8.1-18.6,16.2-27.8,24.4c-16.3,14.6-33.4,28.6-48,44.9c-4.7,5.3-9,10.9-13.1,16.7c-8,11.3-15.4,23.1-24,33.9
	c-7.2,9-15.9,17.7-25.7,23.5l-1.9,1.2c-26.5,16.3-46.3,39.4-66,62.7c-24.4,28.8-45.9,60.2-72.4,86.8c-5.8,5.7-12,11-18.6,15.9
	c-16.4,12.2-34.5,22.6-50,35.9C388,531.4,360.5,558.9,332.3,585.6z"/>
<path class="st1" d="M877.5,445.3c-11.9,12.1-24.3,23.7-35.4,36.5c-14.7,16.9-28.5,34.5-42.2,52.2c-17.2,22.3-34.3,44.6-50.9,67.4
	c-17.7,24.4-34.7,49.3-52.2,73.9c-1.8,2.5-4.7,5.5-7.5,5.9c-13.2,2-21.3,10.4-30,19.7c-10.9,11.5-23,21.8-36.2,30.6
	c-22.4,15-31.8,37.3-37.6,61.7c-6.5,27.4-8.6,56.1-17.8,82.5c-7.3,20.7-17.8,40.6-29.1,59.7c-3,5-6,10-9,14.9
	c-9.1,14.8-22.9,26.7-34.5,39.9l-3.6-1.4c0.5-4.6-0.3-9.9,1.6-13.8c6.8-13.3,13.7-26.5,20.7-39.7c8.2-15.5,16.5-31,24.8-46.5
	c3.5-6.6,7.2-13,11.9-21.5c-5.3,0-7.1-0.5-7.7,0.1c-12,12.8-26.7,13.1-43,12.3c-6.1-0.3-13.4,7.5-18.7,13
	c-13.6,14-27,28.4-40.4,42.6h-53.5c11.4-12.9,22.7-25.9,33.8-39c18-21.3,34.8-43.6,52.7-65c14.8-17.8,36.5-25.4,56.9-33.5
	c24.7-9.8,42.8-26.4,55.5-48.2c19.8-34,45.7-61.2,78.5-82.2c23.6-15.1,35.5-39.6,48.4-62.8c19.1-34.2,38-68.1,68.9-93.7
	c10-8.3,17.3-19.9,26.8-29c7.3-6.8,15.4-12.8,24.1-17.7c10.4-6,21.5-10.6,32.5-15.5C869,447.1,873.3,446.4,877.5,445.3z"/>
<path class="st1" d="M878.1,444.7l0.3,0.3l-1,0.3L878.1,444.7L878.1,444.7z"/>
<path class="st1" d="M65.6,821.9c-8.7-19.1-11.5-21.2-25.5-13.3c-9.5,5.4-17.5,13.5-28.8,22.5c0-19.1-2.7-37.1,1.1-53.6
	c2-8.5,16.1-13.8,23.7-21.6c15.3-15.6,28.5-33.6,45.2-47.5c24.4-20.4,32.8-49.2,46.8-75.5c9.8-18.3,25.3-33.5,38.2-50.2
	c4.1-5.3,7.9-10.9,11.3-16.7c14.9-25,30-49.9,44.4-75.2c10.4-18.3,20.2-36.9,29.2-56c2.4-5,0.4-12.1,0.4-23.5
	c-14.3,13.4-27.9,22.5-36.7,35.1c-22,31.4-42.4,63.9-62.2,96.8c-12.6,21-22,44-34.8,64.9c-8.4,13.5-20.9,24.4-30.6,37.3
	c-9.2,12.2-16.8,25.5-25.6,37.9c-11.2,15.7-22.6,31.3-34.7,46.3c-2.8,3.5-8.8,4.3-15.7,7.5c0-17.1-0.4-31.4,0.3-45.7
	c0.2-3.9,2.9-8.4,5.7-11.5c19.8-22,41-42.7,59.6-65.7c13.8-17,25.1-36.3,36.2-55.2c22.3-38,41-78.2,71.7-110.6
	c11.8-12.4,22.8-25.8,35.9-36.8c30.5-25.5,47.8-61.2,72-91.4c29.5-36.8,56.9-75.4,88.4-110.4c41.6-46.2,76.5-96.3,103.8-152
	c7.6-15.5,15.5-30.8,24.3-45.6c2.3-3.8,8.1-6.8,12.7-7.7c6.5-1.3,13.5-0.9,20.2-0.4c3.5,0.3,6.8,2.3,10.2,3.6
	c-1.9,2.9-3.1,6.6-5.7,8.6c-22.1,17-32,40.9-39.4,66.7c-5.1,17.8-9.4,36.4-17.9,52.7c-20.9,39.9-52,72-85,102.2
	c-25.8,23.6-54.1,44.9-77.9,70.3c-14.3,15.3-22.6,36.4-32.8,55.3c-6.8,12.6-11.1,26.7-18.5,39c-13.2,21.9-7.3,48-16.8,70.2
	c-4.7,11-12.1,21-18.8,31.1c-4.8,7.2-12.2,13-15.4,20.7c-10.3,24.7-19.1,50.1-28.5,75.2l3.3,3.3c4.2-1.8,9.7-2.5,12.4-5.6
	c27.3-31,56.2-60.9,80.3-94.3c16.2-22.5,26.7-49.5,37.5-75.5c20.6-49.4,35.1-102.1,81-136.3c23.4-17.5,47.2-34.6,69.6-53.2
	c43.9-36.3,88.6-71.8,125.7-115.7c28.4-33.6,60.2-64.6,85.8-100c11.2-15.4,21.4-19.1,37.4-18.6c12.3,0.3,24.7,0.1,37.1,0.1l1.8,4.1
	c-4.9,3.4-10.8,6-14.6,10.3c-19.9,22.6-38.8,46.1-59,68.4c-7.4,8.1-16.5,16.1-26.4,20.2c-15.6,6.4-26.3,17.5-31.9,31.6
	c-14.7,37.2-40.6,65.8-68.5,92.5c-22.1,21.1-47.1,39.2-71.1,58.2c-15.8,12.6-33.3,23.3-47.9,37.1c-9.2,8.6-14.5,21.3-21.5,32.3
	c-18.2,28.6-35.1,58.2-55,85.5c-27.5,37.8-57.4,73.9-86.2,110.8c-6.9,8.9-14.5,17.6-19.8,27.5c-15.9,29.7-42.6,48.8-66.9,70.4
	c-45.4,40.2-80.2,89-113.4,139.1c-6.6,10-13.2,20-19.8,30L65.6,821.9z"/>
<path class="st1" d="M878.5,445c1.4-3.9,1.7-8.8,4.3-11.4c19.7-19.1,31-43.4,41.9-67.9c4-9.1,8.4-18,12.4-27.1
	c25.7-59.6,56.4-115.8,101.9-163.5c24.8-26,47.1-55.2,67-85.2c14.1-21.2,23.1-45.9,32.9-69.7c4.4-10.5,8.5-17.5,21.3-16.7
	c14.4,0.9,28.9,0,43.4,0.3c4.8,0.1,9.6,1.6,15.1,2.6c-11.2,13.5-22,24.8-30.7,37.4c-16.1,23.4-29.9,47.9-32.9,77.2
	c-0.8,7.8-5.1,15.4-8.9,22.5c-13,24.1-26.5,47.9-39.6,72c-2.2,4.3-3.7,8.9-4.6,13.6c-5.7,26.1-21.8,46.9-36.2,68.2
	c-7.5,11-20.3,18.3-30.6,27.5c-19.9,17.8-39,36.5-59.8,53.2c-9.3,7.5-23,9.4-32.9,16.4c-22.1,15.8-43.1,33.3-64.5,50.1L878.5,445z
	 M1119.8,142.4l-5.5-2.8c-9.5,13.2-19.2,26.3-28.5,39.6c-19.3,27.5-38.3,55.2-57.9,82.5c-19,26.4-37.2,53.2-49.3,83.6
	c-1.3,3.4-0.1,7.8-0.1,11.8c3.4-0.9,7.6-0.9,10.2-3c12.4-9.8,25.8-18.9,36.2-30.6c28.2-31.9,55.1-65,70-105.9
	c2.4-6.7,5.8-13.9,10.9-18.5C1123.6,182.8,1122.6,163,1119.8,142.4L1119.8,142.4z"/>
<path class="st1" d="M623,894.8c-4.2,14.5-8.2,29.1-12.6,43.6c-5.8,19-10.6,38.4-17.1,57.1h-51.9c0.9-1.7,1.7-3.4,2.6-5.1
	C562.3,952.4,595.7,926.6,623,894.8z"/>
<path class="st1" d="M311.1,4.2c-5.3,6.2-10,13.2-16.1,18.6c-22.6,20-45.1,40.1-68.7,58.9c-27.2,21.6-50.5,46.5-62.5,79.2
	c-4.9,13.4-3.2,29.2-3.8,44c-0.1,2.5,3.5,7.2,5.3,7.2c3.7-0.3,7.1-2.1,9.4-4.9c14.5-18.7,27.6-38.4,42.9-56.4
	c10.2-12,23.3-21.6,34.9-32.4c15.3-14.4,30.7-28.7,45.7-43.4c15.7-15.5,30.7-31.6,46.4-47.1c6.8-6.6,14.1-12.8,21.7-18.6
	c3.4-2.6,7.8-3.6,13.4-2.7c-12.3,12.9-24.9,25.5-36.9,38.8c-30.4,33.5-60.7,67-90.5,101c-5.1,5.9-9.7,13.9-10.8,21.4
	c-3.5,24.2-19.5,37.4-38.3,49c-16.4,10.1-31.2,21.4-39.9,40.1c-4,8.5-13.5,14.4-20.6,21.4c-8.7,8.7-17.1,17.7-26.2,25.9
	c-15.2,13.7-30.2,27.7-46.4,40.2c-15.8,12.2-32.8,22.7-49.5,33.7c-2.4,1.5-5.7,1.7-9.2,2.7c-2.4-14.6,2-28.4,11.1-39.1
	c20.6-24.4,42.8-47.4,64-71.3c7.3-8.2,14.1-16.8,20.3-25.7C130,211,145.2,173.3,159.1,135c10.9-30.1,30.5-53.9,54.7-74.1
	c19.9-16.6,39.9-33,60.9-48c9.5-6.7,21.6-9.7,32.5-14.4L311.1,4.2z"/>
<path class="st1" d="M454.4,5c-2.6,3.1-3.5,4.8-4.9,5.8c-34.8,24.8-55.5,60.3-72.9,98c-33.3,72.5-81.4,134.1-137.9,189.7
	c-18.8,18.5-32.3,40.9-46.6,63c-15.8,24.2-35.2,46.2-53.2,69c-14,17.6-28.1,35.1-42.4,52.5c-8.5,10.4-17.6,20.2-26.2,30.5
	c-13.9,16.9-27.4,34-41.3,50.9c-4.3,5.2-9.3,9.8-15.6,16.5c-6.6-18-0.2-30,8.5-39.8c27.8-31,48.8-66.4,69.7-102.2
	c25.5-43.7,47.5-90.4,86.1-124.9c26.1-23.2,54-44.3,80.3-67.3c16-14,30.7-29.7,45.7-44.8c29.2-29.5,36.3-70.3,54-105.7
	c7.6-15.2,18.4-28.8,28.7-42.4c10.7-14.2,22.9-27.2,33.8-41.2C429.6,0.9,440.6,2.5,454.4,5z"/>
<path class="st1" d="M922.2,656.2c-4.6,15.8-8.5,30-24.6,41.4c-24.2,17.3-44.7,39.9-66.7,60.3c-20.9,19.5-42.7,38.2-62.3,59
	c-22.3,23.5-38.4,51.7-46.5,83.2c-7.2,27.9-13.3,55.8-28.9,80.6c-3.1,4.9-6.2,9.8-9.3,14.8h-33c8.4-29.8,23.6-56.4,41.6-81.9
	c6-8.5,8.3-16.6,8.1-27.8c-0.2-13.1,5.4-26.8,10.5-39.4c15.5-38,53-55.4,79.8-82.9c16.9-17.3,36.2-32.2,54.8-47.8
	c15.8-13.2,32.1-25.7,48-38.8c3.6-3,6.2-7.1,9.5-10.4c4.8-4.8,9.9-9.4,14.8-14L922.2,656.2z"/>
<path class="st1" d="M205.6,7.7c-11.1,16.7-20.5,33.8-32.7,48.6c-29.3,35.7-54.5,73.8-76.9,114.2c-18.8,33.8-47.6,60.1-76.9,85.1
	c-1.2,1.1-3.4,1-6.6,1.8c-3-21.9-4.2-41.8,10.7-60.2c24.6-30.5,47.8-62.1,71.9-93c4.6-5.9,9.7-11.8,15.7-16.2
	c24.6-18.6,35.5-47.1,52.4-71.2C172.5,3.4,185.2-0.4,205.6,7.7z"/>
<path class="st1" d="M836.3,564.7c-13.2,25.5-21.4,53.2-41.9,75.2c-14.6,15.7-25.9,34.4-38.8,51.7c-21.7,29.1-44.1,57.8-65,87.5
	c-22.5,31.9-43.5,64.8-68.1,97.3c2.6-15.7,5.1-31.3,7.8-47c0.4-2.3,2.8-4.5,2.6-6.6c-4.5-34.8,16.9-56.8,39.1-78
	c23.1-22.1,49.3-41.2,70.1-65.2c26.7-30.9,49.2-65.4,73.8-98.1c5.1-6.8,11.4-12.7,17.1-19L836.3,564.7z"/>
<path class="st1" d="M65.2,821.5c3.7,13.2,11.3,3.9,15.1,1.4c15.7-10.6,30.3-22.8,46-33.5c10.4-6.9,21.9-12.1,34-15.3
	c-5.9,7.7-11.8,15.5-17.8,23.1c-25.5,32.2-50.2,65.1-77.1,96.1c-11.7,13.4-27.9,22.9-42.3,33.7c-6.5,4.9-12.3,4.4-12.1-5.6
	c0.2-12.7-3.5-26.1,7.2-37c2.1-2.2,3.1-6.1,3.3-9.3c1.7-26,22.2-38.5,38.6-53.9c0.9-0.8,3.7,0.3,5.6,0.6L65.2,821.5z"/>
<path class="st1" d="M960.9,89.5c13.5-25.7,26.5-50.8,39.9-75.7c3.8-7.2,9.1-12.6,19.3-7.3c-6.4,19.4-28.1,33.2-20.2,60
	c10-9.6,19.1-17.9,27.6-26.7c6.4-6.4,12.3-13.3,17.7-20.6c12.9-18,30.2-17.7,51.1-13.1c-12.1,11.2-22.8,21.4-33.8,31.2
	c-8,7.1-19,12.1-24.4,20.7c-15.3,24.4-36.3,41.4-60.5,55.7c-10,5.9-18.3,14.5-27.4,21.9l-3.4-2.3l25.8-41.8L960.9,89.5z"/>
<path class="st1" d="M40.5,89.3C42,48,70.1,28.3,94.1,6.8c6.6-5.9,20-4.3,30.4-5.6c0.3,0,3.2,7.8,1.9,9.3
	c-19,21.1-38.1,42.3-58.3,62.3C61.1,79.6,50.8,83.2,40.5,89.3z"/>
<path class="st1" d="M847.8,539.5c37.5-46.5,74.9-93,112.4-139.5l3.7,2c-1.7,16.1-6.7,31-17.3,44.1c-3.2,4-6.2,8.2-9.1,12.4
	c-6.3,9.3-10.9,20.4-19,27.6c-21.7,19.4-44.9,37.2-67.5,55.6L847.8,539.5z"/>
<path class="st1" d="M12.6,58C6,19,20.3-1.5,46.8,6.4L12.6,58z"/>
<path class="st1" d="M1119.8,142.4c2.8,20.5,3.8,40.3-14.1,56.8c-5.1,4.7-8.5,11.9-10.9,18.5c-14.9,40.9-41.8,74-70,105.9
	c-10.4,11.7-23.8,20.8-36.2,30.6c-2.6,2-6.8,2-10.2,3c0-4-1.2-8.4,0.1-11.8c12.1-30.4,30.3-57.2,49.3-83.6
	c19.6-27.2,38.6-55,57.9-82.5c9.4-13.3,19-26.4,28.5-39.6L1119.8,142.4z"/>
<path class="st1" d="M1101.8,980.3l1-0.2l-0.7,0.6L1101.8,980.3z"/>
<path class="st1" d="M1982.9,307.5c-3.5,12.9-19,23-29.9,33.5c-10.4,10-22.9,15.3-37.5,19c-20,5.1-34.6,21.8-42.2,40
	c-9.5,22.9-14.6,47.9-19.7,72.4c-7.5,36.5-11.7,73.6-20.3,109.8c-4.3,18.2-14.7,35-23,52.1c-1.3,2.7-6.8,6-8.7,5.2
	c-3.2-1.4-6.1-5.5-7.1-9.1c-2.6-9.1-4.5-18.5-5.6-27.9c-1.4-13.2-9.2-21.7-19.7-27.8c-8.8-5.2-9.3-11.6-7.1-20.8
	c2.7-11.6,4.9-23.7,4.5-35.5c-0.4-12.2-8.2-15-17-6.5c-6,5.9-9.8,14.1-15,20.9c-30.1,38.9-59.8,78.2-90.9,116.2
	c-16.7,20.4-36.4,38.4-54.2,57.9c-22.2,24.5-42.9,50.3-65.9,73.9c-21.2,21.8-44.8,41.4-67,62.3c-2.7,2.6-4.8,7.5-4.4,11.1
	c0.2,2.2,6,5.9,8.8,5.4c13.1-2.2,26.9-3.7,38.8-9.1c18.2-8.4,34.8-20.5,52.6-29.8c17.3-9.1,34.5-19.8,53.1-24.4
	c48.3-11.9,70.4-47.3,88.1-89c16.7-39.5,35.5-78.2,54.9-120.4c4.8,6,8.4,8.4,8.9,11.4c4.9,32.2,5,64.1-9.2,94.2
	c-12.6,26.7-24.8,53.7-39.9,78.9c-20.8,34.9-43,69-66.6,102c-11,15.4-28.9,25.9-39.5,41.5c-12.3,17.9-19.3,39.3-30,58.5
	c-6,10.7-13.4,19.6-22.5,26.1h-103.8c10.8-13,22.2-25.5,34.3-37.3c21.3-20.5,49.6-33.4,72.6-52.3c31.2-25.6,60.5-53.7,90.5-80.8
	c0.9-0.8,0.9-2.6,2.7-8.5c-15.5,6-28.4,10.5-40.8,16c-23.7,10.5-47.8,18.6-74.2,19.5c-13,0.4-24.2,5.7-35.2,16.1
	c-13.8,12.8-30.7,21.9-49,26.2c-23.7,5.2-43.8,12.3-60.8,30.6c-23.3,25-48.1,48.6-74.2,70.5h-48c5.5-7.2,11-14.4,16.6-21.6
	c18.2-23.1,36.4-46.3,55.7-68.5c17.5-20.1,37.6-38,54.5-58.5s42-34.5,50.4-62.9c7.9-26.5,29.1-42.3,51.5-57.6
	c33.1-22.6,65.9-46.3,95.8-73c19.3-17.2,33.3-40.4,49.7-60.8c25.1-31.3,53.4-59,87.3-81.1c29.7-19.5,47.5-47.6,55.7-82.2
	c2.8-11.6,7.7-22.7,11.6-34l5.4,1.2c-1.2,8.5-1.7,17.2-3.6,25.6c-4.8,21.8-5.1,43,6.4,63c2.2,3.8,5.8,6.7,11.6,13.4
	c5.4-18.2,10.5-32.4,13.8-47.1c11.7-51.9,31.2-100.3,58.1-146.4c9.7-16.6,23.4-32.7,23.1-54.7c-0.2-13.7-5.2-17.9-19.2-14.9
	c-34.1,7.2-53.9,33.3-76.4,55.8c-39.1,39-77.7,78.4-116,118.2c-23.7,24.7-46.9,49.8-69.6,75.5c-20.7,23.5-40.2,48.1-60.7,71.7
	c-17.1,19.7-41.6,27.6-64.7,36.2c-28,10.4-48.7,28.6-63.5,52.8c-23,37.6-52.7,67.6-90.1,90.4c-26.9,16.4-40.8,43.5-55.9,69.3
	c-22.2,37.9-44.3,75.5-79.6,103.5c-11.5,9.1-19.9,21.9-30.8,31.8c-8.3,7.5-17.6,14-27.4,19.3c-11.8,6.4-24.4,11.4-36.8,16.6
	c-4.4,1.8-9.3,2.5-14,3.6c13.6-13.3,27.9-26,40.7-40.1c16.9-18.6,32.8-38,48.6-57.5c19.9-24.5,39.6-49.2,58.7-74.4
	c20.5-26.9,40.2-54.5,60.4-81.7c2.1-2.8,5.4-6.1,8.5-6.5c14.9-1.9,24.2-11.2,34.2-21.3c12.5-12.7,26.4-23.9,41.3-33.5
	c25.5-16.3,36.6-41.1,43.7-68.3c7.9-30.6,11-62.8,22-92.1c10.9-29.2,27.7-56.5,44.6-82.9c10.6-16.4,26.3-29.4,39.7-44l3.9,1.6
	c-0.7,5.2,0.1,11.2-2.2,15.5c-17.3,32.1-35.2,63.9-53,95.7c-4.1,7.3-8.4,14.4-13.9,23.8c6,0.1,8,0.8,8.7,0.1
	c13.8-14.1,30.4-14,48.6-12.8c6.8,0.5,15.2-8.1,21.3-14.1c26.2-25.8,51.4-52.6,77.7-78.3c27-26.4,58.2-49.3,74.9-84.6
	c6.3-13.3,9.9-27.9,15.4-41.6c3.8-9.4,8.7-18.4,13-27.6l-3.3-4c-6,1.5-12.4,2.2-18,4.7c-37.1,16.3-74,32.9-113.6,47.9
	c6.1-9.6,11.8-19.4,18.4-28.7c22.7-31.8,46.7-62.8,78.6-85.6c18.5-13.2,39.8-22.7,60.5-32.4c35.8-16.8,64.1-41.8,83.3-76
	c13.1-23.3,24.5-47.4,34.4-72.1l45.4-12.5c-7,17.2-11.8,32.4-19.3,46.3c-6.4,11.7-14.3,22.5-23.5,32.1c-13.1,13.8-21,29.5-29,46.9
	c-9.6,21-28.1,38-42.5,56.8c-15.7,20.5-31.2,41.1-46.5,61.8c-1.9,2.6-3.9,6.2-3.7,9.2c0.4,7.7,2,15.3,3.1,23c6-2.8,12-5.7,18.1-8.3
	c24.1-10.4,47.7-22.6,72.6-30.4c28.8-9.1,53.1-22.5,70.8-47.6c16.6-23.5,34-46.4,51.2-69.5c2.2-2.9,5.6-4.9,9.2-8
	c7.7,18-2.4,30.5-10.6,42.2c-18.5,26.4-34.2,54.2-44.5,84.7c-1.7,5.5-2.3,11.3-1.8,17.1c0.5,7.5,4.4,11.7,12.7,7.9
	c14.2-6.6,28.5-13.1,44-20.3C1985.1,265,1988.3,287.4,1982.9,307.5z"/>
<path class="st1" d="M1923,621.6l-0.1,0.2l-0.2-0.6l0.3,0.3L1923,621.6z"/>
<path class="st1" d="M1975.2,707.3c-0.4,17.1-0.3,31.4-1.3,45.7c-0.3,3.9-3.1,8.3-5.9,11.3c-20.3,21.5-41.9,41.8-61,64.4
	c-14.2,16.7-25.8,35.7-37.4,54.5c-23.1,37.5-42.7,77.3-74.1,109.1l-3.2,3.2h-28.6c0.5-0.7,1.1-1.4,1.6-2.1
	c22.7-30.9,43.8-63,64.3-95.4c13.1-20.7,23-43.5,36.2-64.1c8.7-13.4,21.4-24,31.4-36.6c9.4-11.9,17.3-25.1,26.4-37.3
	c11.5-15.5,23.3-30.8,35.7-45.5C1962.2,711.1,1968.2,710.3,1975.2,707.3z"/>
<path class="st1" d="M1805.1,874.6c-15.5,24.7-31.1,49.3-46,74.3c-9.1,15.3-17.9,30.8-26,46.6h-17.5c1.3-9.9,2.8-19.8,7-28.9
	c5-10.9,12.6-20.7,19.5-30.6c4.9-7.1,12.4-12.8,15.8-20.4c10.8-24.5,20.2-49.6,30.2-74.5c-1.1-1.1-2.1-2.2-3.2-3.3
	c-4.2,1.7-9.7,2.3-12.5,5.3c-27.9,30.4-57.5,59.7-82.3,92.5c-13.6,18-23.4,39-32.7,60h-50.6c0.7-0.9,1.4-1.8,2-2.7
	c28.3-37.2,59-72.6,88.6-108.9c7.1-8.8,14.9-17.3,20.4-27.1c16.6-29.4,43.7-47.9,68.4-68.9c46.2-39.2,82.1-87.2,116.4-136.7
	c6.8-9.8,13.6-19.6,20.3-29.4c8.1,18.8,10.9,20.8,25,13.3c9.6-5.2,17.8-13.1,29.3-21.9c-0.4,19.1,1.9,37.2-2.3,53.5
	c-2.2,8.5-16.4,13.5-24.2,21.1c-15.7,15.3-29.2,33-46.2,46.5c-24.9,19.8-33.8,48.5-48.4,74.5c-10.2,18.1-26.1,33-39.2,49.4
	C1812.5,863.4,1808.6,868.9,1805.1,874.6z"/>
<path class="st1" d="M1356.5,156.1c-1.5,3.8-1.9,8.8-4.6,11.3c-20.1,18.7-31.9,42.7-43.3,66.9c-4.2,9-8.8,17.8-13,26.8
	c-27,59.1-58.9,114.5-105.4,161.2c-25.4,25.5-48.3,54.2-68.9,83.8c-14.5,20.9-24,45.4-34.4,68.9c-4.6,10.4-8.9,17.3-21.7,16.2
	c-14.4-1.2-28.9-0.6-43.4-1.2c-4.8-0.2-9.6-1.8-15-3c11.5-13.3,22.6-24.3,31.6-36.8c16.6-23,30.9-47.2,34.5-76.5
	c1-7.7,5.4-15.3,9.4-22.3c13.5-23.8,27.5-47.3,41.1-71.1c2.2-4.3,3.9-8.8,4.9-13.5c6.3-26,22.8-46.4,37.7-67.4
	c7.7-10.9,20.7-17.9,31.1-26.8c20.3-17.4,39.8-35.7,61-51.9c9.5-7.3,23.2-8.9,33.2-15.7c22.5-15.4,43.8-32.4,65.6-48.7L1356.5,156.1
	z M1108.7,453.4l5.4,2.9c9.8-13,19.7-25.9,29.4-39c19.9-27,39.4-54.4,59.7-81.2c19.6-26,38.4-52.4,51.1-82.6
	c1.4-3.4,0.3-7.8,0.4-11.8c-3.5,0.9-7.6,0.8-10.2,2.8c-12.6,9.5-26.2,18.3-36.8,29.8c-28.9,31.3-56.5,63.7-72.3,104.3
	c-2.6,6.6-6.1,13.8-11.3,18.3C1105.8,413,1106.3,432.8,1108.7,453.4L1108.7,453.4z"/>
<path class="st1" d="M1839.9,1.3c-5.8,10-11.8,19.8-17.4,29.9c-9.7,17.6-18.8,35.5-28.8,53c-18.7,32.7-51.9,47.2-82.3,65.4
	c-23,13.7-47.6,25.9-68,42.9c-23.3,19.4-43.3,42.9-63.9,65.4c-17.4,19-34.5,38.5-50,59.1c-14.2,18.9-25.9,39.7-38.8,59.6
	c-9.2,14.3-18.6,28.5-27.7,43c-5.3,8.5-10.5,17-15.1,25.9c-19.1,37.5-53.1,62.5-81.1,93.8c4.5-14.4,8.8-28.9,13.5-43.3
	c7.8-23.7,14.1-48.1,24-70.9c13.6-31.2,32.6-58.7,57.3-83.2c34.9-34.6,79.7-59.6,104.1-104.3c17.2-31.6,32.3-64.3,48.1-96.6
	c18.4-37.9,36.4-75.9,54.9-113.8c1.5-3,4.9-5.2,7.4-7.7"/>
<path class="st1" d="M1666.9,31.1l-9.4,148.7c12.4-7.6,25.2-14.2,36.5-22.8c20.1-15.3,40-31,58.4-48.3c7.9-7.5,13.3-18.9,16.8-29.5
	c8.7-26.4,15.9-53.3,23.3-80.1"/>
<path class="st1" d="M1959.9,902.8c-26.3,28.1-46.9,60.1-66.9,92.6h-39.4c10.1-12.1,20.3-24.2,30.7-36.2c8.7-10.2,18.1-19.8,26.8-30
	c14.2-16.5,28.1-33.4,42.3-50c4.4-5.1,9.5-9.7,15.9-16.1C1975.5,881.3,1968.9,893.2,1959.9,902.8z"/>
<path class="st1" d="M1062.6,768.3c4.9-15.7,9.2-29.8,25.5-40.9c24.6-16.8,45.6-38.9,68-58.9c21.3-19,43.5-37.3,63.6-57.6
	c22.8-23.1,39.5-50.9,48.3-82.2c7.8-27.7,14.5-55.5,30.6-80c10.4-15.9,21.3-31.6,30.3-48.2c6.9-12.7,12.4-26.1,16.1-40
	c3.7-13.7,4.2-28.3,6.3-44.6l-34.4-4c6.5-5.4,9.8-9.5,14-11.1c5.1-1.9,11-1.6,16.5-2.3l-6.5-19.2c-0.3-0.9-0.6-1.8-2.1-6.1l25.9-7
	c-1.1-34.3,23.8-58.6,43.4-86.6c-0.4,5.2,0.2,10.7-1.3,15.4c-4.9,15.4-11.1,30.3-15.9,45.7c-1.8,5.9-1.4,12.5-2,18.8
	c-0.2,1.9,0.2,4-0.3,5.7c-9.1,28-19,55.7-27.4,83.8c-5.9,19.7-11.1,39.8-14.2,60.1c-6.3,40.5-25.6,74.5-49.2,106.7
	c-6.2,8.4-8.6,16.4-8.7,27.6c-0.1,13.1-6,26.7-11.4,39.2c-16.3,37.7-54.2,54.3-81.6,81.1c-17.3,16.9-36.9,31.4-55.8,46.6
	c-16,12.9-32.7,25-48.8,37.8c-3.7,2.9-6.4,6.9-9.8,10.2c-4.9,4.7-10.1,9.1-15.1,13.7L1062.6,768.3z"/>
<path class="st1" d="M1146.5,861.7c13.7-25.2,22.6-52.7,43.5-74.3c14.9-15.4,26.7-33.8,39.9-50.9c22.3-28.7,45.4-56.8,66.9-86
	c23.2-31.5,44.9-63.9,70.2-95.9c-2.9,15.6-5.8,31.2-8.8,46.8c-0.4,2.3-3,4.5-2.7,6.5c3.7,34.9-18.2,56.5-40.8,77.1
	c-23.6,21.5-50.2,40.1-71.5,63.7c-27.4,30.3-50.6,64.3-75.9,96.5c-5.2,6.7-11.6,12.5-17.5,18.7L1146.5,861.7z"/>
<path class="st1" d="M1923,621.6c-3.4-13.2-11.2-4.2-15-1.7c-15.9,10.2-30.8,22.2-46.7,32.5c-10.6,6.7-22.2,11.6-34.3,14.5
	c6.1-7.6,12.1-15.2,18.3-22.7c26.2-31.6,51.6-64,79.2-94.4c11.9-13.2,28.4-22.3,43.1-32.8c6.7-4.8,12.4-4.1,12,5.8
	c-0.5,12.6,2.9,26.2-8,36.8c-2.2,2.1-3.3,6-3.5,9.2c-2.3,26-23,38-39.7,53.1c-0.9,0.8-3.7-0.4-5.6-0.7
	C1922.6,621.2,1923,621.6,1923,621.6z"/>
<path class="st1" d="M1631.9,21.8c-20.3,27.1-39.5,55-61.3,80.8c-19.9,23.6-35,51.9-63.2,67.8c-4,2.3-7.8,4.9-12.9,8.1
	c6.3-32.6,132.2-179.9,154.5-180.3"/>
<path class="st1" d="M1990.3,10.6c0.6,15.1,0,29.4-9.5,43.6c-15.2,22.8-26.6,48.1-39.6,72.3c-1.4,2.6-2.6,5.2-3.9,7.8l-4.6-3.4
	c2.8-14.7,4.5-29.8,8.8-44c8.2-27,17.5-53.6,27.4-80"/>
<path class="st1" d="M1134.4,862.6c-30.6,36.3-61.1,72.6-91.7,108.8l-23.8,28.2l-3.7-2c1-9,3.4-17.9,7.1-26.2
	c2.9-6.3,6.6-12.2,11.1-17.5c3.3-3.9,6.4-8,9.4-12.2c6.5-9.1,11.3-20.1,19.6-27.2c22.1-19,45.7-36.2,68.7-54.2L1134.4,862.6z"/>
<path class="st1" d="M1443.8,86c-4.9-13.7-2.2-19.4,6.7-20.6c3.3-0.4,7,2.9,10.5,4.5L1443.8,86z"/>
<path class="st1" d="M403.2,809.3c-8.4-18.1-11.1-20.1-24.3-12.5c-9,5.2-16.6,13-27.2,21.6c-0.1-18.2-2.9-35.3,0.7-51
	c1.8-8.1,15.2-13.3,22.4-20.7c14.5-14.9,26.9-32.2,42.7-45.5c23.1-19.5,30.9-47.1,44-72.2c9.2-17.5,23.9-32.1,36-48.1
	c3.9-5.1,7.4-10.4,10.7-15.9c14-23.9,28.2-47.7,41.7-71.9c9.8-17.5,19-35.3,27.4-53.5c2.2-4.8,0.3-11.5,0.2-22.4
	c-13.5,12.9-26.4,21.6-34.7,33.6c-20.7,30-40,61.1-58.6,92.5c-11.9,20.1-20.6,42-32.8,62c-7.9,13-19.7,23.4-28.9,35.7
	c-8.6,11.6-15.8,24.3-24.1,36.2c-10.6,15-21.3,29.9-32.8,44.3c-2.6,3.3-8.3,4.2-14.9,7.2c-0.1-16.3-0.6-29.9,0-43.5
	c0.2-3.8,2.7-8,5.3-11c18.7-21,38.8-40.9,56.3-62.9c13-16.3,23.6-34.7,34.1-52.8c20.9-36.3,38.5-74.7,67.5-105.8
	c11.1-11.9,21.5-24.7,33.9-35.2c28.9-24.5,45.1-58.5,67.9-87.5c27.8-35.2,53.7-72.1,83.4-105.7c39.3-44.2,72.2-92.2,97.8-145.4
	c7.1-14.8,14.6-29.4,22.8-43.6c2.1-3.7,7.6-6.5,12.1-7.4c6.2-1.3,12.8-1,19.2-0.5c3.3,0.2,6.5,2.2,9.8,3.3c-1.8,2.8-2.9,6.3-5.3,8.2
	c-20.9,16.3-30.2,39.2-37.1,63.8c-4.8,17-8.7,34.7-16.7,50.2c-19.7,38.1-49.1,68.9-80.2,97.8c-24.4,22.6-51.2,43-73.7,67.4
	c-13.5,14.6-21.3,34.8-30.9,52.9c-6.4,12.1-10.4,25.5-17.3,37.2c-12.5,20.9-6.6,45.7-15.6,67c-4.4,10.5-11.4,20-17.7,29.7
	c-4.5,6.9-11.5,12.5-14.5,19.8c-9.6,23.6-17.9,47.8-26.7,71.7l3.1,3.1c4-1.7,9.2-2.4,11.8-5.4c25.7-29.7,53.1-58.3,75.8-90.2
	c15.3-21.5,25.1-47.3,35.2-72.1c19.3-47.2,32.7-97.4,76.2-130.3c22.2-16.8,44.7-33.2,65.9-51.1c41.5-34.9,83.8-68.9,118.8-110.9
	c26.8-32.1,56.8-61.9,81-95.8c10.5-14.8,20.3-18.3,35.5-18c11.8,0.2,23.5-0.1,35.3-0.2l1.8,3.9c-4.7,3.3-10.2,5.7-13.8,9.9
	c-18.8,21.7-36.6,44.1-55.7,65.5c-7,7.8-15.6,15.5-25,19.4c-14.8,6.2-24.9,16.8-30.2,30.3c-13.8,35.5-38.2,62.9-64.6,88.5
	c-20.9,20.2-44.5,37.6-67.3,55.9c-15,12.1-31.5,22.4-45.4,35.6c-8.7,8.3-13.7,20.4-20.2,30.9c-17.1,27.3-33,55.6-51.8,81.8
	c-26,36.2-54.2,70.7-81.3,106c-6.6,8.6-13.7,16.9-18.7,26.3c-15,28.4-40.2,46.8-63.2,67.4c-42.9,38.6-75.8,85.2-107,133.1
	c-6.2,9.6-12.4,19.1-18.6,28.7L403.2,809.3z"/>
<path class="st1" d="M1174.5,445.3c1.3-3.7,1.6-8.4,4.1-10.9c18.6-18.3,29.2-41.5,39.4-64.9c3.8-8.7,7.9-17.2,11.6-25.9
	c24.1-56.9,53-110.6,95.9-156.3c23.5-25,44.5-52.8,63.3-81.6c13.3-20.2,21.6-43.9,30.9-66.5c4.1-10,8-16.7,20.2-16
	c13.7,0.8,27.5-0.2,41.3,0c4.6,0.1,9.2,1.5,14.4,2.4c-10.6,13-20.8,23.7-29,35.8c-15.2,22.3-28.1,45.8-30.8,73.7
	c-0.7,7.4-4.8,14.7-8.3,21.5c-12.2,23-24.9,45.8-37.2,68.8c-2,4.1-3.5,8.5-4.3,13c-5.2,24.9-20.4,44.8-34,65.1
	c-7,10.5-19.2,17.6-28.9,26.4c-18.8,17.1-36.9,35-56.6,51c-8.9,7.2-21.9,9.1-31.2,15.9c-20.9,15.2-40.8,32-61.1,48.1L1174.5,445.3z
	 M1402.2,155.7l-5.2-2.6c-9,12.6-18.1,25.2-26.9,37.9c-18.2,26.3-36.1,52.8-54.6,78.9c-18,25.3-35.1,50.9-46.4,80
	c-1.3,3.2-0.1,7.5,0,11.2c3.3-1,7.3-1,9.7-2.9c11.7-9.4,24.4-18.1,34.3-29.3c26.7-30.5,52-62.2,65.9-101.2
	c2.3-6.4,5.5-13.3,10.3-17.7C1406,194.1,1405,175.2,1402.2,155.7z"/>
<path class="st1" d="M1105.9,526.4c-6.3,13.7-12.5,27.5-19.1,41.2c-10.8,22.5-20.2,45.8-33,67.1c-17.5,29.2-40,53.9-67.7,75
	c-39.1,29.8-86.8,48.7-116.8,89.9c-21.2,29.1-40.5,59.5-60.3,89.5c-20.1,30.4-39.9,60.9-59.8,91.4c-3.1,4.8-6.3,9.5-9.4,14.3
	c-1.9,2.8-5.5,4.5-8.3,6.7l-59.5-1.2l-25.2-0.5l-60.3-1.2l-19.6-0.4c4.6-5.9,9.2-11.8,13.8-17.7c2.5-3.2,5-6.5,7.4-9.7
	c4.9-6.7,9.8-13.5,14.6-20.2c6.9-9.6,13.7-19.2,20.8-28.5c19.8-26,48.7-37.1,77.3-48.7c4.3-1.7,8.6-3.5,12.8-5.3
	c5.5-2.4,11.1-4.7,16.6-6.9c19.4-7.9,38.9-15.7,56.4-26.7c25.7-16.2,48.6-36.9,71.9-56.5c19.7-16.6,39.2-33.7,57.2-52.1
	c16.5-16.9,30.9-36,46.2-54.1c11-13,22.2-25.9,33-39c6.4-7.7,12.7-15.5,18.3-23.7C1037.1,574.2,1074,553.8,1105.9,526.4z"/>
<path class="st1" d="M729.2,1001.1c18-45.5,36.1-91.1,54.9-138.6c-14.1,3.4-28.4,5.7-41.8,10.4c-23.8,8.4-47.7,17.1-70.5,27.9
	c-9.8,4.7-18.5,13.8-25.1,22.9c-16.5,22.4-31.6,45.8-47,69L729.2,1001.1z"/>
<path class="st1" d="M631.5,29.5c-5,6-9.5,12.6-15.2,17.8c-21.4,19.2-42.7,38.5-65,56.5c-25.8,20.7-47.7,44.6-59,75.8
	c-4.6,12.7-2.9,27.8-3.4,41.9c-0.1,2.3,3.4,6.8,5.1,6.8c3.5-0.3,6.7-2,8.9-4.7c13.6-17.9,26.1-36.7,40.5-53.9
	c9.7-11.5,22.1-20.7,33-31.1c14.5-13.7,29.1-27.5,43.2-41.6c14.9-14.8,29.1-30.3,43.9-45.1C670,45.4,676.8,39.5,684,34
	c3.2-2.5,7.4-3.5,12.7-2.7c-11.7,12.4-23.6,24.5-34.9,37.1c-28.7,32.1-57.4,64.2-85.5,96.8c-4.9,5.6-9.2,13.2-10.1,20.4
	c-3.2,23-18.3,35.7-36.2,46.8c-15.6,9.7-29.6,20.6-37.7,38.4c-3.7,8.1-12.8,13.8-19.5,20.5c-8.2,8.3-16.2,16.9-24.8,24.8
	c-14.3,13.2-28.6,26.6-43.9,38.6c-14.9,11.7-31.1,21.8-46.9,32.4c-2.2,1.5-5.4,1.6-8.8,2.6c-2.4-13.9,1.7-27,10.3-37.3
	c19.5-23.3,40.4-45.4,60.5-68.3c6.9-7.8,13.3-16,19.2-24.6c22-32.2,36.3-68.1,49.2-104.6c10.1-28.7,28.7-51.5,51.6-70.8
	C558,68.2,577,52.4,596.9,38.1c9-6.5,20.5-9.4,30.8-14L631.5,29.5z"/>
<path class="st1" d="M768,29.2c-2.4,2.9-3.3,4.6-4.6,5.5c-33,23.9-52.5,57.8-68.7,93.8c-31.2,69.3-76.6,128.2-130,181.5
	c-17.8,17.8-30.5,39.2-43.9,60.2c-14.9,23.2-33.2,44.3-50.2,66.1c-13.2,16.9-26.5,33.6-40,50.2c-8,9.9-16.7,19.3-24.7,29.3
	c-13.1,16.1-25.8,32.6-38.9,48.7c-4,5-8.8,9.4-14.7,15.8c-6.4-17.1-0.4-28.6,7.9-38c26.3-29.7,46-63.5,65.7-97.7
	c24.1-41.8,44.6-86.4,81.3-119.5c24.7-22.3,51.1-42.5,76-64.6c15.2-13.4,29-28.4,43.2-43c27.6-28.3,34.1-67.2,50.7-101
	c7.1-14.4,17.3-27.5,27-40.6c10.1-13.5,21.6-26,31.9-39.4C744.3,25.5,754.8,26.9,768,29.2z"/>
<path class="st1" d="M1261.4,641.3c-4.5,15.8-8.3,30-24.3,41.6c-24.1,17.5-44.4,40.2-66.2,60.8c-20.8,19.6-42.4,38.5-61.9,59.4
	c-22.2,23.7-38,52-45.9,83.5c-7,27.9-12.9,55.9-28.3,80.8c-6.6,10.7-13.3,21.2-19.6,32.1h-26.4c6.5-36.9,23.8-68.8,44.8-99.2
	c5.9-8.5,8.2-16.7,7.9-27.8c-0.3-13.1,5.2-26.9,10.2-39.5c15.3-38.1,52.6-55.8,79.3-83.4c16.8-17.4,36-32.5,54.4-48.2
	c15.7-13.3,31.9-26,47.7-39.1c3.6-3,6.2-7.1,9.5-10.4c4.8-4.8,9.8-9.4,14.7-14.1L1261.4,641.3z"/>
<path class="st1" d="M430.4,102c4.6-6,9.6-11.9,15.6-16.4c24.5-18.7,35.1-47.3,52-71.5c9.4-13.5,22-17.3,42.4-9.4
	c-11,16.7-20.3,33.9-32.4,48.8c-29,35.9-53.9,74.2-76.1,114.7c-18.6,33.9-47.1,60.4-76.4,85.6c-1.2,1.1-3.4,1-6.6,1.9
	c-3.2-21.9-4.5-41.7,10.3-60.3"/>
<path class="st1" d="M1174.9,546.4c-13,25.6-21.1,53.3-41.4,75.5c-14.5,15.8-25.7,34.6-38.4,52c-21.5,29.3-43.7,58.1-64.4,87.9
	c-22.2,32.1-43.1,65.1-67.4,97.8c2.5-15.7,4.9-31.4,7.5-47c0.4-2.3,2.8-4.6,2.5-6.6c-4.7-34.8,16.5-57,38.5-78.3
	c22.9-22.2,49-41.6,69.6-65.7c26.5-31.1,48.8-65.7,73.2-98.6c5-6.8,11.3-12.8,17-19.1C1172.7,544.9,1173.8,545.6,1174.9,546.4z"/>
<path class="st1" d="M405.6,808.5c3.8,13.1,11.3,3.8,15.1,1.3c15.6-10.7,30.1-23,45.7-33.8c10.4-7,21.8-12.3,33.9-15.5
	c-5.9,7.7-11.7,15.6-17.7,23.2c-25.3,32.4-49.7,65.5-76.4,96.6c-11.6,13.5-27.7,23.1-42.1,34c-6.5,5-12.3,4.5-12.2-5.5
	c0.1-12.7-3.6-26.1,7-37c2.1-2.2,3.1-6.1,3.3-9.3c1.5-26,21.9-38.7,38.2-54.2c0.9-0.8,3.7,0.3,5.6,0.6L405.6,808.5z"/>
<path class="st1" d="M1257.4,88.9c12.7-24.6,24.9-48.5,37.5-72.3c3.6-6.8,8.6-12,18.3-7.1c-5.9,18.5-26.6,31.8-18.8,57.2
	c9.5-9.2,18.1-17.1,26.1-25.6c6.1-6.1,11.7-12.7,16.7-19.7c12.1-17.2,28.6-17,48.5-12.8c-11.4,10.7-21.5,20.5-32,29.9
	c-7.6,6.8-18.1,11.6-23.1,19.9c-14.4,23.3-34.3,39.7-57.3,53.4c-9.5,5.7-17.4,13.9-26,20.9c-1.1-0.7-2.2-1.5-3.3-2.2l24.3-40
	L1257.4,88.9z"/>
<path class="st1" d="M968.5,581.5c19.5-27.6,38-56.1,59-82.6c19.2-24.1,33.6-52.9,61.3-69.5c4-2.4,7.7-5.1,12.7-8.5
	c-5.3,32.8-127,183.6-149.3,184.6L968.5,581.5z"/>
<path class="st1" d="M374.5,112.2c1.2-39.3,27.9-58.3,50.4-78.9c6.2-5.7,19-4.2,28.9-5.5c0.3,0,3.1,7.4,1.9,8.8
	c-18,20.2-36,40.5-55.1,59.6C394,102.9,384.3,106.4,374.5,112.2z"/>
<path class="st1" d="M1186.2,521.1l111.5-140.3l3.7,1.9c-1.6,16.1-6.4,31.1-17,44.2c-3.2,4-6.2,8.2-9,12.5
	c-6.2,9.3-10.8,20.5-18.8,27.7c-21.6,19.6-44.7,37.5-67.2,56.1L1186.2,521.1z"/>
<path class="st1" d="M1455.5,122.2c2.9,20.5,4,40.3-13.7,56.9c-5,4.7-8.4,11.9-10.8,18.6c-14.7,41-41.3,74.3-69.3,106.3
	c-10.3,11.8-23.6,20.9-36,30.8c-2.6,2-6.7,2.1-10.2,3c0-4-1.3-8.4,0-11.8c11.9-30.5,29.9-57.5,48.8-84
	c19.4-27.4,38.2-55.3,57.3-82.9c9.3-13.4,18.8-26.6,28.3-39.8L1455.5,122.2z"/>
</svg>
